<?xml version="1.0" encoding="UTF-8"?>
<svg width="269px" height="220px" viewBox="0 0 269 220" version="1.1" xmlns="http://www.w3.org/2000/svg" xmlns:xlink="http://www.w3.org/1999/xlink">
    <!-- Generator: Sketch 56.2 (81672) - https://sketch.com -->
    <title>编组 4备份</title>
    <desc>Created with Sketch.</desc>
    <g id="Page-1" stroke="none" stroke-width="1" fill="none" fill-rule="evenodd">
        <g id="测试" transform="translate(-582.000000, -638.000000)">
            <g id="编组-5备份" transform="translate(119.000000, 620.000000)">
                <g id="编组-4备份" transform="translate(463.000000, 18.000000)">
                    <g id="编组">
                        <path d="M256.757343,176.815479 C256.757343,176.815479 257.059599,176.746521 257.625988,176.616561 C258.194419,176.515112 259.03311,176.387142 260.084198,176.485275 C261.125073,176.569483 262.371538,176.926874 263.491381,177.768298 C264.615309,178.595136 265.564964,179.910649 266.098677,181.505975 C266.625582,183.093344 266.731099,184.994341 266.130672,186.732887 C265.826374,187.596856 265.333507,188.400487 264.656835,189.034373 C264.004671,189.663618 263.076801,190.145664 262.212241,190.375083 C261.328619,190.587263 260.259833,190.493771 259.351023,190.190752 C258.913978,190.052172 258.489867,189.796231 258.408176,189.651683 C258.410899,189.62715 258.355077,189.601954 258.389796,189.614552 C258.386392,189.62715 258.381627,189.63577 258.400007,189.640411 C258.374139,189.658977 258.406134,189.620519 258.425195,189.58604 C258.417026,189.560181 258.472848,189.494538 258.530032,189.429558 C258.597426,189.304239 258.808461,189.151072 258.964354,189.002546 L258.996349,188.974035 L259.011326,188.959447 C259.088932,188.903087 258.922147,189.019786 258.949377,189.002546 L259.043322,188.939555 L259.234614,188.815563 L259.617199,188.566252 C259.894947,188.354735 260.076028,188.325561 260.261875,188.247319 C260.357181,188.210851 260.444317,188.161122 260.543027,188.127968 L260.86094,188.072271 C261.696228,187.911147 262.511093,188.167089 263.278985,188.789704 C264.821578,190.04952 265.871304,192.252873 266.377106,194.326266 C266.451989,194.588838 266.484665,194.850084 266.530957,195.110667 L266.564994,195.30627 L266.568398,195.329477 C266.572483,195.356 266.558868,195.19355 266.564994,195.275106 L266.567717,195.330804 L266.575206,195.440872 L266.600394,195.882471 C266.616051,196.170902 266.650089,196.479889 266.65145,196.748429 L266.58814,197.449948 C266.466965,198.400777 266.176283,199.378793 265.611255,200.212924 C264.542468,201.927601 262.794287,203.320029 261.342915,204.990281 C259.851379,206.639314 258.892875,208.80421 259.001115,210.85108 C259.018134,211.077184 259.034472,211.301299 259.049448,211.522761 C259.097782,211.773398 259.144754,212.022046 259.190365,212.266716 C259.316986,212.7355 259.43816,213.173121 259.63626,213.57361 C259.985488,214.389175 260.448402,215.082737 260.912678,215.697395 C261.854844,216.921406 262.875297,217.797973 263.758918,218.439817 C264.641859,219.086302 265.422686,219.46491 265.959122,219.694329 C266.223255,219.815006 266.439054,219.881312 266.582694,219.927726 C266.724291,219.974804 266.797132,220 266.797132,220 C266.797132,220 266.727695,219.964195 266.594267,219.896562 C266.4622,219.830256 266.262739,219.734775 266.02039,219.576967 C265.531607,219.282568 264.850851,218.786598 264.076831,218.071155 C263.308939,217.353059 262.458674,216.389631 261.703035,215.179544 C261.336788,214.571517 260.986199,213.901162 260.76155,213.161849 C260.630164,212.802469 260.555961,212.408611 260.487205,212.03597 C260.46474,211.853629 260.442956,211.669961 260.421172,211.482977 C260.423895,211.261515 260.426618,211.036737 260.42866,210.811296 C260.511712,209.206688 261.348361,207.581525 262.731657,206.193074 C264.095212,204.764177 266.02039,203.476512 267.464273,201.352726 C268.209701,200.310394 268.679422,199.047262 268.889095,197.705889 L268.998697,196.664883 C269.005505,196.349929 268.98372,196.071443 268.977594,195.773729 L268.958532,195.33213 L268.953767,195.220735 L268.949683,195.166364 L268.936748,195.025795 L268.899307,194.784441 C268.84825,194.460867 268.805362,194.131989 268.722991,193.82035 C268.438435,192.555892 267.996624,191.337185 267.390071,190.164893 C266.775348,189.00122 266.007455,187.856776 264.861743,186.920534 C263.749388,185.986943 261.998483,185.380242 260.398707,185.736306 L259.811214,185.863614 C259.619241,185.926605 259.432714,186.015455 259.243464,186.096349 C258.866325,186.260788 258.469444,186.44313 258.263856,186.609558 L257.884675,186.864174 L257.695425,186.990818 L257.60148,187.054472 C257.611011,187.046515 257.431291,187.176475 257.494602,187.133376 L257.468052,187.156584 L257.414273,187.203661 C257.131759,187.467559 256.847203,187.678413 256.585793,188.060336 C256.455087,188.228754 256.324382,188.400487 256.226353,188.661733 C256.122879,188.899772 256.02485,189.13118 256.017361,189.454754 C255.924779,190.050846 256.217504,190.69269 256.53882,191.076602 C257.22298,191.857025 257.952751,192.101695 258.632826,192.328462 C259.322432,192.537326 259.999103,192.638775 260.682582,192.658003 C261.024322,192.680547 261.363338,192.654688 261.720054,192.630818 L262.300058,192.546609 C262.483862,192.514782 262.593464,192.474998 262.74323,192.439856 C264.099977,192.028095 265.224586,191.373654 266.117738,190.423487 C267,189.491886 267.582044,188.376616 267.899276,187.26201 C268.539867,185.012243 268.192001,182.805575 267.430235,181.02194 C266.675277,179.221066 265.409751,177.816702 264.025094,177.007104 C262.646563,176.16369 261.207445,175.960793 260.097132,176.005881 C258.974565,176.027762 258.134512,176.314868 257.585823,176.491242 C257.045303,176.702759 256.757343,176.815479 256.757343,176.815479" id="Fill-1" fill="#F7DD17"></path>
                        <path d="M44,81.4759536 C44,81.4759536 43.7101795,81.5944218 43.1678899,81.8188531 C42.6179918,82.0149836 41.8031741,82.2828533 40.7345041,82.3664391 C39.6769012,82.4625299 38.365446,82.3262916 37.0892672,81.6944615 C35.8137801,81.0790854 34.6206048,79.9562708 33.7933367,78.4885822 C32.9736771,77.0287916 32.5171579,75.1885866 32.7986781,73.3872128 C32.9432425,72.4921203 33.2883987,71.6226958 33.8479806,70.8875353 C34.3833532,70.1609307 35.2223802,69.5310751 36.0454982,69.159875 C36.8900588,68.8024961 37.9760212,68.7110124 38.9409369,68.8511997 C39.4036814,68.9124082 39.8754179,69.0894523 39.9826307,69.2164764 C39.9847058,69.2414864 40.0455751,69.2559658 40.0082235,69.2507006 C40.0089152,69.2368793 40.0123737,69.2283233 39.9936979,69.2263488 C40.0158321,69.2039715 39.9909311,69.2460935 39.9784806,69.2842665 C39.9916228,69.3079602 39.9473543,69.3816737 39.9010106,69.454729 C39.8574338,69.5889929 39.6755178,69.7739348 39.5461707,69.9463718 L39.5198863,69.9792796 L39.5081274,69.9957335 C39.4403412,70.0635236 39.5855974,69.9213618 39.5620797,69.9437391 L39.4783845,70.0207434 L39.3109941,70.1754102 L38.9741383,70.4840855 C38.7348115,70.7381338 38.5591208,70.7973678 38.3875802,70.9053055 C38.2997348,70.957958 38.2215732,71.021141 38.128886,71.0698446 L37.8210814,71.1790985 C37.0159474,71.4785596 36.1534028,71.3686475 35.2707989,70.8914842 C33.4952158,69.9233363 32.0398878,67.9501837 31.1524421,66.0112553 C31.0286285,65.7670793 30.9470084,65.5176381 30.8536295,65.2708295 L30.7830765,65.0858876 L30.7754679,65.0635103 C30.7671675,65.0385003 30.8100526,65.1951415 30.7886101,65.1161628 L30.7761596,65.0621939 L30.7484917,64.9555726 L30.6419706,64.5290873 C30.572801,64.2500291 30.4821888,63.9538587 30.4310033,63.6905962 L30.3652922,62.994925 C30.31134,62.0465218 30.4213196,61.0402009 30.8321869,60.1286544 C31.5861353,58.2713373 33.0774315,56.6127835 34.2208047,54.732431 C35.4084464,52.8658997 35.9680283,50.5880208 35.4831495,48.6063122 C35.4243554,48.3884625 35.3669446,48.1725872 35.3102256,47.9593446 C35.2168466,47.7224083 35.1234677,47.4874465 35.0321639,47.2557755 C34.8198132,46.8200761 34.6178381,46.4126773 34.3453099,46.0559566 C33.8465972,45.3181634 33.255889,44.7192412 32.678323,44.1986396 C31.5093571,43.1633597 30.3279407,42.482168 29.3256734,42.0050047 C28.3234062,41.5245506 27.4726204,41.2882725 26.8950544,41.1553249 C26.6073089,41.0829277 26.379741,41.054627 26.2282596,41.0342241 C26.0774699,41.012505 26,41 26,41 C26,41 26.0753948,41.0230355 26.2213427,41.0664738 C26.3665988,41.1085958 26.5830996,41.1678299 26.8542443,41.2803746 C27.3979172,41.484403 28.1698497,41.8529706 29.0759713,42.4203013 C29.9758675,42.9909228 31.0037275,43.7866337 31.982477,44.8390256 C32.4618222,45.3708159 32.9349422,45.9664474 33.2960074,46.6489554 C33.4938324,46.9780336 33.6404719,47.35055 33.7788111,47.7033218 C33.8341467,47.8770751 33.8894824,48.0528028 33.9455097,48.2318213 C33.9842447,48.4483547 34.0236714,48.6681789 34.0624063,48.8893194 C34.2754486,50.4715272 33.738001,52.20182 32.6098451,53.7952164 C31.5100488,55.4234951 29.8216193,57.0103099 28.76955,59.3316271 C28.2155017,60.4781354 27.9796334,61.7918153 28.016985,63.1384031 L28.0992968,64.1743411 C28.1497906,64.4830164 28.2231103,64.750886 28.2839796,65.0417911 L28.3849671,65.4695927 L28.4098682,65.5775303 L28.4237021,65.6301828 L28.4631288,65.7651049 L28.5454406,65.9948014 C28.6561119,66.3015022 28.7591746,66.6154428 28.8988971,66.9056897 C29.4169773,68.0930037 30.0830804,69.2079204 30.9061984,70.25044 C31.7355416,71.2817709 32.7142912,72.2683472 34.0319717,72.9870538 C35.3157591,73.7097094 37.1798793,74.0032471 38.7140606,73.3819476 L39.2777927,73.1581745 C39.4583253,73.0627418 39.6291742,72.9442737 39.8027898,72.8330452 C40.1500211,72.6079558 40.5138531,72.3624635 40.6881605,72.1643585 L41.0201745,71.8510761 L41.1868732,71.695093 L41.2684933,71.6167724 C41.2601929,71.6259866 41.4158245,71.4680291 41.3611805,71.5219979 L41.3833148,71.4936972 L41.428275,71.4390702 C41.6627599,71.1323694 41.9083119,70.8783211 42.0985282,70.4603918 C42.1988241,70.2734754 42.2977366,70.0839264 42.3475387,69.8114497 C42.4070246,69.5613503 42.4623602,69.3178325 42.410483,69.0012593 C42.3924989,68.4029953 41.9823233,67.8257922 41.5901318,67.5052701 C40.7621719,66.8602769 39.9874726,66.7457577 39.2646505,66.6397946 C38.5376782,66.5542342 37.8418322,66.57003 37.1549783,66.6680953 C36.8091304,66.704952 36.4750413,66.7885379 36.1215848,66.8721237 L35.5578527,67.0531167 C35.3793952,67.1162997 35.2770242,67.1735593 35.1338431,67.2334515 C33.8528225,67.867256 32.8477885,68.6985074 32.1304999,69.7798582 C31.4201283,70.840148 31.0438458,72.0294364 30.9317911,73.1733121 C30.7062983,75.4801498 31.4602467,77.5770358 32.551051,79.1888605 C33.6377051,80.8197718 35.1622027,81.9754943 36.696384,82.53032 C38.2298736,83.1193699 39.7066441,83.0706663 40.8092072,82.8370208 C41.9276794,82.6244364 42.7148292,82.2005837 43.231526,81.9340304 C43.7330054,81.6352275 44,81.4759536 44,81.4759536" id="Fill-3" fill="#28A2C9"></path>
                        <path d="M246,61 C246,61 246.196051,61.1142897 246.561388,61.3283352 C246.953489,61.5073671 247.41384,61.930173 247.98125,62.4091328 C248.236852,62.6978299 248.530594,62.9997398 248.82099,63.3485546 C249.063209,63.7396501 249.398436,64.1016776 249.635303,64.5700673 C250.169926,65.4639053 250.571395,66.5790559 250.757409,67.7675368 C250.774137,68.0331118 250.790865,68.3039718 250.808262,68.5801169 L250.715924,69.0921084 C250.655034,69.181294 250.604851,69.2671765 250.568719,69.3590046 C250.299065,69.8247518 249.854773,70.3070147 249.353605,70.5950512 C249.22915,70.6690423 249.105364,70.7476578 248.978232,70.7721012 C248.854445,70.8117393 248.728652,70.8692144 248.627615,70.852038 C248.574086,70.8540199 248.522564,70.8586443 248.469035,70.8685538 L248.448962,70.871857 C248.424204,70.871857 248.642336,70.884409 248.5413,70.8778027 L248.522564,70.8751602 L248.448293,70.8639294 L248.300418,70.8408072 C247.999316,70.810418 248.168602,70.7621917 248.133139,70.7773863 C248.128455,70.7410514 248.178639,70.8328796 248.178639,70.7258568 C248.199382,70.6360106 248.293058,70.4767977 248.428888,70.3981823 C248.681145,70.23963 249.099342,70.2515215 249.644671,70.59373 C249.685487,70.6194947 249.831354,70.702074 249.787861,70.6782912 L250.040787,70.8837484 C250.239514,71.0297486 250.313117,71.1407351 250.41616,71.2504004 C250.614218,71.462464 250.889225,71.7828716 251.085276,72.0966728 C251.941074,73.3631086 252.507145,74.969771 252.553983,76.4449672 C252.588108,77.1795924 252.47369,77.8759009 252.17861,78.3925168 C252.089617,78.5068065 252.006647,78.6250601 251.927692,78.7485987 C251.819964,78.8463725 251.712906,78.9395219 251.612538,79.0445628 C251.586443,79.0716488 251.247201,79.3061739 251.175606,79.3253323 C251.058511,79.3946989 250.903276,79.4647261 250.737336,79.5340927 C250.095654,79.8201473 249.411149,79.8274143 249.22915,79.7283192 C248.968864,79.5843009 249.054511,79.6074231 249.030423,79.6199752 C249.052504,79.6516856 249.108709,79.7329436 249.126775,79.9476497 C249.127444,80.1636771 249.02507,80.3995235 248.911989,80.478139 C248.73735,80.620836 248.763446,80.5475056 248.825674,80.5488269 C248.895931,80.5362748 249.00232,80.5422205 249.108709,80.5560939 L249.192349,80.5772341 L249.215099,80.581198 L249.225135,80.5831799 C249.171606,80.5607183 249.362304,80.6366912 249.106033,80.532311 L249.176959,80.566664 L249.460664,80.7014334 C249.691509,80.7919403 249.749052,80.8804652 249.846743,80.9557775 C250.017368,81.0568546 250.325161,81.3838685 250.574072,81.6031991 C251.065202,82.141616 251.546965,82.7091007 251.910964,83.3089566 C252.727953,84.474976 252.815607,85.6495836 252.711225,86.9120556 C252.428859,89.3973615 251.342216,91.3918161 250.347911,92.5181975 C249.852765,93.0995556 249.359627,93.4576193 249.014364,93.694787 C248.643674,93.8942985 248.445616,94 248.445616,94 C248.445616,94 248.663748,93.9345972 249.073915,93.8117193 C249.460664,93.6419363 250.064875,93.3941984 250.685814,92.8650304 C251.31612,92.3543602 252.012669,91.6303051 252.620895,90.6684217 C253.22979,89.7098414 253.799876,88.5345732 254.097632,87.1267617 C254.244168,86.4264894 254.327808,85.6694026 254.27294,84.8099175 L254.208705,84.2675368 C254.146478,83.972894 254.08425,83.8150024 254.016,83.579156 C253.863442,83.1722053 253.702185,82.784413 253.499443,82.4210642 C253.120724,81.6745476 252.63227,80.9861667 252.086941,80.2898583 C251.757736,79.9443466 251.545627,79.6318666 251.037099,79.2559657 C250.808931,79.0762732 250.554667,78.8866712 250.39341,78.8186259 L250.115059,78.6699832 L250.04614,78.6316664 C249.777824,78.5233224 249.956478,78.5979741 249.888898,78.5708881 L249.861464,78.5622998 L249.806596,78.545784 L249.58445,78.4823631 C249.278664,78.4162996 248.960835,78.3740191 248.604865,78.403087 C248.247558,78.4519739 247.839398,78.4962364 247.347598,78.9315943 C247.101364,79.1674407 246.864497,79.5988349 246.898622,80.0328716 C246.918695,80.4629444 247.084636,80.7384289 247.230503,80.9438861 C247.477406,81.2893978 247.916346,81.5721493 248.032772,81.6421765 C248.672446,82.0088285 249.411149,82.1429372 249.983912,82.0795163 C250.588123,82.0405389 251.114717,81.890575 251.617891,81.6976698 C251.863457,81.5998959 252.114375,81.4935338 252.384028,81.3402667 C252.711225,81.1625561 252.738659,81.1407551 253.069202,80.90623 C253.294694,80.7106823 253.522193,80.5105101 253.734972,80.2991071 C253.916302,80.0632607 254.094287,79.8201473 254.263573,79.5743914 C254.867784,78.5378563 255.027702,77.4035474 254.996254,76.3683336 C254.877821,74.2846933 254.155845,72.4223655 253.036415,70.7866352 C252.748027,70.3671324 252.458969,70.0064262 252.044787,69.6001361 C251.837361,69.4026065 251.612538,69.1918642 251.45262,69.0894659 L251.189658,68.8959001 C250.975541,68.7399904 250.917997,68.735366 250.774137,68.6494835 C250.303749,68.3726778 249.708906,68.171845 249.064548,68.1282431 C248.411491,68.1011571 247.700891,68.2782071 247.148871,68.6944066 C246.601535,69.1106062 246.217462,69.7071589 246.112411,70.4265895 C246.063566,70.7859745 246.097691,71.1863189 246.26497,71.5721292 C246.441616,71.9566184 246.744056,72.2704196 247.084636,72.4672886 C247.405811,72.6555693 247.957831,72.7797686 248.062213,72.7606102 L248.213433,72.7725016 L248.288374,72.777126 L248.436248,72.7850537 L248.490447,72.7784473 L248.926041,72.7156871 C249.226474,72.6839766 249.462002,72.5723294 249.701545,72.4679492 C249.95514,72.3741392 250.153198,72.2347454 250.351925,72.0966728 C251.132783,71.5344731 251.698854,70.8434497 252.056831,70.0110506 C252.143147,69.764634 252.215411,69.513593 252.274293,69.2711403 L252.311095,68.7393298 L252.312433,68.7076193 C252.312433,68.7221533 252.319124,68.511411 252.315778,68.5920083 L252.312433,68.5741712 L252.300389,68.5021621 L252.277639,68.3594651 L252.23147,68.076053 L252.13311,67.5237628 C251.765097,66.1027386 251.124084,64.9472894 250.408131,64.0580758 C250.078257,63.5936499 249.669428,63.2369074 249.338885,62.8795043 C248.966857,62.5571148 248.602189,62.2908792 248.288374,62.0398382 C247.581119,61.6051409 247.02843,61.3138012 246.616255,61.2100817 C246.214786,61.0733304 246,61 246,61" id="Fill-5" fill="#EA1B24"></path>
                        <path d="M158,103 C158,103 158.195385,103.11429 158.560727,103.327675 C158.952835,103.507367 159.413194,103.930173 159.981282,104.409133 C160.236219,104.69783 160.529965,104.99974 160.820366,105.348555 C161.062589,105.73965 161.397821,106.101678 161.635361,106.570067 C162.169323,107.463905 162.570799,108.579056 162.756816,109.767537 C162.774213,110.033112 162.790941,110.303972 162.807669,110.580117 L162.71533,111.091448 C162.65444,111.181294 162.604255,111.267176 162.568791,111.359005 C162.299134,111.824752 161.854834,112.307015 161.35299,112.594391 C161.228532,112.669042 161.104744,112.747658 160.97761,112.771441 C160.853822,112.811739 160.728026,112.869214 160.626988,112.852038 C160.573458,112.85402 160.521935,112.858644 160.469074,112.868554 L160.449001,112.871857 C160.424243,112.871857 160.642378,112.884409 160.54134,112.877803 L160.521935,112.87516 L160.447662,112.863269 L160.299786,112.840807 C159.998679,112.810418 160.167968,112.762192 160.133173,112.777386 C160.12782,112.741051 160.178005,112.83288 160.178005,112.725857 C160.199417,112.636011 160.292425,112.476798 160.428927,112.398182 C160.680518,112.23963 161.098722,112.251521 161.644059,112.59373 C161.684876,112.619495 161.830746,112.702074 161.787252,112.678291 L162.040851,112.883088 C162.238912,113.029749 162.313185,113.140735 162.416231,113.2504 C162.614292,113.462464 162.888634,113.782872 163.084687,114.096673 C163.940499,115.363109 164.50658,116.969771 164.553419,118.444967 C164.588213,119.179592 164.473124,119.875901 164.178039,120.392517 C164.089045,120.506807 164.006743,120.62506 163.927117,120.748599 C163.820057,120.847033 163.712328,120.939522 163.612628,121.044563 C163.586532,121.070988 163.246616,121.306174 163.175019,121.325332 C163.058592,121.394699 162.902685,121.464066 162.736742,121.534093 C162.095719,121.820147 161.410535,121.827414 161.228532,121.728319 C160.968911,121.584301 161.05389,121.606762 161.030471,121.619975 C161.052552,121.651686 161.108759,121.732944 161.126156,121.94765 C161.127494,122.163677 161.025118,122.398863 160.911367,122.478139 C160.736725,122.620836 160.762821,122.548166 160.825719,122.548827 C160.895308,122.535614 161.001699,122.54156 161.108759,122.556094 L161.1924,122.577234 L161.214481,122.581198 L161.225187,122.58318 C161.170987,122.560718 161.362357,122.636691 161.106082,122.532311 L161.17634,122.566664 L161.460719,122.700773 C161.690898,122.79194 161.748443,122.880465 161.846135,122.955778 C162.016763,123.056855 162.32523,123.383208 162.573475,123.603199 C163.065283,124.141616 163.546384,124.70844 163.911058,125.309617 C164.728061,126.474976 164.815047,127.649584 164.710663,128.912056 C164.428961,131.397361 163.342301,133.392477 162.34798,134.518197 C161.852158,135.099556 161.359012,135.457619 161.013743,135.694787 C160.643716,135.894299 160.444986,136 160.444986,136 C160.444986,136 160.66379,135.934597 161.073964,135.811719 C161.460719,135.641276 162.064271,135.394198 162.685888,134.86437 C163.316205,134.35436 164.012096,133.630305 164.620331,132.668422 C165.229236,131.709841 165.8,130.534573 166.097761,129.126762 C166.243631,128.425829 166.327271,127.669403 166.272403,126.809918 L166.208836,126.267537 C166.146607,125.972233 166.084379,125.814342 166.015459,125.579156 C165.863567,125.172205 165.702308,124.784413 165.498894,124.421064 C165.120837,123.675208 164.631706,122.986167 164.086369,122.289198 C163.757828,121.944347 163.545046,121.631867 163.03651,121.255966 C162.809008,121.076273 162.55474,120.886671 162.392811,120.818626 L162.114455,120.669323 L162.045535,120.631666 C161.777885,120.523322 161.955872,120.597974 161.88896,120.570888 L161.861525,120.5623 L161.805319,120.545784 L161.584507,120.482363 C161.278717,120.4163 160.960213,120.374019 160.604238,120.403087 C160.246925,120.451313 159.838758,120.496236 159.34695,120.931594 C159.101381,121.167441 158.864511,121.598835 158.897967,122.032872 C158.918041,122.462944 159.083984,122.73909 159.229853,122.943225 C159.476761,123.289398 159.916376,123.57281 160.032135,123.641516 C160.672489,124.008828 161.410535,124.142937 161.983306,124.078856 C162.587527,124.040539 163.114798,123.890575 163.617312,123.697009 C163.86355,123.599896 164.113803,123.493534 164.383461,123.339606 C164.710663,123.162556 164.738098,123.140755 165.068646,122.90623 C165.29481,122.710682 165.521644,122.509849 165.734426,122.299107 C165.915759,122.0626 166.093747,121.820147 166.263704,121.573731 C166.867256,120.537856 167.027177,119.403547 166.996397,118.368334 C166.877293,116.284693 166.155306,114.422365 165.035859,112.786635 C164.748134,112.367132 164.458403,112.006426 164.044214,111.599475 C163.836785,111.402607 163.612628,111.191204 163.452038,111.089466 L163.18974,110.8959 C162.974951,110.73999 162.917406,110.735366 162.774213,110.649484 C162.303818,110.372017 161.708965,110.171845 161.063927,110.128243 C160.410861,110.101157 159.700249,110.278207 159.148889,110.693746 C158.601544,111.110606 158.216797,111.707159 158.111744,112.425929 C158.063567,112.785975 158.097692,113.186319 158.264974,113.572129 C158.441623,113.956618 158.743399,114.27042 159.083984,114.466628 C159.405164,114.65623 159.957193,114.779108 160.062246,114.76061 L160.212799,114.771841 L160.287741,114.777126 L160.436287,114.785714 L160.489817,114.777787 L160.925418,114.715687 C161.225856,114.683977 161.462057,114.572329 161.701604,114.467949 C161.954534,114.374139 162.153264,114.234745 162.351326,114.096673 C163.132195,113.534473 163.698276,112.84345 164.056927,112.011051 C164.142575,111.764634 164.21551,111.513593 164.273724,111.27114 L164.311195,110.738669 L164.312533,110.707619 C164.312533,110.722153 164.319225,110.511411 164.31521,110.592008 L164.312533,110.573511 L164.29982,110.502162 L164.277739,110.359465 L164.2309,110.076053 L164.133208,109.523763 C163.765188,108.102739 163.123497,106.947289 162.407532,106.058076 C162.077653,105.59365 161.668817,105.236247 161.338269,104.879504 C160.966235,104.557115 160.602231,104.290879 160.287741,104.039838 C159.580475,103.605141 159.027777,103.313801 158.616265,103.210082 C158.214789,103.07333 158,103 158,103" id="Fill-7" fill="#99D5E6"></path>
                        <path d="M189.116925,152 C189.116925,152 188.982973,151.818591 188.728878,151.476806 C188.438188,151.156054 188.186856,150.585536 187.85888,149.922999 C187.743571,149.557552 187.596499,149.163842 187.472904,148.730695 C187.412833,148.278487 187.254024,147.813791 187.232619,147.293884 C187.113857,146.268529 187.214667,145.094629 187.548857,143.940447 C187.646904,143.692653 187.748404,143.440915 187.850594,143.183919 L188.157856,142.758003 C188.254522,142.70082 188.336689,142.643636 188.41126,142.574622 C188.864902,142.2611 189.490472,142.002789 190.085662,141.943634 C190.236185,141.92786 190.386018,141.906827 190.514447,141.935747 C190.649089,141.94955 190.792018,141.947578 190.880399,142.004761 C190.930803,142.02448 190.982589,142.040254 191.035755,142.052743 L191.055779,142.059315 C191.078565,142.069832 190.879018,141.968611 190.972232,142.015935 L190.987422,142.025794 L191.053017,142.065888 L191.183517,142.147391 C191.452112,142.295936 191.272588,142.269645 191.313326,142.270959 C191.301588,142.306452 191.293303,142.201945 191.247731,142.299222 C191.18835,142.373495 191.032993,142.479317 190.872113,142.496406 C190.566232,142.537814 190.176804,142.358377 189.810853,141.826639 C189.783924,141.787202 189.681043,141.653117 189.713496,141.692554 L189.562972,141.404666 C189.438687,141.19105 189.417972,141.061566 189.366877,140.920251 C189.272282,140.646823 189.15283,140.245226 189.102425,139.881751 C188.842807,138.388413 189.001616,136.701836 189.590591,135.344555 C189.873686,134.665586 190.281757,134.078636 190.778899,133.730936 C190.914232,133.662579 191.04266,133.589621 191.169017,133.508775 C191.311945,133.464738 191.454874,133.423329 191.59435,133.368118 C191.630945,133.35563 192.050063,133.279385 192.126015,133.290559 C192.264801,133.276099 192.441562,133.274784 192.62661,133.279385 C193.355061,133.279385 193.999274,133.54624 194.129774,133.711875 C194.312059,133.948495 194.239559,133.891312 194.267869,133.887368 C194.260274,133.85056 194.242321,133.752626 194.319654,133.550184 C194.412178,133.35563 194.611725,133.18408 194.74982,133.15976 C194.973534,133.100605 194.916915,133.154502 194.858225,133.130183 C194.787796,133.112436 194.69044,133.063798 194.594463,133.007929 L194.524035,132.954689 L194.506083,132.943516 L194.497107,132.936286 C194.539225,132.980323 194.390083,132.832436 194.588249,133.031591 L194.536464,132.971779 L194.32725,132.734501 C194.149798,132.560322 194.135298,132.457129 194.074536,132.349336 C193.957846,132.187645 193.808012,131.765672 193.669227,131.46661 C193.437227,130.780411 193.229394,130.071207 193.143776,129.37975 C192.876562,127.991577 193.299823,126.89195 193.939893,125.789036 C195.274581,123.648279 197.154054,122.279824 198.57298,121.660668 C199.290384,121.334658 199.906288,121.207145 200.334382,121.132873 C200.768,121.100666 201,121.084234 201,121.084234 C201,121.084234 200.766619,121.055314 200.328168,121.001417 C199.891097,120.998788 199.215122,120.980384 198.404505,121.209775 C197.592506,121.418132 196.626531,121.792781 195.640533,122.419168 C194.655225,123.042268 193.614679,123.878326 192.7288,125.03448 C192.288967,125.610256 191.886421,126.262277 191.568112,127.064157 L191.395493,127.582093 C191.326445,127.875896 191.31816,128.042845 191.279493,128.284724 C191.249112,128.714584 191.233922,129.132613 191.268445,129.54407 C191.30435,130.373556 191.466612,131.194497 191.679969,132.047645 C191.84154,132.491965 191.905754,132.861356 192.223372,133.408212 C192.360086,133.661921 192.516824,133.938636 192.640419,134.066148 L192.837205,134.312627 L192.886228,134.375069 C193.094752,134.583426 192.957347,134.442769 193.008442,134.494036 L193.030538,134.513097 L193.074728,134.550562 L193.256323,134.697136 C193.514561,134.881174 193.796965,135.048122 194.144274,135.165775 C194.500559,135.265024 194.903796,135.38925 195.552843,135.19601 C195.88358,135.082301 196.291651,134.788497 196.449079,134.381642 C196.616174,133.983988 196.579579,133.664551 196.532627,133.4207 C196.449079,133.005957 196.155627,132.569524 196.076913,132.459759 C195.6357,131.871494 194.99632,131.447549 194.43013,131.274685 C193.845298,131.065013 193.284632,130.989426 192.7288,130.961163 C192.456753,130.950646 192.174349,130.944731 191.855349,130.975623 C191.472136,131.004543 191.436231,131.012431 191.024708,131.091304 C190.727804,131.178065 190.428137,131.267455 190.137447,131.372619 C189.86471,131.513934 189.591972,131.663137 189.32683,131.816283 C188.312522,132.513655 187.675214,133.475912 187.260238,134.427651 C186.476549,136.365309 186.354335,138.346347 186.705787,140.280719 C186.794168,140.778279 186.911548,141.223257 187.125595,141.758939 C187.236071,142.019879 187.356214,142.301851 187.462547,142.459598 L187.627571,142.741571 C187.764285,142.971618 187.813309,142.998567 187.913427,143.134624 C188.23726,143.575658 188.710236,143.996316 189.29852,144.298007 C189.899924,144.585895 190.643566,144.712093 191.343017,144.557632 C192.036254,144.4012 192.653538,144.016034 193.061609,143.406737 C193.262537,143.100445 193.401323,142.723167 193.410299,142.305138 C193.408918,141.885137 193.261156,141.478281 193.024323,141.162787 C192.804062,140.861753 192.337991,140.525884 192.230968,140.501565 L192.094254,140.430579 L192.026587,140.395743 L191.891254,140.3287 L191.836016,140.312268 L191.400326,140.193958 C191.102041,140.100625 190.833446,140.107197 190.56278,140.104568 C190.285209,140.086822 190.037329,140.134146 189.7929,140.180155 C188.815188,140.373395 187.986618,140.771049 187.292,141.381004 C187.106262,141.570957 186.930191,141.768141 186.76862,141.963353 L186.506239,142.431992 L186.489668,142.459598 C186.497263,142.446453 186.397835,142.636406 186.437882,142.56542 L186.433049,142.581195 L186.413716,142.650866 L186.373668,142.789552 L186.296335,143.064952 L186.149954,143.607207 C185.886883,145.042704 185.993907,146.350689 186.285287,147.446372 C186.396454,148.000458 186.627073,148.490131 186.78312,148.946283 C186.996477,149.388631 187.224333,149.778398 187.411452,150.132671 C187.891332,150.812954 188.285593,151.299998 188.628069,151.561595 C188.947069,151.848169 189.116925,152 189.116925,152" id="Fill-9" fill="#28A2C9"></path>
                        <path d="M67.8942967,57 C67.8942967,57 68.0665585,57.0546461 68.3902438,57.1551679 C68.7097615,57.2651347 69.1536133,57.4567333 69.7086016,57.7252411 C70.8109377,58.2730512 72.2973897,59.214178 73.8519128,60.5641385 C74.6229229,61.2408054 75.4015736,62.0308122 76.1218777,62.9071734 C76.8157868,63.7875824 77.4409301,64.8211353 77.6597303,65.8013915 C77.8646384,66.8140305 77.5145581,67.4259316 76.6039327,68.0000527 C76.1302129,68.2611395 75.5821706,68.4959153 74.9598057,68.6463606 L74.7333649,68.7104517 L74.5284568,68.7489064 C74.3360515,68.7907342 74.1992146,68.8028778 74.0714075,68.8136721 C73.8157934,68.844031 73.4462642,68.8676435 73.1142436,68.8784378 C71.7396229,68.9620935 70.2406681,68.9641174 68.6937856,69.2366732 C67.9151349,69.3823961 67.1017539,69.6131239 66.3314384,70.0826754 C65.9494064,70.3032836 65.575015,70.6122701 65.2749462,70.9691562 L65.0554514,71.2444105 L65.0019669,71.3145734 L64.9762666,71.3496548 L64.9623745,71.3658462 L64.8991656,71.4724398 L64.842208,71.5830812 L64.6178511,72.0249724 C64.5449177,72.1848627 64.4650382,72.2860592 64.3969671,72.4945238 L64.2059511,73.1064249 C64.0580005,73.5213303 64.0316055,73.9045275 64.0177134,74.2809783 C63.9732588,74.6601276 64.0204919,75.0264587 64.0711979,75.3860434 C64.0982875,75.7523745 64.199005,76.0903706 64.3052794,76.4209456 C64.7171794,77.7459443 65.4854111,78.7902915 66.2897622,79.6059348 C67.1017539,80.4263006 68.0144632,80.9774838 68.84382,81.3788964 C69.6988772,81.7445528 70.4851686,81.9638118 71.1554612,81.9779793 C71.4819249,82.0265536 71.7792153,81.9840511 72.032051,81.9530175 C72.2848868,81.9381753 72.4932679,81.8882518 72.6564998,81.8214621 C72.9787959,81.7141939 73.1510576,81.6581985 73.1510576,81.6581985 C73.1510576,81.6581985 72.9718499,81.6689928 72.6328833,81.6892321 C72.4696514,81.7108207 72.2661325,81.7074475 72.0299672,81.6581985 C71.793802,81.6217678 71.5270741,81.6028778 71.2408974,81.4942603 C70.6581249,81.3593317 70.0128381,80.9970485 69.3307372,80.5625784 C68.6743367,80.0748116 67.9887629,79.4629105 67.3983497,78.6857218 C66.8280801,77.9004375 66.3494981,76.9647078 66.1425062,75.9655616 C66.0890217,75.7152691 66.0383156,75.4636273 66.0556807,75.2092869 C66.0473455,74.9562958 66.0348426,74.7026301 66.1015246,74.4563854 C66.1418116,74.204069 66.1786256,73.9537764 66.2717025,73.7635271 L66.3696416,73.4504928 C66.3939527,73.3459232 66.5203706,73.1779371 66.5912202,73.0443578 L66.8440559,72.6186581 L66.9072649,72.5100406 C66.8850376,72.547146 66.9690846,72.4101935 66.8593372,72.5896485 L66.8669779,72.5822274 L66.8801753,72.5687345 L66.9072649,72.5424235 L67.0114554,72.4331313 C67.1531546,72.2887577 67.3205541,72.1585517 67.5407435,72.0546566 C67.9651463,71.8394456 68.5201347,71.6876509 69.1286075,71.5790334 C70.3719482,71.3820377 71.7590718,71.400253 73.2503859,71.3395352 C73.9880551,71.2916355 74.864645,71.220798 75.6495472,70.9725294 C76.4115274,70.7667633 77.1825375,70.4463079 77.9215959,70.0057661 C78.6564866,69.5551046 79.3698446,68.8487535 79.7275655,67.9420334 C80.0984839,67.0366626 80.0484724,66.0712486 79.8282831,65.2994571 C79.3740122,63.7295631 78.4356026,62.6460866 77.5478991,61.7069836 C76.6386628,60.7793496 75.6689961,60.0520845 74.7389217,59.4489538 C72.8801622,58.2379697 71.1332338,57.576145 69.8864202,57.2685079 C69.2654445,57.1059189 68.7507431,57.05667 68.4138603,57.0242871 C68.0748937,57.0087704 67.8942967,57 67.8942967,57" id="Fill-11" fill="#F7DD17"></path>
                        <path d="M49.1707792,169 C49.1720653,169 48.623541,168.814876 47.8866021,168.193965 C47.1380883,167.58927 46.189585,166.57514 45.2629454,165.216434 C44.8050916,164.536744 44.3646002,163.763815 43.9710517,162.933458 C43.5794324,162.104451 43.2894154,161.18491 43.1582326,160.29442 C43.0437692,159.388391 43.2251101,158.608707 43.6585279,158.075629 C44.0919457,157.565523 45.0198714,157.06893 45.7838184,157.10609 C46.7869813,156.996637 48.0094253,157.059471 49.3405452,156.546663 C50.0016038,156.293299 50.6935289,155.784545 51.1102273,155.098098 C51.2099006,154.929189 51.2947836,154.754199 51.3815957,154.581236 L51.4118192,154.516375 L51.4278956,154.483944 L51.469694,154.377869 L51.5018467,154.279226 L51.5635798,154.082616 C51.6413892,153.797497 51.7378472,153.611021 51.7995803,153.252934 C52.1339679,151.884094 51.9976406,150.7497 51.7699998,149.648412 C51.5385007,148.568744 51.1275898,147.617448 50.6260083,146.834385 C50.1437185,146.040512 49.5855484,145.397305 48.9984409,144.936521 C48.4396278,144.449387 47.8280843,144.177105 47.3187862,144.057518 C46.8011285,143.939281 46.3754273,144.023736 46.1304241,144.127784 C45.8905653,144.243318 45.7625977,144.306152 45.7625977,144.306152 C45.7625977,144.306152 45.898925,144.289261 46.1561462,144.258857 C46.4062939,144.237913 46.771548,144.315611 47.1683118,144.523031 C47.9624824,144.944629 48.8473235,146.029026 49.4382893,147.507319 C49.7456686,148.240385 49.9475873,149.088985 50.0414731,149.967312 C50.1340727,150.818615 50.0626938,151.841529 49.8331239,152.573919 C49.4543656,153.7475 49.2685232,154.010998 48.5405871,154.315711 C47.8120079,154.592722 46.7779785,154.571101 45.5928317,154.645421 C45.2976703,154.674474 44.9742146,154.712985 44.5446551,154.81906 L44.3382351,154.88257 L44.2398479,154.915676 L44.1176678,154.958917 L44.0604361,154.985942 L43.6012962,155.198768 C42.9974693,155.516317 42.3987869,155.945346 41.9203554,156.546663 C41.4425669,157.151358 41.1499777,157.908071 41.0548059,158.630327 C40.9525604,159.355285 41.0033616,160.043759 41.1248987,160.669399 C41.3795477,161.920002 41.9004207,162.952375 42.4528033,163.845567 C43.0026138,164.74484 43.6263753,165.496148 44.2437063,166.136651 C45.4738668,167.420361 46.7252482,168.221666 47.655103,168.616914 C48.1116707,168.831091 48.5135789,168.902033 48.7714432,168.958111 C49.0318797,168.985812 49.1707792,169 49.1707792,169" id="Fill-13" fill="#28A2C9"></path>
                        <path d="M211.170988,49 C211.172274,49 210.623095,48.8148755 209.886783,48.1932897 C209.138253,47.5892704 208.189086,46.5751397 207.26307,45.2164341 C206.805206,44.5367435 206.364062,43.7638151 205.970506,42.9334575 C205.579521,42.1044512 205.289498,41.1842339 205.158312,40.2944203 C205.043846,39.389067 205.225191,38.6087066 205.658618,38.0763048 C206.091402,37.5661991 207.019991,37.0689304 207.783954,37.1054148 C208.787139,36.9966373 210.008966,37.0594715 211.340758,36.5466632 C212.00183,36.293975 212.69377,35.7845449 213.110478,35.0974223 C213.210153,34.9285131 213.295038,34.7541989 213.381209,34.5819115 L213.412076,34.5163747 L213.428153,34.4839441 L213.469309,34.3778692 L213.501463,34.2785506 L213.56384,34.0826159 C213.641651,33.7981728 213.738111,33.6110214 213.799846,33.252934 C214.133597,31.8840939 213.99791,30.7496998 213.770265,29.6484118 C213.53876,28.5687443 213.127841,27.6174477 212.626248,26.8343847 C212.143948,26.0398359 211.585123,25.3973053 210.998003,24.936521 C210.439821,24.4493869 209.827621,24.1771053 209.318312,24.0575176 C208.800643,23.9392812 208.374933,24.0237358 208.130567,24.1277838 C207.890703,24.2433177 207.76209,24.3061519 207.76209,24.3061519 C207.76209,24.3061519 207.89842,24.289261 208.15629,24.2588574 C208.4058,24.237237 208.771062,24.3156109 209.168477,24.5230313 C209.962022,24.9446287 210.846882,26.0290257 211.438504,27.5073189 C211.74589,28.2403848 211.947813,29.0889846 212.041701,29.9673124 C212.133659,30.8179391 212.062922,31.8408531 211.832704,32.573919 C211.453937,33.7475001 211.268091,34.0109984 210.541425,34.315035 C209.812187,34.5927217 208.777493,34.5711013 207.592963,34.6454213 C207.297796,34.6744737 206.974333,34.712985 206.544764,34.81906 L206.337697,34.8825698 L206.239307,34.915676 L206.117768,34.9589168 L206.060535,34.9852666 L205.601385,35.1987678 C204.997545,35.5156415 204.39885,35.9453465 203.920408,36.5466632 C203.442609,37.1506825 203.149371,37.9080713 203.05484,38.630327 C202.952592,39.3552852 203.003395,40.0437591 203.124291,40.6693987 C203.379589,41.9200024 203.900473,42.9516997 204.452868,43.8455671 C205.002047,44.7448397 205.626465,45.4961477 206.243809,46.1366514 C207.473996,47.4203612 208.724761,48.2209908 209.655279,48.616914 C210.111857,48.8310908 210.513773,48.9020327 210.771643,48.9581105 C211.032085,48.9858116 211.170988,49 211.170988,49" id="Fill-15" fill="#F7DD17"></path>
                        <path d="M50,112 C50,112 42.0076273,101.820583 40.1923493,106.012531 C38.3777151,110.203825 50,112 50,112" id="Fill-17" fill="#EA1B24"></path>
                        <path d="M79,168.134761 C79,168.134761 65.9949078,164.919852 67.0622833,169.312615 C68.1303344,173.704734 79,168.134761 79,168.134761" id="Fill-19" fill="#8BC23E"></path>
                        <path d="M216,56.9488809 C216,56.9488809 229.048964,60.0239547 227.9322,55.6547901 C226.814761,51.2862686 216,56.9488809 216,56.9488809" id="Fill-21" fill="#99D5E6"></path>
                        <path d="M83,109 C83,109 78.8818976,96.1806046 75.6206488,99.5707627 C72.361402,102.960921 83,109 83,109" id="Fill-23" fill="#28A2C9"></path>
                        <path d="M136,191 C136,191 135.083011,177.883124 131.042973,180.29638 C127.003613,182.709637 136,191 136,191" id="Fill-25" fill="#EA1B24"></path>
                        <path d="M161.610937,82 C161.610937,82 169.38173,70.3809654 164.243717,70.0082027 C159.104967,69.636818 161.610937,82 161.610937,82" id="Fill-27" fill="#8BC23E"></path>
                        <path d="M259,138.999377 C259,140.655387 260.343088,142 261.998755,142 C263.656912,142 265,140.655387 265,138.999377 C265,137.343367 263.656912,136 261.998755,136 C260.343088,136 259,137.343367 259,138.999377" id="Fill-29" fill="#9099C8"></path>
                        <path d="M90,31.9990659 C90,33.654904 91.3438505,35 92.9996886,35 C94.6573949,35 96,33.654904 96,31.9990659 C96,30.3432278 94.6573949,29 92.9996886,29 C91.3438505,29 90,30.3432278 90,31.9990659" id="Fill-31" fill="#8BC23E"></path>
                        <path d="M230,132.500338 C230,133.879719 231.118626,135 232.499662,135 C233.880698,135 235,133.879719 235,132.500338 C235,131.118928 233.880698,130 232.499662,130 C231.118626,130 230,131.118928 230,132.500338" id="Fill-35" fill="#EA1B24"></path>
                        <path d="M169,89.5 C169,90.8798701 170.117273,92 171.498309,92 C172.878669,92 174,90.8798701 174,89.5 C174,88.1187771 172.878669,87 171.498309,87 C170.117273,87 169,88.1187771 169,89.5" id="Fill-41" fill="#EA1B24"></path>
                        <path d="M190,197.5 C190,198.87987 191.117949,200 192.498309,200 C193.879345,200 195,198.87987 195,197.5 C195,196.119453 193.879345,195 192.498309,195 C191.117949,195 190,196.119453 190,197.5" id="Fill-43" fill="#99D5E6"></path>
                        <path d="M101,125.499662 C101,126.879719 102.118777,128 103.5,128 C104.881223,128 106,126.879719 106,125.499662 C106,124.118252 104.881223,123 103.5,123 C102.118777,123 101,124.118252 101,125.499662" id="Fill-45" fill="#8BC23E"></path>
                        <path d="M211,114.5 C211,115.87987 212.118626,117 213.499662,117 C214.880698,117 216,115.87987 216,114.5 C216,113.119453 214.880698,112 213.499662,112 C212.118626,112 211,113.119453 211,114.5" id="Fill-47" fill="#9099C8"></path>
                        <path d="M0,180.499662 C0,181.879719 1.11877706,183 2.5,183 C3.88054654,183 5,181.879719 5,180.499662 C5,179.118928 3.88054654,178 2.5,178 C1.11877706,178 0,179.118928 0,180.499662" id="Fill-49" fill="#EA1B24"></path>
                        <path d="M84,188.5 C84,189.87987 85.1187771,191 86.5,191 C87.8812229,191 89,189.87987 89,188.5 C89,187.118777 87.8812229,186 86.5,186 C85.1187771,186 84,187.118777 84,188.5" id="Fill-51" fill="#F7DD17"></path>
                        <path d="M225,2.5 C225,3.87987013 226.118626,5 227.499662,5 C228.880022,5 230,3.87987013 230,2.5 C230,1.11877706 228.880022,0 227.499662,0 C226.118626,0 225,1.11877706 225,2.5" id="Fill-53" fill="#9099C8"></path>
                        <polygon id="Fill-55" fill="#99D5E6" points="75 132.455974 70.0599763 130 67 136"></polygon>
                        <polygon id="Fill-57" fill="#F7DD17" points="197 80.4547836 192.059559 78 189 84"></polygon>
                        <polygon id="Fill-59" fill="#EA1B24" points="124 38.4550898 119.059559 36 116 42"></polygon>
                        <polygon id="Fill-61" fill="#F7DD17" points="186.873524 165 187 159 181 159"></polygon>
                        <polygon id="Fill-63" fill="#9099C8" points="125.873536 85 126 79 120 79"></polygon>
                        <polygon id="Fill-65" fill="#8BC23E" points="166.873536 37 167 31 161 31"></polygon>
                    </g>
                    <g id="编组-18" transform="translate(91.000000, 75.000000)" fill-rule="nonzero">
                        <path d="M4.39416058,41.3406593 L4.39416058,40.7142857 L4.39416058,41.3406593 Z" id="路径" fill="#FFD05B"></path>
                        <path d="M78.3166637,114 L7.68400394,114 C3.4347404,114 0,110.571053 0,106.328984 L0,18.3193679 C0,14.0772871 3.4347404,10.6483516 6.19049824,10.6483516 L76.823158,10.6483516 C82.5652596,10.6483516 86,14.0772983 86,18.3193679 L86,106.328984 C86,110.571065 82.5652596,114 78.3166637,114 Z" id="路径" fill="#FFD685"></path>
                        <path d="M78.4308136,107.736264 L7.58389971,107.736264 C6.57618612,107.736264 5.64963504,106.926622 5.64963504,105.833637 L5.64963504,18.2018036 C5.64963504,17.2030435 6.46730309,16.2857143 7.58389971,16.2857143 L78.4308136,16.2857143 C79.4385272,16.2857143 80.350365,17.0953558 80.350365,18.2018036 L80.350365,105.833637 C80.3637258,106.940753 79.5467338,107.736264 78.4308136,107.736264 Z" id="路径" fill="#FFFEF8"></path>
                        <path d="M63.9582463,22.5494505 L22.68231,22.5494505 C21.3238791,22.5494505 20.0875912,21.6279508 20.0875912,20.3567922 C20.0875912,19.1977732 21.1740676,18.1648352 22.68231,18.1648352 L63.9582463,18.1648352 C65.3173566,18.1648352 66.540146,19.0863349 66.540146,20.3567922 C66.540146,21.5025733 65.4529947,22.5494505 63.9582463,22.5494505 Z" id="路径" fill="#FFEBD2"></path>
                        <path d="M58.9738442,9.39593584 L52.5411354,9.39593584 L52.5411354,7.04628071 C52.5411354,3.22190563 47.7573834,0 43.3824939,0 C39.0076044,0 34.0884735,3.08735206 34.0884735,7.04695464 L34.0884735,9.39593584 L27.7911436,9.39593584 C24.9156103,9.39593584 22.5985401,11.489874 22.5985401,14.0932353 L22.5985401,18.7912088 L64.0291389,18.7912088 L64.0291389,14.0932353 C64.0426184,11.5025902 61.7126803,9.39593584 58.9725371,9.39593584 L58.9738442,9.39593584 Z M43.1510047,9.67709082 C41.9928104,9.67709082 40.9429146,8.84567482 40.9429146,7.69092588 C40.9429146,6.53685199 41.8702857,5.70476095 43.1510047,5.70476095 C44.4181904,5.70476095 45.3455547,6.53684646 45.3455547,7.69092588 C45.3590929,8.83228354 44.3098772,9.6777537 43.1510047,9.6777537 L43.1510047,9.67709082 Z" id="形状" fill="#F5C270"></path>
                        <path d="M25.1094891,53.2420927 C25.1094891,63.2657667 33.2575828,71.4065934 43.3213271,71.4065934 C53.3701878,71.4065934 61.5182482,63.2792914 61.5182482,53.2420927 C61.5182482,43.2042251 53.3701544,35.0769231 43.3206592,35.0769231 C33.2576273,35.0769231 25.1094891,43.2042251 25.1094891,53.2420927 Z" id="路径" fill="#26C486"></path>
                        <path d="M41.4277667,60.1318681 C40.9310707,60.1318681 40.4343736,59.9336614 40.1256848,59.5359264 L34.4213412,53.90619 C33.7232999,53.2170902 33.7232999,52.0377637 34.4213412,51.2436065 C35.1193826,50.4481364 36.313451,50.5545067 37.1188347,51.2436065 L41.4144197,55.4825864 L49.5082314,47.4948468 C50.2062727,46.805747 51.4150084,46.805747 52.206396,47.4948468 C52.9044373,48.1832858 52.9044373,49.3619537 52.206396,50.1574303 L42.7165016,59.5220456 C42.4344847,60.0387047 41.9377887,60.1312019 41.4277556,60.1312019 L41.4277667,60.1318681 Z" id="路径" fill="#FFFFFF"></path>
                        <path d="M61.494559,85.1868132 L25.7749815,85.1868132 C24.7667955,85.1868132 23.8540146,84.389976 23.8540146,83.3010567 C23.8540146,82.3181192 24.6713893,81.4285714 25.7756516,81.4285714 L61.4809351,81.4285714 C62.4891212,81.4285714 63.4014599,82.2253864 63.4014599,83.3010567 L63.4014599,83.3010575 C63.4176786,84.3262954 62.5819858,85.170471 61.534649,85.186584 C61.5212554,85.1868132 61.50786,85.1868572 61.4944651,85.1868132 L61.494559,85.1868132 Z" id="路径" fill="#EDD18E"></path>
                        <path d="M50.8242121,92.7032967 L25.7737454,92.7032967 C24.7662081,92.7032967 23.8540146,91.9036581 23.8540146,90.8241758 C23.8540146,89.8384198 24.6708633,88.9450549 25.774415,88.9450549 L50.8107086,88.9450549 C51.8182459,88.9450549 52.729927,89.7446936 52.729927,90.8241758 C52.7432826,91.9169496 51.9406346,92.7032967 50.8242345,92.7032967 L50.8242121,92.7032967 Z" id="路径" fill="#FFE3A6"></path>
                    </g>
                </g>
            </g>
        </g>
    </g>
</svg>