<?xml version="1.0" encoding="UTF-8"?>
<svg width="16px" height="16px" viewBox="0 0 16 16" version="1.1" xmlns="http://www.w3.org/2000/svg" xmlns:xlink="http://www.w3.org/1999/xlink">
    <!-- Generator: Sketch 56.2 (81672) - https://sketch.com -->
    <title>错题</title>
    <desc>Created with Sketch.</desc>
    <g id="Page-1" stroke="none" stroke-width="1" fill="none" fill-rule="evenodd">
        <g id="我的课程" transform="translate(-1171.000000, -908.000000)" fill="#FFFFFF" fill-rule="nonzero" stroke="#FFFFFF" stroke-width="0.2">
            <g id="错题" transform="translate(1171.000000, 908.000000)">
                <path d="M13.6059072,1 L3.46919831,1 C2.70126582,1 2.07510549,1.5796875 2.07510549,2.3015625 L2.07510549,4.696875 L1.40168776,4.696875 C1.17721519,4.696875 1,4.8609375 1,5.06875 C1,5.2765625 1.17721519,5.440625 1.40168776,5.440625 L2.08691983,5.440625 L2.08691983,7.7703125 L1.40168776,7.7703125 C1.17721519,7.7703125 1,7.934375 1,8.1421875 C1,8.35 1.17721519,8.5140625 1.40168776,8.5140625 L2.08691983,8.5140625 L2.08691983,10.625 L1.40168776,10.625 C1.17721519,10.625 1,10.7890625 1,10.996875 C1,11.2046875 1.17721519,11.36875 1.40168776,11.36875 L2.08691983,11.36875 L2.08691983,13.6984375 C2.08691983,14.409375 2.71308017,15 3.48101266,15 L13.6059072,15 C14.3738397,15 15,14.4203125 15,13.6984375 L15,2.3015625 C15,1.5796875 14.3738397,1 13.6059072,1 Z M2.91392405,13.6984375 L2.91392405,11.36875 L4.01265823,11.36875 C4.2371308,11.36875 4.41434599,11.2046875 4.41434599,10.996875 C4.41434599,10.7890625 4.2371308,10.625 4.01265823,10.625 L2.91392405,10.625 L2.91392405,8.5140625 L4.01265823,8.5140625 C4.2371308,8.5140625 4.41434599,8.35 4.41434599,8.1421875 C4.41434599,7.934375 4.2371308,7.7703125 4.01265823,7.7703125 L2.91392405,7.7703125 L2.91392405,5.440625 L4.01265823,5.440625 C4.2371308,5.440625 4.41434599,5.2765625 4.41434599,5.06875 C4.41434599,4.8609375 4.2371308,4.696875 4.01265823,4.696875 L2.91392405,4.696875 L2.91392405,2.3015625 C2.91392405,2.0171875 3.16202532,1.7875 3.46919831,1.7875 L10.8886076,1.7875 L10.8886076,14.234375 L3.46919831,14.234375 C3.16202532,14.2234375 2.91392405,13.99375 2.91392405,13.6984375 Z M14.1611814,13.6984375 C14.1611814,13.9828125 13.9130802,14.2125 13.6059072,14.2125 L11.6565401,14.2125 L11.6565401,1.7765625 L13.6059072,1.7765625 C13.9130802,1.7765625 14.1611814,2.00625 14.1611814,2.290625 L14.1611814,13.6984375 Z" id="形状"></path>
                <path d="M8.85923754,6.31573987 L8.02639296,5.44585514 L8.81231672,4.66406001 C8.96480938,4.50990322 8.96480938,4.27866804 8.81231672,4.14653365 C8.65982405,4.01439926 8.41348974,4.02541046 8.26099707,4.16855605 L7.52199413,4.91731758 L6.75953079,4.12451125 C6.60703812,3.97035446 6.36070381,3.95934326 6.20821114,4.09147765 C6.05571848,4.22361204 6.04398827,4.45484722 6.19648094,4.60900401 L6.9941349,5.43484394 L6.1143695,6.31573987 C5.96187683,6.46989665 5.96187683,6.70113183 6.1143695,6.83326622 C6.26686217,6.96540061 6.51319648,6.95438941 6.66568915,6.81124382 L7.51026393,5.9633815 L8.30791789,6.78922143 C8.46041056,6.94337821 8.70674487,6.95438941 8.85923754,6.82225502 C9,6.70113183 9,6.46989665 8.85923754,6.31573987 L8.85923754,6.31573987 Z M8.89442815,10.3898835 L8.06158358,9.51999879 L8.84750733,8.73820366 C9,8.58404687 9,8.35281169 8.84750733,8.2206773 C8.69501466,8.08854292 8.44868035,8.09955411 8.29618768,8.2426997 L7.55718475,8.99146124 L6.79472141,8.19865491 C6.64222874,8.04449812 6.40762463,8.03348692 6.24340176,8.16562131 C6.07917889,8.2977557 6.07917889,8.52899088 6.23167155,8.68314766 L7.02932551,9.5089876 L6.14956012,10.3898835 C5.99706745,10.5440403 5.99706745,10.7752755 6.14956012,10.9074099 C6.30205279,11.0395443 6.5483871,11.0285331 6.70087977,10.8853875 L7.54545455,10.0375252 L8.3431085,10.8633651 C8.49560117,11.0175219 8.74193548,11.0285331 8.89442815,10.8963987 C9.03519062,10.7752755 9.03519062,10.5440403 8.89442815,10.3898835 L8.89442815,10.3898835 Z" id="形状"></path>
            </g>
        </g>
    </g>
</svg>