<?xml version="1.0" encoding="UTF-8"?>
<svg width="34px" height="20px" viewBox="0 0 34 20" version="1.1" xmlns="http://www.w3.org/2000/svg" xmlns:xlink="http://www.w3.org/1999/xlink">
    <!-- Generator: Sketch 56.2 (81672) - https://sketch.com -->
    <title>编组</title>
    <desc>Created with Sketch.</desc>
    <g id="Page-1" stroke="none" stroke-width="1" fill="none" fill-rule="evenodd">
        <g id="我的课程" transform="translate(-120.000000, -21.000000)" fill="#FFFFFF" fill-rule="nonzero">
            <g id="编组" transform="translate(120.000000, 21.000000)">
                <path d="M27.8965772,2.04695532 C29.5718545,1.0272284 31.143672,0.684564802 32.2214107,1.3228021 C32.2214107,1.3228021 32.2214107,1.3228021 32.2214107,1.3228021 C33.714824,2.20720213 34.2085268,4.13480068 33.3241267,5.62821398 C33.2063567,5.82708246 33.0670079,6.01235223 32.9086085,6.18066171 C28.71787,10.6336125 25.3844598,13.6062303 22.9083891,15.0985257 C18.8773976,17.5279517 17.5405756,18.900925 13.5565431,17.3295825 C10.9005215,16.2820209 6.38167379,13.7245176 0,9.65707272 C2.25116553,8.52426201 3.9757607,8.09674287 5.17378551,8.3745153 C8.00109524,9.03005156 10.5970425,11.2680494 12.8206473,11.7101891 C15.1582818,12.1750023 17.6150378,11.1534931 20.190915,8.64566147 C24.2111716,4.92634198 26.7797257,2.72677327 27.8965772,2.04695532 Z" id="矩形"></path>
                <path d="M13.6037208,9 C15.0417161,9 19,6.01728711 19,4.36663881 C19,2.71599051 15.0417161,3.02247372 13.6037208,3.02247372 C12.1657255,3.02247372 11,4.36058856 11,6.01123686 C11,7.66188516 12.1657255,9 13.6037208,9 Z" id="椭圆形"></path>
            </g>
        </g>
    </g>
</svg>