<?xml version="1.0" encoding="UTF-8"?>
<svg width="24px" height="24px" viewBox="0 0 24 24" version="1.1" xmlns="http://www.w3.org/2000/svg" xmlns:xlink="http://www.w3.org/1999/xlink">
    <!-- Generator: Sketch 56.2 (81672) - https://sketch.com -->
    <title>编组 3</title>
    <desc>Created with Sketch.</desc>
    <g id="Page-1" stroke="none" stroke-width="1" fill="none" fill-rule="evenodd" stroke-linecap="round">
        <g id="测试" transform="translate(-538.000000, -896.000000)" fill-rule="nonzero" stroke="#26C486" stroke-width="2">
            <g id="编组-5备份" transform="translate(119.000000, 620.000000)">
                <g id="编组-3" transform="translate(419.000000, 276.000000)">
                    <path d="M19.9025075,16.310563 C20.6022419,15.0304646 21,13.561683 21,12 C21,7.02943725 16.9705627,3 12,3 C7.02943725,3 3,7.02943725 3,12 C3,16.9705627 7.02943725,21 12,21 L12,21 C13.5403739,21 14.9903643,20.6130226 16.2580571,19.9309822" id="路径" transform="translate(12.000000, 12.000000) rotate(-75.000000) translate(-12.000000, -12.000000) "></path>
                    <path d="M14.8431142,15.9581857 C11.0570214,12.7458442 9.16397495,11.0320854 9.16397495,10.8169096 L11.4591731,7.54798772" id="路径" stroke-linejoin="round" transform="translate(12.003545, 11.753087) rotate(-75.000000) translate(-12.003545, -11.753087) "></path>
                </g>
            </g>
        </g>
    </g>
</svg>