<?xml version="1.0" encoding="UTF-8"?>
<svg width="22px" height="22px" viewBox="0 0 22 22" version="1.1" xmlns="http://www.w3.org/2000/svg" xmlns:xlink="http://www.w3.org/1999/xlink">
    <!-- Generator: Sketch 56.2 (81672) - https://sketch.com -->
    <title>Path Copy 2备份 2</title>
    <desc>Created with Sketch.</desc>
    <g id="Page-1" stroke="none" stroke-width="1" fill="none" fill-rule="evenodd">
        <g id="练习" transform="translate(-134.000000, -1180.000000)" fill="#FFFFFF">
            <g id="Path-Copy-2备份-2" transform="translate(134.000000, 1180.000000)">
                <path d="M19.4307549,2.56922471 C18.6704728,1.81025843 17.435981,1.81025843 16.6756989,2.56922471 L10.9606973,8.28402176 L5.47378029,2.79730117 C4.73540466,2.0576634 3.53699395,2.0576634 2.79732971,2.79730117 C2.05895408,3.53565037 2.05895408,4.73401818 2.79732971,5.47365595 L8.28553531,10.9603765 L2.56924509,16.6764622 C1.81025164,17.436717 1.81025164,18.6698762 2.56924509,19.4288424 C3.33081576,20.1903859 4.56401904,20.1903859 5.32430111,19.4288424 L11.0393027,13.715334 L16.5584351,19.2316916 C17.2968107,19.9713294 18.4952214,19.9713294 19.233597,19.2316916 C19.9719727,18.4933424 19.9719727,17.2949746 19.233597,16.5566254 L13.7157533,11.0389792 L19.4307549,5.32418212 C20.1897484,4.56392727 20.1897484,3.33076813 19.4307549,2.56922471" id="Path-Copy-2备份"></path>
            </g>
        </g>
    </g>
</svg>