<?xml version="1.0" encoding="UTF-8"?>
<svg width="12px" height="12px" viewBox="0 0 12 12" version="1.1" xmlns="http://www.w3.org/2000/svg" xmlns:xlink="http://www.w3.org/1999/xlink">
    <!-- Generator: Sketch 56.2 (81672) - https://sketch.com -->
    <title>Path Copy 9</title>
    <desc>Created with Sketch.</desc>
    <g id="Page-1" stroke="none" stroke-width="1" fill="none" fill-rule="evenodd">
        <g id="我的作业" transform="translate(-215.000000, -1169.000000)" fill="#FA5555">
            <g id="Path-Copy-9" transform="translate(215.000000, 1169.000000)">
                <path d="M10.6837527,1.31624727 C10.2613738,0.894584243 9.57554498,0.894584243 9.15316605,1.31624727 L5.97816516,4.49124817 L2.92987794,1.44296095 C2.51966926,1.03203637 1.85388553,1.03203637 1.44296095,1.44296095 C1.03275226,1.85316963 1.03275226,2.51895336 1.44296095,2.92987794 L4.49196406,5.97816516 L1.31624727,9.15388195 C0.894584243,9.57626087 0.894584243,10.2613738 1.31624727,10.6830368 C1.73934209,11.1061317 2.42445502,11.1061317 2.84683395,10.6830368 L6.02183484,7.50875183 L9.08801947,10.5735047 C9.49822816,10.9844293 10.1640119,10.9844293 10.5742206,10.5735047 C10.9844293,10.163296 10.9844293,9.49751226 10.5742206,9.08730358 L7.50875183,6.02183484 L10.6837527,2.84683395 C11.1054158,2.42445502 11.1054158,1.73934209 10.6837527,1.31624727" id="Path-Copy-7"></path>
            </g>
        </g>
    </g>
</svg>