<?xml version="1.0" encoding="UTF-8"?>
<svg width="1201px" height="137px" viewBox="0 0 1201 137" version="1.1" xmlns="http://www.w3.org/2000/svg" xmlns:xlink="http://www.w3.org/1999/xlink">
    <!-- Generator: Sketch 56.2 (81672) - https://sketch.com -->
    <title>编组 4</title>
    <desc>Created with Sketch.</desc>
    <g id="Page-1" stroke="none" stroke-width="1" fill="none" fill-rule="evenodd">
        <g id="测试" transform="translate(-119.000000, -1003.000000)" fill="#26C486" fill-rule="nonzero">
            <g id="编组-5备份" transform="translate(119.000000, 620.000000)">
                <g id="编组-4" transform="translate(0.000000, 383.000000)">
                    <path d="M1.70530257e-12,136.640289 L1.70530257e-12,51.2051704 C25.837535,33.8219303 72.5045962,27.6552636 140.001183,32.7051704 C241.246064,40.2800305 258.002367,87.6402893 330.002367,95.6402893 C402.002367,103.640289 451.501956,51.1437751 596.002367,50.6402893 C740.502777,50.1368036 802.635801,91.4725725 904.002367,93.6402893 C1005.36893,95.8080061 1033.33576,63.7818957 1087.00237,61.1402893 C1122.7801,59.3792184 1160.44677,65.3559282 1200.00237,79.0704187 L1200.00237,136.640289 L1.70530257e-12,136.640289 Z" id="路径-2" opacity="0.620117187"></path>
                    <path d="M-9.09494702e-13,135.837007 L-9.09494702e-13,1.27897692e-13 C9.59449983,19.8591238 54.9278332,40.732273 136,62.6194477 C257.60825,95.4502097 269.831852,31.4050809 341.831852,40.5262696 C413.831852,49.6474582 447.499589,86.9759368 592,86.4018882 C736.500411,85.8278397 800.633434,49.930369 902,52.4018882 C1003.36657,54.8734074 1033.3334,89.413712 1087,86.4018882 C1122.77774,84.3940057 1160.4448,63.3940057 1200.00118,23.4018882 L1200.00118,135.837007 L-9.09494702e-13,135.837007 Z" id="路径-2-copy" opacity="0.297386533"></path>
                </g>
            </g>
        </g>
    </g>
</svg>