<?xml version="1.0" encoding="UTF-8"?>
<svg width="16px" height="16px" viewBox="0 0 16 16" version="1.1" xmlns="http://www.w3.org/2000/svg" xmlns:xlink="http://www.w3.org/1999/xlink">
    <!-- Generator: Sketch 56.2 (81672) - https://sketch.com -->
    <title>删 除</title>
    <desc>Created with Sketch.</desc>
    <g id="Page-1" stroke="none" stroke-width="1" fill="none" fill-rule="evenodd">
        <g id="布置作业-2" transform="translate(-216.000000, -425.000000)" fill="#26C486" fill-rule="nonzero">
            <g id="删-除" transform="translate(216.000000, 425.000000)">
                <path d="M12.4499978,13.5624849 C12.4499978,14.1187322 12.032809,14.5359172 11.4765616,14.5359172 L4.52346497,14.5359172 C3.96721762,14.5359172 3.55003259,14.1187322 3.55003259,13.5624849 L3.55003259,3.34142957 L12.4499978,3.34142957 L12.4499978,13.5624849 L12.4499978,13.5624849 Z M5.49689735,1.67269325 C5.49689735,1.53363132 5.56642832,1.46409978 5.70549083,1.46409978 L10.3640726,1.46409978 C10.5031346,1.46409978 10.5726661,1.53363075 10.5726661,1.67269325 L10.5726661,2.2289406 L5.56643806,2.2289406 C5.49689735,2.2289406 5.49689735,1.67269325 5.49689735,1.67269325 L5.49689735,1.67269325 Z M15.3007542,2.2289406 L11.6156163,2.2289406 L11.6156163,1.67269325 C11.6156163,0.907852431 10.9898378,0.351605082 10.2945281,0.351605082 L5.6359463,0.351605082 C4.87110548,0.351605082 4.31485813,0.977383588 4.31485813,1.67269325 L4.31485813,2.2289406 L0.629720163,2.2289406 C0.282066286,2.2289406 0.0734728139,2.50706523 0.0734728139,2.78518795 C0.0734728139,3.06331258 0.351597443,3.3414353 0.629720163,3.3414353 L2.36799337,3.3414353 L2.36799337,13.5624906 C2.36799337,14.7445164 3.34142575,15.7179584 4.52346115,15.7179584 L11.4765578,15.7179584 C12.6585836,15.7179584 13.6320256,14.744526 13.6320256,13.5624906 L13.6320256,3.3414353 L15.3702988,3.3414353 C15.7179527,3.3414353 15.9265461,3.06331067 15.9265461,2.78518795 C15.9265461,2.50706332 15.6484215,2.2289406 15.3007676,2.2289406 L15.3007542,2.2289406 Z M8.00001138,12.7976421 C8.34766525,12.7976421 8.55625873,12.5195175 8.55625873,12.2413948 L8.55625873,6.05314279 C8.55625873,5.70548892 8.2781341,5.49689544 8.00001138,5.49689544 C7.72188675,5.49689544 7.44376403,5.77502007 7.44376403,6.05314279 L7.44376403,12.2413948 C7.44376403,12.5195194 7.6523575,12.7976421 8.00001138,12.7976421 L8.00001138,12.7976421 Z M5.28829815,12.7976421 C5.63595203,12.7976421 5.8445455,12.5195175 5.8445455,12.2413948 L5.8445455,6.05314279 C5.8445455,5.70548892 5.56642087,5.49689544 5.28829815,5.49689544 C5.01017352,5.49689544 4.7320508,5.77502007 4.7320508,6.05314279 L4.7320508,12.2413948 C4.7320508,12.5195194 5.01017543,12.7976421 5.28829815,12.7976421 L5.28829815,12.7976421 Z M10.7117055,12.7976421 C11.0593594,12.7976421 11.2679529,12.5195175 11.2679529,12.2413948 L11.2679529,6.05314279 C11.2679529,5.70548892 10.9898282,5.49689544 10.7117055,5.49689544 C10.4335809,5.49689544 10.1554582,5.77502007 10.1554582,6.05314279 L10.1554582,12.2413948 C10.1554582,12.5195194 10.3640516,12.7976421 10.7117055,12.7976421 L10.7117055,12.7976421 Z" id="形状"></path>
            </g>
        </g>
    </g>
</svg>