<?xml version="1.0" encoding="UTF-8"?>
<svg width="15px" height="14px" viewBox="0 0 15 14" version="1.1" xmlns="http://www.w3.org/2000/svg" xmlns:xlink="http://www.w3.org/1999/xlink">
    <!-- Generator: Sketch 56.2 (81672) - https://sketch.com -->
    <title>形状</title>
    <desc>Created with Sketch.</desc>
    <g id="Page-1" stroke="none" stroke-width="1" fill="none" fill-rule="evenodd">
        <g id="题目" transform="translate(-30.000000, -24.000000)" fill="#26C486" fill-rule="nonzero">
            <g id="制定目标-copy-2" transform="translate(30.000000, 24.000000)">
                <path d="M8.62557812,1.30118973 C7.954125,1.08249665 7.23214062,0.963581473 6.48026562,0.963581473 C2.9013125,0.963581473 0,3.6580346 0,6.98179799 C0,10.3055469 2.9013125,13 6.48026562,13 C10.0592344,13 12.9605469,10.3055469 12.9605469,6.98179799 C12.9605469,6.29160826 12.8354375,5.62855022 12.6051562,5.01113728 L12.6051861,5.01110955 C12.3149189,5.28065933 12.0248517,5.55039482 11.734983,5.82031602 C11.8301549,6.19309392 11.8805299,6.58196223 11.8805299,6.98175575 C11.8805299,9.75156825 9.46276423,11.996941 6.48029548,11.996941 C3.49784236,11.996941 1.08007673,9.75156825 1.08007673,6.98177026 C1.08007673,4.21195776 3.49784236,1.96658499 6.48029548,1.96658499 C6.91995173,1.96658499 7.34732673,2.01537852 7.75648298,2.10745218 L7.75647465,2.10745991 C8.04634653,1.83884886 8.33605434,1.57008401 8.62559965,1.30116973 L8.62557812,1.30118973 Z M11.6554844,0.81778125 C11.6915625,1.18916629 11.7318594,1.56029018 11.7594531,1.93221205 C11.7681562,2.05002455 11.8183281,2.08368527 11.9384687,2.09270982 C12.5756562,2.1406183 13.2121562,2.19591183 13.8487812,2.2498125 C13.8991562,2.25406362 13.9543906,2.24122321 14,2.27668304 C13.9904219,2.32596987 13.9452031,2.34758817 13.9132969,2.37727344 C13.1326719,3.10341629 12.3502969,3.82789063 11.5715156,4.55571652 C11.5017656,4.62089063 11.4355156,4.6466875 11.3367187,4.63730022 C10.9268281,4.59841629 10.5157344,4.57032701 10.1060781,4.52931027 C10.0059844,4.51929911 9.94164062,4.54077232 9.871125,4.60654129 C8.8155625,5.59114621 8.83625,5.56920871 7.7798125,6.55298661 C7.60171875,6.71889621 7.402,6.79991406 7.150875,6.72900893 C6.75973438,6.61865402 6.61201563,6.18347321 6.86484375,5.88502455 C6.90385938,5.8389442 6.95029688,5.79805804 6.99509375,5.75647545 C8.03415625,4.7913125 7.99270313,4.82865848 9.03425,3.86574442 C9.11529687,3.79076228 9.1483125,3.72365848 9.13414063,3.61096763 C9.0856875,3.2261183 9.057375,2.83910714 9.01929688,2.45308259 C9.01314062,2.39075223 9.02604688,2.34490402 9.07760937,2.2972567 C9.89440625,1.54237165 10.7085469,0.784991071 11.5235156,0.0284229911 C11.5305,0.0219229911 11.5407656,0.0185569196 11.5744531,0 C11.6025781,0.283359375 11.6295469,0.550541295 11.6554844,0.81778125 Z M9.18039062,6.98179799 C9.18039062,8.36668973 7.9715,9.48937612 6.48026562,9.48937612 C4.98904687,9.48937612 3.78015625,8.36668973 3.78015625,6.98179799 C3.78015625,5.59689174 4.98904687,4.47420536 6.48026562,4.47420536 C6.70348437,4.47420536 6.92035938,4.49934933 7.1278125,4.54677902 L7.1277853,4.54680418 C6.9939578,4.67060437 6.8602228,4.7944919 6.72658217,4.91846489 L6.7264224,4.91861325 C6.50868959,5.12078211 6.2909974,5.32298869 6.07334428,5.52523155 C5.37546928,5.69280968 4.86001615,6.28148043 4.86001615,6.98197151 C4.86001615,7.81289785 5.58534428,8.48651838 6.48007865,8.48651838 C7.27115678,8.48651838 7.9297974,7.95996035 8.0717974,7.26366235 L8.07185059,7.26361287 C8.26629122,7.08273296 8.46078028,6.90189803 8.65531934,6.72110953 C8.80338184,6.58350685 8.93447559,6.46154479 9.08545997,6.32092426 C9.14725684,6.53150685 9.18025684,6.75314524 9.18025684,6.98192203 L9.18039062,6.98179799 Z" id="形状"></path>
            </g>
        </g>
    </g>
</svg>