<?xml version="1.0" encoding="UTF-8"?>
<svg width="200px" height="180px" viewBox="0 0 200 180" version="1.1" xmlns="http://www.w3.org/2000/svg" xmlns:xlink="http://www.w3.org/1999/xlink">
    <!-- Generator: Sketch 52.5 (67469) - http://www.bohemiancoding.com/sketch -->
    <title>分组 2</title>
    <desc>Created with Sketch.</desc>
    <g id="Page-1" stroke="none" stroke-width="1" fill="none" fill-rule="evenodd">
        <g id="排行榜" transform="translate(-621.000000, -2687.000000)">
            <g id="分组-2" transform="translate(621.000000, 2687.000000)">
                <text id="网络异常" font-family="PingFangSC-Regular, PingFang SC" font-size="14" font-weight="normal" fill="#999999">
                    <tspan x="71" y="160">网络异常</tspan>
                </text>
                <g id="暂无网络">
                    <g id="分组">
                        <path d="M181.098555,115.230572 C181.098555,109.578797 176.197136,104.896404 169.770494,103.986243 C169.592221,99.683261 165.386288,96.2378173 160.21197,96.2378173 C154.923201,96.2378173 150.638035,99.8345975 150.638035,104.264778 C150.638035,107.039124 152.332732,109.462564 154.883589,110.903474 C154.861547,110.944949 154.843138,110.988241 154.828566,111.03287 C139.409037,107.828674 117.553968,105.826303 93.3001716,105.826303 C76.3290048,105.826303 60.5264668,106.806645 47.2857904,108.495381 C46.7773814,102.578243 40.9075732,97.9068154 33.7194059,97.9068154 C26.7953686,97.9068154 21.0906196,102.244879 20.2256684,107.850606 C16.8054541,109.074388 14.4108742,111.91673 14.4108742,115.230585 C14.4108742,115.620967 14.4548922,116.000383 14.5187185,116.37322 C10.8035958,118.237405 8.75675454,120.266077 8.75675454,122.38905 C8.75675454,131.534522 46.608015,138.951789 93.300077,138.951789 C139.560985,138.951789 177.136918,131.672687 177.830289,122.64347 C179.863924,120.647695 181.098632,118.059768 181.098632,115.230593" id="路径" fill="#FFFFFF"></path>
                        <path d="M165.249892,119.641091 C165.249892,124.014258 134.512024,127.560578 96.5992932,127.560578 C58.6820487,127.560578 27.9486943,124.014237 27.9486943,119.641091 C27.9486943,115.267924 58.6844129,111.723788 96.5992932,111.723788 C134.514174,111.721595 165.249892,115.267924 165.249892,119.641091" id="路径" fill="#EEEEEE"></path>
                        <path d="M52.75938,102.139727 C51.2341531,102.130955 49.3985944,101.962081 47.3033289,101.637494 L47.5102139,100.321599 C49.5372471,100.639607 51.3067744,100.8019 52.7659698,100.810673 L52.7593671,102.139727 L52.75938,102.139727 Z M54.1525526,102.10025 L54.0601146,100.775583 C56.274216,100.622061 57.6453968,100.012363 58.1339804,98.9706129 L59.3422771,99.5320616 C58.6247822,101.067273 56.9256881,101.907248 54.1525483,102.100242 L54.1525526,102.10025 Z M45.9629952,101.413792 L45.9629867,101.41379 C44.1846064,101.094666 42.4152317,100.727561 40.6568293,100.312874 L40.9605541,99.0189102 C42.8665375,99.4619282 44.6294664,99.8281857 46.1965147,100.106717 L45.9632188,101.413839 L45.9629952,101.413792 Z M39.3426785,99.9992044 L39.3426616,99.9992003 C37.593353,99.5753338 35.8500581,99.1271541 34.1133209,98.654794 L34.4610638,97.3739893 C36.2129839,97.8455184 37.956096,98.2973091 39.657391,98.709623 L39.3426616,99.9992003 L39.3426785,99.9992044 Z M32.8125902,98.3016995 C31.0716747,97.8257841 29.3307549,97.3389029 27.6228615,96.8520216 L27.9882117,95.5756033 C29.6939127,96.0580982 31.4304351,96.5449794 33.1669359,97.0208949 L32.8125902,98.3016995 Z M59.0297916,97.9529873 L58.3629175,97.935442 C58.3651184,96.6612168 57.8280977,95.1303835 56.7694626,93.2661986 L57.9293393,92.6104441 C59.1200287,94.7049107 59.6966657,96.4067933 59.6966657,97.8191961 L59.0297916,97.9529787 L59.0297916,97.9529873 Z M26.3265846,96.4857641 L25.9282209,96.373913 C24.286346,95.9067702 22.6862927,95.4527864 21.1500656,95.0295067 L21.5044112,93.7487021 C23.0450444,94.1719817 24.6495125,94.6281587 26.293571,95.0953015 L26.6919347,95.2093458 L26.3265846,96.4857641 Z M19.8537328,94.6698287 L19.8537437,94.6698317 C18.1302978,94.1965828 16.3986459,93.7534962 14.6596088,93.3407775 L14.9655346,92.0468139 C16.5567886,92.4196509 18.3219141,92.8780211 20.2036875,93.389027 L19.8537437,94.6698317 L19.8537328,94.6698287 Z M13.3610642,93.0512776 L13.3610674,93.0512783 C12.1901303,92.7881207 11.0047669,92.5933279 9.81103409,92.4679002 L9.93208384,91.1432324 C10.9312945,91.2375382 12.143993,91.4327293 13.6384158,91.7529305 L13.3611018,93.0512805 L13.3610642,93.0512776 Z M56.0981609,92.1455031 L56.098162,92.1455048 C55.1411855,90.6651676 54.1045121,89.2375348 52.9926942,87.8688453 L54.035923,87.0376382 C55.3102468,88.6298714 56.3820787,90.1080604 57.2250424,91.4349214 L56.0981792,92.1455048 L56.0981609,92.1455031 Z M52.1519432,86.8358744 L52.1519434,86.8358746 C51.0141875,85.4704041 49.8421972,84.1336203 48.6370944,82.8267847 L49.6208988,81.931976 L49.6209063,81.9319841 C50.8416991,83.2554291 52.0283392,84.6097581 53.1796874,85.9936113 L52.1518649,86.8357842 L52.1519432,86.8358744 Z M47.7325311,81.8464383 L47.7325407,81.8464485 C46.5128312,80.5465865 45.2744268,79.2642826 44.0176759,77.999918 L44.9662658,77.0656324 C46.3176212,78.4253908 47.5633332,79.7171699 48.7056113,80.9387421 L47.7328115,81.8467098 L47.7325311,81.8464383 Z M43.0732118,77.0565712 L43.073205,77.0565644 C41.8072721,75.7983231 40.5294407,74.5520371 39.2398696,73.3178499 L40.1642496,72.3572464 C41.5288104,73.6665621 42.8119335,74.9166669 44.0158326,76.114123 L43.0738455,77.0571812 L43.0732118,77.0565712 Z M38.2708336,72.3917183 L38.2708256,72.3917107 C36.9748711,71.1633726 35.6704268,69.94394 34.3576216,68.7335263 L35.2621933,67.7597638 C36.6377587,69.0274095 37.9472969,70.2511835 39.190808,71.43112 L38.2708299,72.3917236 L38.2708336,72.3917183 Z M33.3672225,67.8277636 C32.0995015,66.6653895 30.7745612,65.4657274 29.3923974,64.2309833 L30.2859647,63.2418688 C31.6703337,64.4810034 32.9974834,65.6850561 34.2717943,66.8496148 L33.3672225,67.8277636 Z M28.3931781,63.3361789 L28.3931806,63.3361811 C27.058966,62.1472771 25.7193395,60.9644213 24.3743374,59.7876546 L25.2524984,58.7897674 L25.2525125,58.7897797 C26.6009169,59.968157 27.9434193,61.1532295 29.2799745,62.3449457 L28.390809,63.3340602 L28.3931781,63.3361789 Z M23.3663034,58.9059983 L21.3634802,57.1690166 L21.3634868,57.1690222 C20.6757492,56.5730763 19.9942576,55.9700091 19.3191237,55.3599169 L20.2170927,54.3773818 C20.8641587,54.9673415 21.5398364,55.5638807 22.2353223,56.1669993 L24.2425472,57.9083673 L23.3665872,58.9062545 L23.3663034,58.9059983 Z M18.3240396,54.4429203 L18.3240399,54.4429206 C17.0024397,53.2144818 15.7208469,51.9439833 14.481269,50.6333996 L15.4540689,49.7254319 L15.4540702,49.7254333 C16.6729071,51.0150085 17.9332258,52.2650211 19.2330277,53.4735501 L18.3240541,54.4429262 L18.3240396,54.4429203 Z M13.5634872,49.6355121 L13.5634856,49.6355103 C12.3429077,48.2957881 11.1946331,46.8923914 10.1234975,45.4312422 L11.2019407,44.6526709 C12.1637361,45.9751456 13.2928001,47.3524407 14.5539141,48.7494871 L13.5635071,49.6355232 L13.5634872,49.6355121 Z M9.33994273,44.3171023 L9.33994126,44.3171001 C8.3001385,42.8061423 7.41253989,41.1966037 6.69004353,39.511898 L7.9225501,39.0030852 C8.52779886,40.4571494 9.37734804,41.9945622 10.446992,43.5736365 L9.33993696,44.3171173 L9.33994273,44.3171023 Z M6.20365368,38.2157305 L6.20365319,38.2157291 C5.69501425,36.7572079 5.42597731,35.2264366 5.40692573,33.6824658 C5.40692573,33.3447193 5.42013115,33.0069729 5.45094382,32.6779991 L6.77808929,32.7942365 L6.77808906,32.794239 C6.75151529,33.0888398 6.73829653,33.3844857 6.73847299,33.6802752 C6.73847299,34.9742388 6.9827734,36.3559288 7.46697241,37.7924477 L6.20365317,38.2157274 L6.20365368,38.2157305 Z M178.701701,36.7572799 L178.70169,36.7572756 C177.048748,36.0841151 175.382322,35.4443146 173.703444,34.8382618 L174.159032,33.5903545 C175.921956,34.2285636 177.60564,34.8755455 179.207915,35.5291068 L178.701707,36.7572756 L178.701701,36.7572799 Z M172.446726,34.3864839 L172.44671,34.3864785 C170.760699,33.7930342 169.065807,33.2249418 167.362621,32.6823942 L167.771989,31.4169416 L167.771981,31.4169393 C169.486086,31.9641795 171.191981,32.536656 172.889085,33.1341826 L172.446703,34.3864762 L172.446726,34.3864839 Z M166.083919,32.2788584 L166.083918,32.2788582 C164.377465,31.7446805 162.664456,31.2314921 160.945322,30.7394064 L161.315074,29.462988 C163.084601,29.9696077 164.810106,30.4871931 166.485007,31.0113581 L166.084443,32.2790038 L166.083919,32.2788584 Z M6.96947821,31.5638887 L5.66654268,31.2743917 C6.06710732,29.4825811 6.94086645,27.8070164 8.26361011,26.2937369 L9.26942351,27.1644209 C8.09634136,28.5110203 7.32162294,29.989205 6.96947821,31.5638887 Z M159.657235,30.3730035 C157.96694,29.8970881 156.239234,29.4299453 154.476297,28.9715751 L154.810834,27.6863841 C156.582562,28.1469474 158.319085,28.6162834 160.015973,29.094392 L159.657226,30.3730035 L159.657235,30.3730035 Z M153.177763,28.6360218 C151.469861,28.1995832 149.731155,27.7697241 147.966025,27.3508308 L148.276353,26.0590603 C150.050282,26.4801468 151.7978,26.9100059 153.510099,27.3486377 L153.177763,28.6360218 Z M146.658679,27.0437886 C144.937572,26.6424406 143.190062,26.247672 141.420526,25.8616761 L141.704443,24.5633261 C143.482774,24.949322 145.234702,25.3440906 146.964605,25.749825 L146.658679,27.0437886 Z M10.1542344,26.247672 L9.23645722,25.2848753 C10.4491557,24.1378533 11.9721773,23.069785 13.7571239,22.1091858 L14.3909844,23.2781394 C12.7072924,24.1817208 11.2833028,25.1818011 10.154243,26.2476848 L10.1542344,26.247672 Z M140.108839,25.5787586 C138.374526,25.2081148 136.620405,24.8462436 134.846484,24.4909519 L135.108392,23.1882156 C136.886723,23.5435073 138.647442,23.9075716 140.386157,24.2782155 L140.108843,25.5787586 L140.108839,25.5787586 Z M133.53254,24.2321591 C131.787223,23.8900264 130.028696,23.5566663 128.254775,23.2320788 L128.494674,21.9249562 C130.275205,22.2495437 132.040322,22.5850969 133.790042,22.9272297 L133.532536,24.2321591 L133.53254,24.2321591 Z M126.932019,22.9908313 C125.177898,22.6750165 123.412763,22.3701674 121.638843,22.074091 L121.858933,20.7625821 C123.639465,21.0608516 125.411202,21.3657007 127.169712,21.6815156 L126.932014,22.9908313 L126.932019,22.9908313 Z M15.5595831,22.6837891 L14.9807451,21.4863244 L14.9807465,21.4863238 C16.6271693,20.7076197 18.3233488,20.0379845 20.0582377,19.4817768 L20.4720077,20.7450362 C18.6716678,21.3328027 17.0187798,21.9841708 15.5595844,22.6837885 L15.5595831,22.6837891 Z M120.320493,21.8569683 C118.56197,21.5696645 116.794639,21.2911333 115.020719,21.0213748 L115.223202,19.7076727 C117.003734,19.9774312 118.773257,20.2559624 120.536194,20.5454594 L120.320505,21.8569683 L120.320493,21.8569683 Z M113.69577,20.8239905 L113.695772,20.8239909 C111.925736,20.5601137 110.153971,20.307894 108.380588,20.0673512 L108.561062,18.7492628 C110.343795,18.9927034 112.119929,19.2471098 113.89385,19.5080957 L113.695768,20.8239909 L113.69577,20.8239905 Z M21.7420186,20.3524614 L21.3590612,19.0804293 C22.978927,18.5979344 24.7484543,18.15053 26.6236293,17.749182 L26.9031442,19.0497251 C25.063188,19.4423005 23.3266742,19.8809323 21.7420229,20.3524614 L21.7420186,20.3524614 Z M107.048995,19.8875117 L107.049025,19.8875157 C105.272721,19.6516355 103.495101,19.4257359 101.716237,19.2098297 L101.876903,17.8895482 C103.661837,18.1066709 105.444561,18.3325662 107.225102,18.5694274 L107.049029,19.8875157 L107.048995,19.8875117 Z M100.382446,19.0519183 L100.382438,19.0519174 C98.6017691,18.8414026 96.8197242,18.6425527 95.0364326,18.4553782 L95.1750896,17.1329035 C96.9622242,17.3215151 98.7493673,17.5210926 100.538698,17.7316358 L100.382434,19.0519174 L100.382446,19.0519183 Z M28.2082505,18.7799666 L27.9507447,17.4750372 L27.9507374,17.4750386 C29.7222872,17.1291706 31.5027051,16.8300657 33.2901234,16.5780367 L33.4772002,17.8939319 C31.6438467,18.1549178 29.8721228,18.4531874 28.208226,18.779968 L28.2082505,18.7799666 Z M93.7027867,18.3150169 C91.9156522,18.1329848 90.1307229,17.9619184 88.3545885,17.804011 L88.4734374,16.4793431 C90.2561701,16.6372505 92.0455013,16.8105101 93.8392385,16.9925422 L93.7027824,18.3150169 L93.7027867,18.3150169 Z M34.8021521,17.7140915 L34.6304816,16.3960031 L34.6304785,16.3960035 C36.4172391,16.1643618 38.2083026,15.9669475 40.0026631,15.8038699 L40.1237129,17.1285378 C38.2947612,17.2952178 36.5208278,17.4904089 34.8019299,17.7141111 L34.8021521,17.7140915 Z M87.0186137,17.6877736 C85.2270773,17.5342524 83.4399514,17.3938903 81.6616033,17.2644939 L81.7584431,15.9398261 C83.5411758,16.0692224 85.3327207,16.2117778 87.1308426,16.3652989 L87.0185965,17.6877736 L87.0186137,17.6877736 Z M80.3234576,17.1679949 C78.5253185,17.0429849 76.7359831,16.933327 74.9620626,16.8390211 L75.0346924,15.5121601 C76.8152243,15.6086591 78.6089701,15.7205102 80.4137119,15.8433271 L80.3234748,17.1679949 L80.3234576,17.1679949 Z M41.4555684,17.0144738 L41.3455232,15.689806 L41.3455146,15.6898067 C43.1395441,15.5430477 44.9356757,15.4231409 46.7333247,15.3301287 L46.8015528,16.6569897 L46.8015505,16.6569898 C45.0179172,16.7505068 43.2357411,16.8696808 41.4555446,17.0144747 L41.4555684,17.0144738 Z M73.621875,16.7710332 C71.8171333,16.6811137 70.0299944,16.6043532 68.2560739,16.5451379 L68.3022929,15.2182769 C70.0828247,15.2774921 71.8787629,15.3542527 73.6901031,15.4441722 L73.621875,16.7710332 Z M48.1421057,16.5933874 L48.0826813,15.2665263 C49.8456058,15.1875726 51.6437406,15.1305505 53.4770898,15.0932668 L53.5035007,16.4201278 C51.6833526,16.4574115 49.8940172,16.5144337 48.1421057,16.5933874 Z M66.9180142,16.5012747 C65.1088706,16.4486389 63.3173429,16.409162 61.5499993,16.3916168 L61.5654056,15.0647557 C63.3415356,15.0844942 65.1396833,15.1217779 66.9576219,15.1744137 L66.9180056,16.5012747 L66.9180142,16.5012747 Z M54.8438602,16.3981962 L54.824052,15.0713352 C56.0235451,15.05379 57.2362349,15.0450173 58.4599507,15.0450173 L60.2162726,15.0515968 L60.2052681,16.3784578 L58.4599507,16.3718783 C57.2428505,16.3718783 56.0367634,16.380651 54.8438688,16.3981962 L54.8438602,16.3981962 Z" id="形状" fill="#24C789" fill-rule="nonzero"></path>
                        <polygon id="路径" fill="#24C789" points="3.78706043 86.811604 4.97334801 86.811604 4.97334801 90.6496317 8.66205551 90.6496317 8.66205551 91.7747222 4.97334801 91.7747222 4.97334801 95.6412567 3.78706043 95.6412567 3.78706043 91.7747222 0.0807284928 91.7747222 0.0807284928 90.6496317 3.78484663 90.6496317 3.78484663 86.811604"></polygon>
                        <path d="M122.847823,21.9342146 C122.847823,21.9342146 132.076368,28.2112184 133.607284,29.6512723 C135.135807,31.0889528 139.735734,36.1579129 139.735734,36.1579129 L147.421403,28.8020601 L152.612163,23.5704293 L158.300466,15.5663139 L158.869775,10.217482 L156.92025,8.53819465 L151.047754,8.53819465 L144.818833,10.4184224 L138.477504,13.0426126 L132.569127,15.886885 L127.313777,18.707236 C127.311385,18.707236 122.713859,21.25249 122.847805,21.934252 L122.847823,21.9342146 Z" id="路径" fill="#EEEEEE"></path>
                        <path d="M130.332961,112.493533 C105.885242,129.918769 71.8907484,124.288118 54.4066991,99.9192208 C53.7321581,98.9826455 53.0935927,98.0259046 52.4887542,97.0557245 L52.4887544,97.0557248 C48.8299405,91.241996 46.3240823,84.7828882 45.1070321,78.0284529 C41.4959982,58.0466896 49.3498992,36.8550401 67.0251124,24.2581683 C90.6002316,7.45135488 123.043413,12.0894194 141.006579,34.2871337 C141.678872,35.1071973 142.32868,35.9563888 142.951506,36.8347127 C160.442362,61.1945728 154.79194,95.0704648 130.333088,112.493402 L130.332961,112.493533 Z" id="路径" fill="#FFFFFF"></path>
                        <path d="M137.925576,32.6318028 C137.925576,32.6318028 154.604026,87.5046764 94.3169294,121.467795 C126.340091,122.143288 141.561582,102.110985 148.533979,87.1030971 C148.533979,87.1052902 161.153974,57.3682342 137.925619,32.6315886 L137.925576,32.6318028 Z" id="路径" fill="#EEEEEE"></path>
                        <path d="M105.526068,7.03117257 C103.631089,7.03117257 102.08825,5.49376832 102.08825,3.60545439 C102.08825,1.71714475 103.631085,0.17973621 105.526068,0.17973621 C107.418846,0.17973621 108.961671,1.71714046 108.961671,3.60545439 C108.961671,5.49376404 107.418837,7.03117257 105.526068,7.03117257 Z M105.526068,1.20394561 L105.526068,1.2039456 C104.195066,1.26064175 103.162202,2.38179605 103.219094,3.70810878 C103.272583,4.9549859 104.274787,5.95365485 105.526068,6.00696317 C106.857069,6.00696323 107.936058,4.9317714 107.936058,3.60545439 C107.936058,2.27913737 106.857069,1.2039456 105.526068,1.2039456 Z" id="形状" fill="#B8B8B8" fill-rule="nonzero"></path>
                        <path d="M86.8117157,98.841208 L86.8117156,98.841208 C85.0370471,98.8412079 83.5983949,97.407619 83.5983949,95.6391963 C83.598395,93.8707736 85.0370471,92.4371846 86.8117156,92.4371846 L86.8117155,92.4371846 C88.5863839,92.4371845 90.0250362,93.8707736 90.0250362,95.6391963 C90.0250362,97.407619 88.5863839,98.841208 86.8117155,98.841208 L86.8117157,98.841208 Z M86.8117157,93.461394 C85.6046979,93.5153864 84.6701409,94.5341934 84.7243253,95.7369675 C84.7751019,96.8641204 85.6805818,97.7664146 86.8117157,97.8170115 C88.0187335,97.8170114 88.9972097,96.8419747 88.9972097,95.6392092 C88.9972096,94.4364394 88.0187292,93.4614068 86.8117158,93.4614068 L86.8117157,93.461394 Z" id="形状" fill="#D7D7D7" fill-rule="nonzero"></path>
                        <path d="M72.2285735,30.4386441 L72.2285735,30.4386437 C72.2285732,32.175574 73.6416058,33.5836419 75.3846793,33.5836419 C77.1277441,33.5836421 78.540785,32.1755826 78.540785,30.4386437 C78.540785,30.4386436 78.540785,30.4386436 78.540785,30.4386435 C78.540785,28.7017131 77.1277527,27.2936452 75.3846793,27.2936452 C73.6416144,27.2936452 72.2285735,28.7017045 72.2285735,30.4386434 C72.2285735,30.4386434 72.2285735,30.4386435 72.2285735,30.4386436 L72.2285735,30.4386441 Z" id="路径" fill="#EDEDEC"></path>
                        <path d="M32.0775397,60.9038459 L32.0775397,60.9038457 C32.0775395,61.9285606 32.9111688,62.759258 33.939505,62.759258 C34.967839,62.7592581 35.8014703,61.9285627 35.8014703,60.9038457 C35.8014703,60.9038457 35.8014703,60.9038456 35.8014703,60.9038456 C35.8014703,59.8791306 34.967839,59.0484332 33.939505,59.0484332 C32.911171,59.0484332 32.0775397,59.8791306 32.0775397,60.9038455 C32.0775397,60.9038455 32.0775397,60.9038456 32.0775397,60.9038456 L32.0775397,60.9038459 Z" id="路径" fill="#EAE9E9"></path>
                        <path d="M53.4680111,96.4484376 C48.4059305,99.0166179 33.6444591,107.080867 29.4891125,102.023451 C25.2721879,96.8892753 46.2401888,77.8241724 46.2401888,77.8241724 L46.2401886,77.8241709 C47.4332314,84.4354093 49.8867479,90.7575319 53.4679678,96.4484789 L53.4680111,96.4484376 Z" id="路径" fill="#FFFFFF"></path>
                        <path d="M33.8030145,105.253802 C31.5096676,105.253802 29.792962,104.578309 28.6969158,103.247062 C24.0970252,97.6457262 41.9287586,80.9359558 45.5514389,77.6419342 M52.8782505,98.4769259 C48.2651631,100.843353 39.6816352,105.253786 33.8030061,105.253802 M51.9362546,96.6567102 L52.0154893,96.6150402" id="形状" stroke="#979797" stroke-width="2" fill-rule="nonzero"></path>
                        <path d="M123.211321,20.0561569 C128.339429,17.2598796 150.560741,6.02408827 155.814111,9.3686553 C156.778107,9.89501339 157.455986,10.9630817 157.651866,12.3316041 C158.175681,16.0292612 155.413542,21.2862669 150.263425,26.3985326 L149.387465,27.2692167 C146.301793,30.3352482 143.108289,33.5065686 139.833347,36.5199558 C104.418557,69.2155829 60.3697294,94.4172039 53.1660655,98.0249928 L52.8799479,98.1697412 M51.7531922,95.8734869 L51.9820863,95.7550564" id="形状" stroke="#979797" stroke-width="2"></path>
                        <path d="M98.8479817,122.530767 L98.8479797,122.530767 C81.2265144,122.517294 64.6901123,114.047569 54.4228064,99.7767451 L54.4228055,99.776744 C53.7482885,98.8409056 53.1067097,97.8819255 52.4992364,96.9015429 L52.4992346,96.90154 C48.829828,91.0753839 46.3185185,84.6006825 45.1020028,77.8298405 C41.3824741,57.2514366 50.005614,36.0962149 67.0736506,23.935107 L67.0736539,23.9351046 C76.303977,17.3214033 87.3890995,13.7703066 98.7578679,13.7851704 C115.361501,13.7851704 130.844865,21.1476085 141.235327,33.9885527 C141.906603,34.8066009 142.560271,35.6619328 143.187529,36.5457672 C151.663204,48.3515362 155.015199,62.7452325 152.625004,77.0710137 C150.237022,91.3945247 142.390797,103.937208 130.532349,112.385152 L130.532348,112.385153 C121.300005,118.994357 110.215914,122.543568 98.8481344,122.530697 L98.8479817,122.530767 Z" id="路径" stroke="#979797" stroke-width="2" fill-rule="nonzero"></path>
                        <polygon id="路径" fill="#E0E0E0" points="17.9300648 40.0579153 21.0091389 41.0777341 24.0970037 40.0776537 24.0771956 43.3147474 25.9809781 45.9333874 22.8887071 46.9115362 20.9805228 49.5257857 19.0877449 46.8961798 16.0020723 45.8939063 17.9278639 43.2906226"></polygon>
                        <polygon id="路径" fill="#C3C2C2" points="116.618713 37.5621263 119.697787 38.5841383 122.78346 37.5840579 122.763651 40.818967 124.667434 43.4376071 121.575163 44.4157559 119.666979 47.0300053 117.778602 44.4003995 114.690738 43.4003191 116.614328 40.7970354"></polygon>
                        <path d="M8.6554657,83.0108428 C8.26370468,82.640199 7.59462968,82.322191 6.75388412,82.322191 C6.75388412,82.322191 7.77730476,82.322191 8.54321956,81.6883681 C9.02081586,81.2979859 9.38616602,80.622493 9.38616602,79.69698 C9.38616602,79.69698 9.38396512,80.940501 10.2291125,81.7190724 C10.6186726,82.0743641 11.2371268,82.322191 12.0206488,82.322191 C12.0206488,82.322191 11.0192372,82.3528952 10.2555233,82.9538207 C9.7581189,83.3463961 9.38396512,84.0240822 9.38396512,84.947402 C9.38616602,84.947402 9.4698004,83.787221 8.6554657,83.0108428" id="路径" fill="#328AB2"></path>
                        <path d="M179.221123,19.9487488 C188.746634,18.0955297 197.066053,24.4074362 197.796758,34.0463687 L195.061037,34.5771131 C194.446985,26.4690011 187.445908,21.1571664 179.425803,22.7099399 L179.221119,19.9487446 L179.221123,19.9487488 Z" id="路径" fill="#24C789"></path>
                        <path d="M179.577695,24.6882419 C186.514951,23.3416425 192.578443,27.9385074 193.10666,34.9566153 L190.082608,35.5465749 C189.679843,30.2171993 185.082149,26.7256863 179.80879,27.7498957 L179.577695,24.6882548 L179.577695,24.6882419 Z" id="路径" fill="#24C789"></path>
                        <path d="M179.958555,29.7083051 C184.155684,28.8902569 187.822383,31.6733753 188.14592,35.9193348 L185.165886,36.4983287 C184.970006,33.9191827 182.740485,32.2260598 180.18965,32.7217051 L179.958555,29.7082965 L179.958555,29.7083051 Z" id="路径" fill="#24C789"></path>
                        <path d="M183.134391,37.0466055 C182.597128,38.0071256 181.380187,38.3517749 180.416274,37.8164043 C179.452362,37.2810316 179.106495,36.0683733 179.643757,35.1078533 C180.182501,34.151469 181.396433,33.8100559 182.357468,34.3446341 C183.319959,34.8776209 183.66758,36.0865739 183.134387,37.0466099 L183.134391,37.0466055 Z" id="路径" fill="#24C789"></path>
                    </g>
                </g>
            </g>
        </g>
    </g>
</svg>