<?xml version="1.0" encoding="UTF-8"?>
<svg width="16px" height="16px" viewBox="0 0 16 16" version="1.1" xmlns="http://www.w3.org/2000/svg" xmlns:xlink="http://www.w3.org/1999/xlink">
    <!-- Generator: Sketch 52.5 (67469) - http://www.bohemiancoding.com/sketch -->
    <title>班级通知</title>
    <desc>Created with Sketch.</desc>
    <g id="Page-1" stroke="none" stroke-width="1" fill="none" fill-rule="evenodd">
        <g id="班级通知" transform="translate(-144.000000, -249.000000)" fill="#FEBB4D" fill-rule="nonzero">
            <g transform="translate(144.000000, 249.000000)" id="形状">
                <path d="M14.6666889,2.00000233 L14.6666889,1.33333436 C14.6666889,0.600000698 14.0666882,6.10623374e-16 13.3333546,6.10623374e-16 L1.33334061,6.10623374e-16 C0.600006948,6.10623374e-16 6.25000727e-06,0.600000698 6.25000727e-06,1.33333436 L6.25000727e-06,9.66667219 C6.25000727e-06,10.4000059 0.600006948,11.0000065 1.33334061,11.0000065 L2.00000858,11.0000065 L2.00000858,3.33332575 C2.00000858,2.59999209 2.60000928,1.99999139 3.33334294,1.99999139 L14.6666843,1.99999139 L14.6666889,2.00000233 Z M14.6666889,3.00000349 L4.33334879,3.00000349 C3.60001513,3.00000349 3.00001443,3.60000419 3.00001443,4.33333785 L3.00001443,12.0000187 C3.00001443,12.7333523 3.60001513,13.333353 4.33334879,13.333353 L5.00001676,13.333353 L7.3333476,16.000028 L9.66667844,13.333353 L14.6666843,13.333353 C15.4000179,13.333353 16.0000186,12.7333523 16.0000186,12.0000187 L16.0000186,4.33333785 C16.0000186,3.60000419 15.4000179,3.00000349 14.6666843,3.00000349 L14.6666889,3.00000349 Z M10.8333564,10.0000116 L6.16667905,10.0000116 C5.90001155,10.0000116 5.66667847,9.76667855 5.66667847,9.50001105 C5.66667847,9.23334356 5.90001155,9.00001047 6.16667905,9.00001047 L10.8333564,9.00001047 C11.1000239,9.00001047 11.3333569,9.23334356 11.3333569,9.50001105 C11.3333569,9.76667855 11.1000239,10.0000116 10.8333564,10.0000116 Z M12.8333587,7.33333666 L6.16667905,7.33333666 C5.90001155,7.33333666 5.66667847,7.10000357 5.66667847,6.83333608 C5.66667847,6.56666858 5.90001155,6.33333549 6.16667905,6.33333549 L12.8333587,6.33333549 C13.1000262,6.33333549 13.3333593,6.56666858 13.3333593,6.83333608 C13.3333593,7.10000357 13.1000262,7.33333666 12.8333587,7.33333666 Z"></path>
            </g>
        </g>
    </g>
</svg>