<?xml version="1.0" encoding="UTF-8"?>
<svg width="20px" height="20px" viewBox="0 0 20 20" version="1.1" xmlns="http://www.w3.org/2000/svg" xmlns:xlink="http://www.w3.org/1999/xlink">
    <!-- Generator: Sketch 52.5 (67469) - http://www.bohemiancoding.com/sketch -->
    <title>分组 6</title>
    <desc>Created with Sketch.</desc>
    <g id="Page-1" stroke="none" stroke-width="1" fill="none" fill-rule="evenodd">
        <g id="教师首页" transform="translate(-767.000000, -86.000000)">
            <g id="分组-6" transform="translate(767.000000, 86.000000)">
                <g id="分组-5">
                    <path d="M0.842285156,5.61341146 C0.842285128,7.50133683 1.83622873,9.24585182 3.44970701,10.1898145 C5.06318529,11.1337772 7.05107252,11.1337772 8.6645508,10.1898145 C10.2780291,9.24585182 11.2719727,7.50133683 11.2719727,5.61341146 C11.2719727,2.69493173 8.93720758,0.329036458 6.05712891,0.329036458 C3.17705023,0.329036458 0.842285156,2.69493173 0.842285156,5.61341146 Z" id="路径" fill="#E9FDF6"></path>
                    <path d="M11.5539551,1.69466146 C11.553955,2.18387809 11.8115149,2.63593291 12.2296142,2.88054123 C12.6477136,3.12514956 13.1628333,3.12514956 13.5809326,2.88054123 C13.999032,2.63593291 14.2565918,2.18387809 14.2565918,1.69466146 C14.2565918,1.20544483 13.999032,0.753390006 13.5809326,0.508781682 C13.1628333,0.264173358 12.6477136,0.264173358 12.2296142,0.508781682 C11.8115149,0.753390006 11.553955,1.20544483 11.5539551,1.69466146 Z" id="路径" fill="#E9FDF6"></path>
                    <path d="M15.201416,11.8069661 C15.201416,13.0018213 16.1572924,13.9704427 17.3364258,13.9704427 C18.5155591,13.9704427 19.4714355,13.0018213 19.4714355,11.8069661 C19.4714355,10.612111 18.5155591,9.64348958 17.3364258,9.64348958 C16.1572924,9.64348958 15.201416,10.612111 15.201416,11.8069661 Z" id="路径" fill="#E9FDF6"></path>
                    <path d="M11.2756348,18.6091146 C11.0119629,18.6091146 10.7519531,18.5979818 10.4956055,18.5720052 C9.67529297,18.4940755 9.05639648,17.7964193 9.05639648,16.9503255 C9.05639648,16.5940755 8.7890625,16.4530599 8.70849609,16.4196615 C8.62792969,16.386263 8.34228516,16.2934896 8.09326172,16.5421224 C7.50366211,17.1395833 6.57714844,17.1915365 5.94360352,16.6571615 C5.54443359,16.3231771 5.17822266,15.9483724 4.84863281,15.5438802 C4.33227539,14.9130208 4.37988281,13.955599 4.95849609,13.3655599 C5.20751953,13.1132161 5.1159668,12.823763 5.08300781,12.7421224 C5.05004883,12.6604818 4.91088867,12.3895833 4.56298828,12.3895833 C3.72436523,12.3895833 3.03955078,11.7624349 2.96264648,10.9311849 C2.93701172,10.6714193 2.92602539,10.4079427 2.92602539,10.1407552 C2.92602539,9.87356771 2.93701172,9.61009115 2.96264648,9.35032552 C3.03955078,8.51907552 3.72802734,7.89192708 4.56298828,7.89192708 C4.91455078,7.89192708 5.05371094,7.62102865 5.08666992,7.53938802 C5.11962891,7.4577474 5.21118164,7.16829427 4.9621582,6.91595052 C4.37988281,6.32591146 4.33227539,5.36848958 4.85229492,4.73763021 C5.18188477,4.33684896 5.55175781,3.96204427 5.94726563,3.6280599 C6.58081055,3.0936849 7.50732422,3.14192708 8.09692383,3.74309896 C8.34594727,3.99544271 8.6315918,3.90266927 8.7121582,3.8655599 C8.79272461,3.83216146 9.06005859,3.69114583 9.06005859,3.33860677 C9.06005859,2.49251302 9.67895508,1.79485677 10.4992676,1.71692708 C11.0119629,1.6686849 11.5429688,1.6686849 12.0556641,1.71692708 C12.8759766,1.79485677 13.494873,2.49251302 13.494873,3.33860677 C13.494873,3.69485677 13.762207,3.8358724 13.8427734,3.86927083 C13.9233398,3.90266927 14.2089844,3.99544271 14.4580078,3.7468099 C15.0402832,3.15677083 15.9851074,3.10852865 16.607666,3.63177083 C17.0068359,3.96946615 17.376709,4.34427083 17.7026367,4.74505208 C18.2226562,5.3796224 18.1713867,6.33704427 17.5891113,6.9233724 C17.3400879,7.17571615 17.4316406,7.46516927 17.4682617,7.5468099 C17.5012207,7.62845052 17.6403809,7.89934896 17.9882813,7.89934896 C18.8232422,7.89934896 19.5117188,8.5264974 19.5922852,9.3577474 C19.6179199,9.61751302 19.6289062,9.88098958 19.6289062,10.1481771 C19.6289062,10.4153646 19.6179199,10.6788411 19.5922852,10.9386068 C19.5153809,11.7698568 18.8269043,12.3970052 17.9919434,12.3970052 C17.6403809,12.3970052 17.5012207,12.6679036 17.4682617,12.7495443 C17.4353027,12.8311849 17.34375,13.120638 17.5891113,13.3729818 C18.1713867,13.9630208 18.2189941,14.9204427 17.6989746,15.5513021 C17.3730469,15.9520833 17.0031738,16.326888 16.6040039,16.6608724 C15.9777832,17.1878255 15.032959,17.1358724 14.4543457,16.5458333 C14.2053223,16.2934896 13.9196777,16.386263 13.8391113,16.4233724 C13.7585449,16.4567708 13.4912109,16.5977865 13.4912109,16.9503255 C13.4912109,17.7964193 12.8723145,18.4940755 12.052002,18.5720052 C11.7956543,18.5979818 11.5393066,18.6091146 11.2756348,18.6091146 Z M8.48144531,15.317513 C8.69018555,15.317513 8.90258789,15.3583333 9.10766602,15.4473958 C9.71923828,15.7034505 10.1000977,16.2823568 10.1000977,16.9540365 C10.1000977,17.2472005 10.3161621,17.4995443 10.5944824,17.5255208 C11.0449219,17.5700521 11.5100098,17.5700521 11.9567871,17.5255208 C12.2351074,17.4995443 12.4511719,17.2509115 12.4511719,16.9577474 C12.4511719,16.2860677 12.8320313,15.7071615 13.4436035,15.4511068 C14.0588379,15.1950521 14.7290039,15.3286458 15.1977539,15.8036458 C15.402832,16.0114583 15.7324219,16.030013 15.9448242,15.851888 C16.2963867,15.558724 16.6186523,15.2284505 16.9042969,14.8796224 C17.0837402,14.6606771 17.0617676,14.3304036 16.8566895,14.1225911 C16.3879395,13.6475911 16.2561035,12.9684896 16.5087891,12.3450521 C16.7614746,11.7253255 17.3327637,11.339388 17.9956055,11.339388 C18.2849121,11.339388 18.5339355,11.1204427 18.5595703,10.8384115 C18.581543,10.6120443 18.5925293,10.3819661 18.5925293,10.1481771 C18.5925293,9.91438802 18.581543,9.6843099 18.5595703,9.45794271 C18.5339355,9.17591146 18.2849121,8.95696615 17.9992676,8.95696615 C17.3364258,8.95696615 16.7651367,8.57102865 16.5124512,7.95130208 C16.2597656,7.33157552 16.3916016,6.64876302 16.8603516,6.17376302 C17.0654297,5.96595052 17.0874023,5.63567708 16.907959,5.41673177 C16.6223145,5.06419271 16.2963867,4.73763021 15.9484863,4.44446615 C15.7324219,4.26634115 15.4064941,4.28489583 15.201416,4.49270833 C14.732666,4.96770833 14.0588379,5.10501302 13.4472656,4.8452474 C12.8356934,4.58919271 12.454834,4.01028646 12.454834,3.33860677 C12.454834,3.04544271 12.2387695,2.79309896 11.9604492,2.7671224 C11.5136719,2.72259115 11.048584,2.72259115 10.5981445,2.7671224 C10.3198242,2.79309896 10.1037598,3.04173177 10.1037598,3.33489583 C10.1037598,4.00657552 9.72290039,4.58548177 9.11132813,4.84153646 C8.49975586,5.09759115 7.82592773,4.9639974 7.35717773,4.4889974 C7.15209961,4.2811849 6.82617188,4.26263021 6.61010742,4.44075521 C6.26220703,4.73391927 5.93994141,5.06048177 5.65063477,5.41302083 C5.47119141,5.63196615 5.49316406,5.96223958 5.69824219,6.17005208 C6.16699219,6.64505208 6.30249023,7.32415365 6.04614258,7.94388021 C5.79345703,8.56360677 5.22216797,8.94954427 4.55932617,8.94954427 C4.27001953,8.94954427 4.02099609,9.16848958 3.99536133,9.45052083 C3.97338867,9.67688802 3.96240234,9.90696615 3.96240234,10.1407552 C3.96240234,10.3745443 3.97338867,10.6046224 3.99536133,10.8309896 C4.02099609,11.1130208 4.26635742,11.3319661 4.55566406,11.3319661 C5.22216797,11.3319661 5.78979492,11.7179036 6.04248047,12.3376302 C6.29516602,12.9573568 6.16333008,13.6401693 5.69458008,14.1114583 C5.48950195,14.3192708 5.47119141,14.6495443 5.64697266,14.8684896 C5.9362793,15.2210286 6.25854492,15.5475911 6.60644531,15.8407552 C6.81884766,16.0188802 7.1484375,16.0003255 7.35351563,15.792513 C7.66845703,15.4807943 8.06762695,15.317513 8.48144531,15.317513 Z" id="形状" fill="#0CCA98" fill-rule="nonzero"></path>
                    <path d="M11.2756348,13.8702474 C9.24682617,13.8702474 7.59887695,12.2003255 7.59887695,10.1444661 C7.59887695,8.08860677 9.24682617,6.4186849 11.2756348,6.4186849 C13.3044434,6.4186849 14.9523926,8.08860677 14.9523926,10.1444661 C14.9523926,12.2003255 13.3007812,13.8702474 11.2756348,13.8702474 Z M11.2756348,7.47630208 C9.82543945,7.47630208 8.64257813,8.6749349 8.64257813,10.1444661 C8.64257813,11.6139974 9.82543945,12.8126302 11.2756348,12.8126302 C12.7258301,12.8126302 13.9086914,11.6139974 13.9086914,10.1444661 C13.9086914,8.6749349 12.7258301,7.47630208 11.2756348,7.47630208 Z" id="形状" fill="#0CCA98" fill-rule="nonzero"></path>
                </g>
            </g>
        </g>
    </g>
</svg>