<?xml version="1.0" encoding="UTF-8"?>
<svg width="18px" height="20px" viewBox="0 0 18 20" version="1.1" xmlns="http://www.w3.org/2000/svg" xmlns:xlink="http://www.w3.org/1999/xlink">
    <!-- Generator: Sketch 52.5 (67469) - http://www.bohemiancoding.com/sketch -->
    <title>tubiaozhizuomoban--6 copy</title>
    <desc>Created with Sketch.</desc>
    <defs>
        <polygon id="path-1" points="0.00198895028 0.0115100671 10.9166851 0.0115100671 10.9166851 11.6590662 0.00198895028 11.6590662"></polygon>
    </defs>
    <g id="Page-1" stroke="none" stroke-width="1" fill="none" fill-rule="evenodd">
        <g id="班级管理" transform="translate(-289.000000, -197.000000)">
            <g id="tubiaozhizuomoban--6-copy" transform="translate(289.000000, 197.000000)">
                <g id="分组" transform="translate(0.132597, 0.000000)" fill="#A87DFF">
                    <path d="M14.3903536,19.966443 C14.8737348,19.9691946 15.3124641,19.6806711 15.5064199,19.2323826 C15.9412707,19.4339597 16.4540221,19.3395973 16.7909503,18.9960403 L16.8886077,18.897047 C17.2233149,18.557953 17.3162983,18.0448993 17.1222099,17.6077181 C17.5627293,17.4124161 17.8472155,16.9715772 17.8472155,16.4847651 C17.8472155,15.9979195 17.5627293,15.5572148 17.1222099,15.3617785 C17.3162983,14.9245973 17.2233149,14.4115436 16.8886077,14.0725839 L16.7909503,13.9708725 C16.4559779,13.6321477 15.9491602,13.5380201 15.5172928,13.734396 C15.3260552,13.2889597 14.8918674,13.0007047 14.412,13.0004698 C13.932232,13.0007047 13.4980442,13.2889597 13.3068066,13.734396 C12.8749724,13.5380201 12.3681215,13.6321477 12.0331492,13.9708725 L11.9353923,14.0698322 C11.6007845,14.4087919 11.5078011,14.9218456 11.7019227,15.3591611 C11.2614033,15.5544631 10.9769171,15.9951678 10.9769171,16.4820134 C10.9769171,16.9688255 11.2614033,17.4096644 11.7019227,17.6049664 C11.498221,18.0362416 11.5781105,18.5499664 11.9028729,18.897047 L12.000663,18.9960403 C12.3355028,19.3347315 12.8423204,19.4288591 13.2741878,19.2323826 C13.467116,19.6815772 13.9064751,19.9706376 14.3903536,19.966443 Z M13.266,15.6230201 C13.3351492,15.5119799 13.428,15.4181208 13.5376906,15.3481544 C13.7935359,15.1747315 14.0933039,15.0792953 14.4012597,15.0731208 C15.4331271,15.0703691 16.2232707,16.2469799 15.5254807,17.3466107 C15.4561989,17.4575168 15.3634807,17.5515101 15.2539227,17.6215101 C14.9987072,17.7945302 14.6999669,17.8898322 14.3930718,17.8963758 C13.3502983,17.8963758 12.5709282,16.725302 13.2606961,15.6092617 L13.266,15.6230201 Z" id="Fill-1"></path>
                    <path d="M0.00053038674,9.94087248 C0.438696133,12.3989262 1.93027624,14.5341275 4.0738674,15.7714094 C4.40068508,15.9598993 4.55257459,16.3544631 4.43771271,16.7170134 C3.92443094,17.4097987 3.65830939,18.641443 3.54424309,19.3066779 C3.5241547,19.4246644 3.55680663,19.5456376 3.63331492,19.6368792 C3.70985635,19.7281208 3.82249724,19.7804362 3.94074033,19.7794966 L11.443989,19.7602349 L11.4955028,19.7602349 C11.5213923,19.7591946 11.5443315,19.7427852 11.553779,19.7182886 C11.5630939,19.6937919 11.5573923,19.6659732 11.5390276,19.6475168 C11.5142983,19.6288926 11.4905967,19.6086913 11.4683204,19.5870805 L11.3596906,19.4826174 C10.9951823,19.1150336 10.7908177,18.6152349 10.7921105,18.0942953 L10.7921105,17.9760738 C10.3909724,17.5914765 10.1636022,17.0566779 10.1636022,16.4972148 C10.1636022,15.9377517 10.3909724,15.4029195 10.7921105,15.0181879 L10.7921105,14.8999664 C10.7872044,14.3743289 10.9918011,13.8688591 11.3596906,13.4980537 L11.4574475,13.3990604 C11.8205304,13.0299329 12.3142541,12.8230872 12.8288619,12.8245302 L12.9456464,12.8245302 C13.3236464,12.4188591 13.8502541,12.1890604 14.4012597,12.1894631 C14.6566077,12.1899664 14.9095028,12.2413423 15.1452928,12.3407047 C15.3375912,12.427349 15.5634033,12.3480537 15.6611602,12.1592953 C16.2728619,10.9125839 16.5678564,9.53124161 16.5192928,8.14020134 C16.414674,5.31432886 14.9180221,2.72949664 12.5333702,1.25654362 C10.1486851,-0.216442953 7.19337017,-0.38147651 4.66316022,0.816879195 C5.54522652,2.63526846 5.52321547,4.76939597 4.60372376,6.56865772 C3.68423204,8.36802013 1.97625414,9.61919463 0.00053038674,9.94087248 Z M6.21908287,9.50369128 C6.42175691,9.50369128 6.61067403,9.60701342 6.72152486,9.7785906 C6.87092818,9.61446309 7.10350276,9.55798658 7.31028729,9.63583893 C7.51697238,9.71355705 7.65669613,9.91020134 7.66379006,10.1332886 C7.66561326,10.7786242 8.15300552,11.3161745 8.78801105,11.3730537 C9.26933702,11.1428859 9.57686188,10.6529195 9.57828729,10.1140268 C9.57752486,9.88815436 9.70067403,9.68053691 9.89787845,9.57489933 C10.0950829,9.46936242 10.3338564,9.48312081 10.5178674,9.6109396 C10.5655359,9.59691275 10.6148619,9.58942953 10.6645856,9.58892617 C10.8085856,9.58892617 10.9467514,9.64684564 11.0486519,9.75 C11.1504199,9.85305369 11.2076685,9.99291946 11.2076685,10.1387919 C11.2044199,11.2084228 10.4839558,12.1392617 9.45878453,12.3983893 C8.66035359,12.8515436 7.68427624,12.8417114 6.89476243,12.3728188 C6.10514917,11.9039597 5.62060773,11.0461409 5.62176796,10.1195302 C5.62020994,9.95711409 5.68276243,9.80100671 5.79540331,9.68540268 C5.90807735,9.5697651 6.06149171,9.50449664 6.2218011,9.50369128 L6.21908287,9.50369128 Z" id="Fill-3"></path>
                </g>
                <path d="M10.9139669,10.1112752 C10.9157901,11.0600336 10.4096022,11.9354027 9.59138122,12.3983893 C10.6165525,12.1379195 11.3358564,11.2058054 11.337547,10.1360403 C11.337547,9.99016779 11.2802983,9.85030201 11.1785304,9.74724832 C11.0766298,9.64409396 10.9384641,9.58614094 10.7944641,9.58614094 C10.7447403,9.58667785 10.6954144,9.59416107 10.6477459,9.60818792 C10.8136243,9.72063758 10.913337,9.90912752 10.9139669,10.1112752 Z M8.33416575,11.5076846 C8.53796685,11.5082215 8.73948066,11.4622148 8.92335912,11.3730537 C8.28832044,11.3161745 7.80092818,10.7786242 7.79910497,10.1332886 C7.79201105,9.91020134 7.65228729,9.71355705 7.44560221,9.63583893 C7.23881768,9.55798658 7.00624309,9.61446309 6.85683978,9.7785906 C6.92234254,9.87795302 6.95731492,9.99459732 6.95731492,10.1140268 C6.95887293,10.8830872 7.57432044,11.5062416 8.33416575,11.5076846 Z" id="Fill-4" fill="#A87DFF"></path>
                <path d="M8.33416575,12.7255705 C8.77405525,12.7275503 9.20704972,12.6147987 9.59138122,12.3983893 C8.90224309,12.5771812 8.1701105,12.422651 7.60889503,11.9799664 C7.04767956,11.5371812 6.72086188,10.8562081 6.72371271,10.1360403 C6.72513812,10.0055034 6.77227624,9.87989933 6.85683978,9.78134228 C6.71128177,9.55587248 6.43650829,9.45442953 6.18179006,9.53187919 C5.92697238,9.60936242 5.75293923,9.84741611 5.75436464,10.1167785 C5.75734807,11.5573826 6.91093923,12.7239933 8.33416575,12.7255705 Z M10.2594033,10.1305369 C10.2618564,9.88815436 10.4207403,9.67607383 10.6504641,9.60818792 C10.466453,9.48050336 10.2276796,9.46661074 10.0304751,9.57214765 C9.83327072,9.67778523 9.71012155,9.88540268 9.71088398,10.1112752 C9.70945856,10.6501678 9.4019337,11.1401342 8.92060773,11.370302 L9.02655249,11.370302 C9.70428729,11.370302 10.2549945,10.8165101 10.2594033,10.1305369 Z" id="Fill-5" fill="#FFFFFF"></path>
                <g id="分组" transform="translate(0.000000, 0.805369)">
                    <mask id="mask-2" fill="white">
                        <use xlink:href="#path-1"></use>
                    </mask>
                    <g id="Clip-7"></g>
                    <path d="M9.02655249,11.6589597 C9.21689503,11.6608054 9.40660773,11.6386577 9.59138122,11.5930201 C10.4080773,11.1322819 10.9150276,10.2605705 10.9166851,9.31416107 C10.914895,9.11097315 10.8129613,8.92221477 10.6450276,8.81107383 C10.4153039,8.87895973 10.2564199,9.09107383 10.2539669,9.33342282 C10.2525414,10.0205705 9.70259669,10.5771477 9.02383425,10.5787248 L8.9178895,10.5787248 C8.49162431,10.7847651 7.99064088,10.7546309 7.59142541,10.4988926 C7.19207735,10.2432886 6.95058564,9.79785235 6.95187845,9.31966443 C6.95187845,9.2002349 6.91690608,9.0835906 6.85140331,8.98422819 C6.76697238,9.08278523 6.71970166,9.20838926 6.71840884,9.33892617 C6.72732597,10.6228859 7.7580663,11.659094 9.02655249,11.6589597 Z" id="Fill-6" fill="#FFFFFF" mask="url(#mask-2)"></path>
                    <path d="M0,7.64822148 C0.000895027624,8.14701342 0.0454475138,8.64473154 0.133127072,9.13550336 C2.10885083,8.8138255 3.81682873,7.56265101 4.73632044,5.76328859 C5.65581215,3.96402685 5.6778232,1.82989933 4.79575691,0.0115100671 C1.86918232,1.39993289 0,4.37654362 0,7.64822148 Z" id="Fill-8" fill="#B997FC" mask="url(#mask-2)"></path>
                </g>
            </g>
        </g>
    </g>
</svg>