<?xml version="1.0" encoding="UTF-8"?>
<svg width="20px" height="20px" viewBox="0 0 20 20" version="1.1" xmlns="http://www.w3.org/2000/svg" xmlns:xlink="http://www.w3.org/1999/xlink">
    <!-- Generator: Sketch 52.5 (67469) - http://www.bohemiancoding.com/sketch -->
    <title>分组 18</title>
    <desc>Created with Sketch.</desc>
    <g id="Page-1" stroke="none" stroke-width="1" fill="none" fill-rule="evenodd">
        <g id="同步辅导-" transform="translate(-166.000000, -1723.000000)">
            <g id="分组-18" transform="translate(166.000000, 1723.000000)">
                <g id="分组-7">
                    <g id="排名-copy-2">
                        <g id="分组">
                            <path d="M13.3903059,19.9505596 C12.8180706,19.9505596 12.3245176,19.5706083 12.1035712,18.9586375 L9.24795817,11.0481752 C8.90859085,10.1076399 9.39578562,9.06666667 10.3336157,8.72642336 L13.7034458,7.50403893 C13.8997542,7.43318735 14.1071895,7.39659367 14.3154196,7.39659367 C15.0768105,7.39659367 15.7611085,7.87698297 16.0194092,8.59250608 L18.8750222,16.5029684 C19.0498719,16.9880292 19.0021856,17.4777616 18.743885,17.8468127 C18.4951216,18.2018491 18.080251,18.4058394 17.6049778,18.4058394 C17.5191425,18.4058394 17.4309229,18.3996107 17.3427033,18.3863747 L16.1696209,18.2150852 C16.1438097,18.2116668 16.1177777,18.2101054 16.0917336,18.2104136 C15.780978,18.2104136 15.4074355,18.3855961 15.266761,18.5436496 L14.4831166,19.4211192 C14.1779244,19.7629197 13.7900761,19.9505596 13.3903061,19.9505596 L13.3903059,19.9505596 Z M14.3162144,9.04486618 C14.2977697,9.04473811 14.2794557,9.04790418 14.2621699,9.05420925 L10.8923399,10.2765937 C10.8076987,10.309892 10.7644155,10.4022187 10.7937882,10.4868126 L13.5174693,18.0313382 L14.0412235,17.4442822 C14.5125229,16.916399 15.3367007,16.5621411 16.0917333,16.5621411 C16.1998222,16.5621411 16.3055268,16.569927 16.4064627,16.5839416 L17.1972601,16.6999513 L14.4727843,9.15309002 C14.4487244,9.08845961 14.3864309,9.04509149 14.3162144,9.04408759 L14.3162144,9.04486618 Z" id="形状" fill="#7FD4F6" fill-rule="nonzero"></path>
                            <path d="M5.4251085,19.9964964 C4.98321569,19.9964964 4.57311373,19.7722628 4.27110065,19.3658394 L3.56216471,18.4128467 C3.40877386,18.2072993 2.98992941,18.0048662 2.71573333,18.0048662 L2.6918902,18.0048662 L1.51880784,18.0702676 C1.48387518,18.0722829 1.44889109,18.0733214 1.41389805,18.073382 C0.891733347,18.073382 0.449045765,17.8475912 0.200282367,17.4551825 C-0.0524548882,17.056545 -0.0667607706,16.5473479 0.162133347,16.0576156 L3.72429805,8.43990268 L3.72429815,8.43990246 C4.01676652,7.80862265 4.65705907,7.40139394 5.364706,7.39659346 C5.62936482,7.39659346 5.89084456,7.45420903 6.12927593,7.56788299 L9.37432691,9.09158129 C9.81145109,9.29635015 10.1420759,9.65995112 10.3065936,10.1169828 C10.4711112,10.5724572 10.4496524,11.0653039 10.2446014,11.5028708 L6.68243672,19.1198051 C6.42652038,19.6687102 5.9560158,19.9964961 5.42510861,19.9964961 L5.4251085,19.9964964 Z M2.71573333,16.3565937 C3.50812026,16.3565937 4.41813333,16.8073966 4.87989542,17.4279319 L5.35755294,18.0702676 L8.75599477,10.8029197 C8.77410264,10.7632749 8.77553045,10.718236 8.75996863,10.6775669 C8.74608199,10.6367119 8.71600934,10.6030431 8.67651765,10.5841363 L5.43146667,9.05965937 C5.41072796,9.04951816 5.3878844,9.04418998 5.36470589,9.0440876 C5.29979841,9.04429137 5.24089841,9.08134137 5.21369935,9.13907543 L1.81684706,16.403309 L2.60049151,16.359708 C2.6394353,16.3573723 2.67758432,16.3565937 2.71573334,16.3565937 Z" id="形状" fill="#7FD4F6" fill-rule="nonzero"></path>
                            <path d="M8.56763399,0.319221411 C9.10092549,-0.105888078 9.97358431,-0.105888078 10.5068758,0.319221411 C11.0393725,0.743552311 12.0296575,1.00360097 12.7083922,0.896155718 C13.386332,0.789489051 14.1413647,1.21693431 14.3861542,1.84603406 C14.6309438,2.47435523 15.3557752,3.18520681 15.9979503,3.42501217 C16.6401255,3.66481752 17.0764549,4.40447689 16.9675712,5.06861314 C16.8578928,5.73352798 17.1241412,6.70364964 17.5572915,7.22530414 C17.9904418,7.74773723 17.9904418,8.60262774 17.5572915,9.12506083 C17.1233464,9.64671533 16.8578928,10.616837 16.9675712,11.2817518 C17.0764549,11.9458881 16.6401255,12.6855474 15.9979503,12.9253528 C15.3565699,13.1651582 14.6309438,13.8752311 14.3861542,14.5043309 C14.1413647,15.1334307 13.386332,15.5608759 12.7083922,15.4542092 C12.0296575,15.346764 11.0393725,15.6075912 10.5068758,16.0319221 C9.97358431,16.456253 9.10092549,16.456253 8.56763399,16.0319221 C8.03513725,15.6068127 7.04485229,15.346764 6.36611765,15.4542092 C5.68817778,15.5608759 4.9331451,15.1334307 4.68835556,14.5043309 C4.44356601,13.8760097 3.71873464,13.1651582 3.07655948,12.9253528 C2.43438431,12.6855474 1.9980549,11.9458881 2.10693856,11.2817518 C2.21661699,10.616837 1.95036863,9.64671533 1.5172183,9.12506083 C1.08406797,8.60262774 1.08406797,7.74773723 1.5172183,7.22530414 C1.9511634,6.70364964 2.21661699,5.73352798 2.10693856,5.06861314 C1.9980549,4.40447689 2.43438431,3.66481752 3.07655948,3.42501217 C3.71793987,3.18520681 4.44356601,2.47513382 4.68835556,1.84603406 C4.9331451,1.21693431 5.68817778,0.789489051 6.36611765,0.896155718 C7.04485229,1.00360097 8.03513725,0.742773723 8.56763399,0.318442822 L8.56763399,0.319221411 Z" id="路径" fill="#00AAEE"></path>
                        </g>
                    </g>
                    <text id="3" font-family="PingFangSC-Semibold, PingFang SC" font-size="10" font-weight="500" fill="#FFFFFF">
                        <tspan x="6.4" y="11.6">3</tspan>
                    </text>
                </g>
            </g>
        </g>
    </g>
</svg>