<?xml version="1.0" encoding="UTF-8"?>
<svg width="14px" height="14px" viewBox="0 0 14 14" version="1.1" xmlns="http://www.w3.org/2000/svg" xmlns:xlink="http://www.w3.org/1999/xlink">
    <!-- Generator: Sketch 56.2 (81672) - https://sketch.com -->
    <title>形状 copy 34</title>
    <desc>Created with Sketch.</desc>
    <g id="Page-1" stroke="none" stroke-width="1" fill="none" fill-rule="evenodd">
        <g id="系统管理" transform="translate(-260.000000, -775.000000)" fill="#FFFFFF" fill-rule="nonzero">
            <g id="形状-copy-34备份" transform="translate(260.000000, 775.000000)">
                <path d="M7,12.9705882 C10.2974648,12.9705882 12.9705882,10.2974648 12.9705882,7 C12.9705882,3.70253517 10.2974648,1.02941176 7,1.02941176 C3.70253517,1.02941176 1.02941176,3.70253517 1.02941176,7 C1.02941176,10.2974648 3.70253517,12.9705882 7,12.9705882 Z M7,14 C3.13400675,14 0,10.8659932 0,7 C0,3.13400675 3.13400675,0 7,0 C10.8659932,0 14,3.13400675 14,7 C14,8.85651543 13.2625021,10.6369928 11.9497475,11.9497475 C10.6369928,13.2625021 8.85651543,14 7,14 Z M7.51244445,6.48755555 L10.2959495,6.48755555 C10.5789647,6.48755555 10.8083939,6.71698474 10.8083939,7 C10.8083939,7.28301525 10.5789647,7.51244444 10.2959495,7.51244444 L7.51244445,7.51244444 L7.51244445,10.2959495 C7.51244445,10.4790283 7.41477309,10.6482 7.25622223,10.7397394 C7.09767136,10.8312788 6.90232864,10.8312788 6.74377778,10.7397394 C6.58522691,10.6482 6.48755556,10.4790283 6.48755556,10.2959495 L6.48755556,7.51244444 L3.70405051,7.51244444 C3.52097174,7.51244445 3.35179998,7.41477309 3.26026059,7.25622222 C3.1687212,7.09767136 3.1687212,6.90232863 3.26026059,6.74377777 C3.35179998,6.5852269 3.52097174,6.48755554 3.70405051,6.48755555 L6.48755556,6.48755555 L6.48755556,3.7040505 C6.48755556,3.52097174 6.58522691,3.35179998 6.74377778,3.26026059 C6.90232864,3.16872121 7.09767136,3.16872121 7.25622223,3.26026059 C7.41477309,3.35179998 7.51244445,3.52097174 7.51244445,3.7040505 L7.51244445,6.48755555 Z" id="形状-copy-33"></path>
            </g>
        </g>
    </g>
</svg>