<?xml version="1.0" encoding="UTF-8"?>
<svg width="20px" height="20px" viewBox="0 0 20 20" version="1.1" xmlns="http://www.w3.org/2000/svg" xmlns:xlink="http://www.w3.org/1999/xlink">
    <!-- Generator: Sketch 52.5 (67469) - http://www.bohemiancoding.com/sketch -->
    <title>上下移动-01</title>
    <desc>Created with Sketch.</desc>
    <g id="Page-1" stroke="none" stroke-width="1" fill="none" fill-rule="evenodd">
        <g id="地区管理" transform="translate(-708.000000, -406.000000)" fill="#999999" fill-rule="nonzero">
            <g id="上下移动-01" transform="translate(708.000000, 406.000000)">
                <path d="M4.86723391,17.4303873 L6.15202998,17.4303873 L6.15202998,18.7151834 L4.86723391,18.7151834 L4.86723391,17.4303873 Z M1,18.7138976 L1.0025696,17.4291015 L3.57216525,17.4329559 L3.57088046,18.717752 L1,18.7138976 Z M1.01284796,14.860804 L2.29764403,14.860804 L2.29764403,16.1456 L1.01284796,16.1456 L1.01284796,14.860804 Z M1.01284796,9.72163021 L8.72161737,9.72163021 L8.72161737,2.0128608 L1.01284796,2.0128608 L1.01284796,9.72163021 Z M2.29764403,3.29765863 L7.43681778,3.29765863 L7.43681778,8.43683238 L2.29764403,8.43683238 L2.29764403,3.29765863 Z M1.01284796,11.006428 L2.29764403,11.006428 L2.29764403,13.5760237 L1.01284796,13.5760237 L1.01284796,11.006428 Z M3.58244362,11.006428 L4.86723969,11.006428 L4.86723969,12.2912241 L3.58244362,12.2912241 L3.58244362,11.006428 Z M15.1456065,7.15203455 L19,7.15203455 L15.1456065,2.78372545 L14.4775127,2.02569596 L14.4646648,2 L14.4518168,2.02569596 L13.8608112,2.70663723 L10.0064177,7.15202401 L13.8608112,7.15202401 L13.8608112,13.5888536 L10.0064177,13.5888536 L14.4646625,18.6894885 L18.9999849,13.5888536 L15.1455915,13.5888536 L15.1455915,7.15202401 L15.1456065,7.15203455 Z M6.15203928,11.006428 L8.72163493,11.006428 L8.72163493,12.2912241 L6.15203928,12.2912241 L6.15203928,11.006428 Z M7.43683412,18.7280567 L8.61884654,18.7152075 L8.72163019,17.4432606 L7.43683412,17.4432606 L7.43683412,18.7280567 Z M7.43683535,13.5760237 L8.72163142,13.5760237 L8.72163142,16.1456194 L7.43683535,16.1456194 L7.43683535,13.5760237 Z" id="形状"></path>
            </g>
        </g>
    </g>
</svg>