<?xml version="1.0" encoding="UTF-8"?>
<svg width="20px" height="20px" viewBox="0 0 20 20" version="1.1" xmlns="http://www.w3.org/2000/svg" xmlns:xlink="http://www.w3.org/1999/xlink">
    <!-- Generator: Sketch 52.5 (67469) - http://www.bohemiancoding.com/sketch -->
    <title>形状 2</title>
    <desc>Created with Sketch.</desc>
    <g id="Page-1" stroke="none" stroke-width="1" fill="none" fill-rule="evenodd">
        <g id="地区管理" transform="translate(-398.000000, -147.000000)" fill="#999999" fill-rule="nonzero">
            <g id="形状-2" transform="translate(398.000000, 147.000000)">
                <path d="M9.89863943,8.56122044 C9.9155692,8.55694227 9.93945232,8.55321775 9.95547518,8.54883894 C9.89198843,8.49830645 9.83998946,8.45416582 9.81701364,8.42275894 C9.84543159,8.46871149 9.87566335,8.51491571 9.89863969,8.56122047 L9.89863943,8.56122044 Z M13.380837,12.3245689 C13.3853483,12.3245689 13.3853483,12.3187686 13.3853483,12.3155462 C13.368592,12.3078125 13.3105892,12.3078125 13.2983441,12.2891227 C13.3170339,12.3078125 13.3615028,12.3078125 13.380837,12.3245689 Z M13.4136783,12.2858235 C13.3813853,12.2733942 13.3088459,12.2960104 13.2801557,12.2457808 C13.2624345,12.3924329 13.2891497,12.4477879 13.4136783,12.2858235 Z M10,1 C5.02935407,1 1,5.0293584 1,9.999971 C1,14.9705062 5.02935407,19 10,19 C14.9704912,19 19,14.9705062 19,9.999971 C19,5.0293584 14.9704912,1 10,1 Z M15.7486459,4.51571851 C15.4385404,4.5251285 15.222678,4.52571221 14.9735424,4.69763915 C14.8731457,4.76702907 14.8049941,4.85893549 14.6776062,4.89466463 C14.5633775,4.92682127 14.4400935,4.89862674 14.3267656,4.93708034 C13.917838,5.07585998 13.9826288,5.95169702 13.4438373,5.81940826 C13.1907398,5.75730586 13.0123756,5.45822064 12.8849867,5.26291025 C12.7727744,5.09108955 12.5684249,4.94896614 12.7064449,4.73391762 C12.6434935,4.75006671 12.5763679,4.73165356 12.5143715,4.74345142 C12.6006886,4.55392499 12.8901516,4.5704986 12.9383154,4.47362225 C13.0582573,4.23085567 12.6080985,4.20549078 12.4806226,4.17183078 C12.6342776,4.00807567 12.7120329,4.22692873 12.8637077,4.18976637 C13.0094563,4.15389511 12.7868007,3.96194647 12.6993869,3.94038303 C12.6680085,3.93261802 12.15481,4.08220499 12.4518446,3.81637275 C12.0851389,3.58260898 11.7186265,3.34895155 11.3518493,3.11502729 C11.2901008,3.37509374 11.8398956,3.5228938 12.0194799,3.61451715 C11.9915861,3.72190064 11.824541,3.87829803 11.6966397,3.83252019 C11.5761672,3.78930862 11.6250743,3.58968207 11.4431535,3.60974117 C11.3132532,3.91172794 11.7177757,3.82346517 11.7553628,4.00853332 C11.7980616,4.21939174 11.6024507,4.13003185 11.5272067,4.12638819 C11.5092889,4.12545072 11.3690412,3.98030343 11.3614886,4.09018087 C11.352397,4.2206826 11.5851356,4.16977668 11.6015499,4.30155169 C11.3304816,4.31251822 11.1920209,4.21465076 10.9713459,4.06805282 C10.713774,3.89709875 10.5816092,3.91252264 10.2660218,3.91252264 C10.3604047,3.87375061 10.4904113,3.84500773 10.5711214,3.78258687 C10.6151819,3.74846687 10.7881883,3.58034261 10.7995965,3.54280962 C10.848486,3.38084116 10.7969433,3.39313418 10.6419794,3.28697194 C10.5042258,3.19273051 10.3371641,3.0235449 10.1702429,2.99022134 C9.56549271,2.86950108 9.9837236,3.53623153 9.52466879,3.62815459 C9.53252219,3.62857911 9.54103014,3.62893286 9.54776922,3.62893286 L9.52146715,3.62893286 C9.52265226,3.62884442 9.52360744,3.62840223 9.52466871,3.62815459 C9.41847043,3.62435168 9.21944543,3.59852729 9.15101175,3.65463342 C9.10270598,3.69407758 9.0986555,3.85250776 9.04463655,3.90986975 C8.94855559,4.01231833 8.80528301,4.0327657 8.69061328,4.10664774 C8.57868403,4.17881449 8.33192039,4.36397236 8.2661918,4.48955735 C8.02393788,4.95241527 8.81205832,5.09607743 9.11084273,5.23135553 C9.24583703,5.29250273 9.64036653,5.37620221 9.71384302,5.47835088 C9.81240013,5.615521 9.62890555,5.74412917 9.83468691,5.84056523 C9.9004153,5.87127148 10.0359584,5.87755063 10.0925778,5.81392708 C10.1845551,5.71025802 10.0551854,5.68685689 10.0331285,5.56710961 C9.99046519,5.33660008 10.0607924,5.42818843 10.1767368,5.34252654 C10.4130121,5.16808795 10.359807,5.15740445 10.2747811,4.87942113 C10.2353194,4.75003372 10.086387,4.38884514 10.2173838,4.293314 C10.3881784,4.16870238 10.7524783,4.3608643 10.8834579,4.37692492 C11.0358748,4.39558571 11.1224227,4.6067983 11.205484,4.69318548 C11.2606703,4.75052988 11.3593338,4.87224073 11.455716,4.85908069 C11.6087164,4.83812053 11.5447039,4.70436417 11.6334266,4.64266898 C11.8714885,4.47756965 11.9341929,4.70185281 12.0290704,4.92617059 C12.1183237,5.13685112 12.2027835,5.21506693 12.3616212,5.35020388 C12.4354151,5.41311993 12.7587152,5.63763262 12.7282205,5.7760238 C12.707561,5.86925706 12.3382015,6.01063642 12.2394491,6.04192584 C11.8784378,6.15627839 11.2011683,5.85471663 11.1284517,6.42724084 C11.2685224,6.37509684 11.6669261,6.04962154 11.7864259,6.20387787 C11.8409225,6.27386913 11.7432144,6.37580473 11.7662263,6.44531801 C11.8343778,6.65369949 11.9951075,6.58110832 12.1636567,6.54743052 C12.1521596,6.55459416 12.1403794,6.56083801 12.1279448,6.56642739 C12.358224,6.44809492 12.334292,6.47273432 12.4399608,6.28080269 C12.4744522,6.21808116 12.5257827,6.06631879 12.5743892,6.02142653 C12.7417877,5.86743531 12.7675768,5.97347457 12.8712632,6.09226684 C12.8984319,6.12355684 13.1548012,6.49272188 13.0635486,6.47432567 C12.7653134,6.41450511 12.4789987,6.42253532 12.2316672,6.58560052 C12.0891732,6.6797182 11.954392,6.80671665 11.7841973,6.86922588 C11.7434089,6.88411914 11.4413347,6.91273832 11.4770462,6.86124861 C11.5291725,6.7861455 11.7085803,6.73642468 11.7793691,6.65534405 C11.5831559,6.57454554 11.4195257,6.75296386 11.2653585,6.85726927 C11.1017629,6.93465402 11.0637158,7.07889974 10.9244237,7.20536839 C10.8636302,7.26050172 10.7486235,7.26989396 10.6889083,7.34244995 C10.630998,7.41286564 10.6237815,7.52359231 10.5689135,7.5904353 C10.5304068,7.63723756 10.4317081,7.60897228 10.3915213,7.67951192 C10.3391651,7.77166623 10.4394379,7.85722273 10.4174518,7.92360495 C10.377194,8.04423685 10.1477466,8.14659667 10.0595014,8.23344404 C10.0712816,8.22212376 10.082991,8.21046734 10.0945236,8.19863413 C10.006084,8.29142517 9.89418991,8.35966519 9.82515488,8.4670305 C9.85685167,8.61859855 9.95680619,8.98010579 9.92892998,9.06329093 C9.83695269,9.33692348 9.65832187,8.91446453 9.58585471,8.80531276 C9.33693183,8.43025741 8.83942444,8.68123172 8.4995512,8.71236258 C8.06488748,8.75212501 7.63913956,9.31622977 7.90727074,9.77411642 C8.0359681,9.99371275 8.2524691,10.0787213 8.50082544,10.0279026 C8.72185432,9.98263905 8.78821906,9.67341871 8.99635282,9.66779389 C9.37885403,9.65760562 9.00477228,10.0426017 8.97167807,10.1838933 C8.94107801,10.3147665 9.01938248,10.326865 9.1540937,10.3593047 C9.25358841,10.3830773 9.39447204,10.3167297 9.48071991,10.3735258 C9.53503953,10.4093968 9.53243943,10.6057678 9.60717101,10.5438253 C9.46006044,10.6657837 9.49442811,10.9549287 9.64525311,11.0594104 C9.81247477,11.1754257 10.0093775,11.0679891 10.18447,11.112545 C10.5150214,11.1968988 10.3572457,11.0873396 10.6475227,10.9120874 C10.8434342,10.7940204 10.8755918,10.9343388 11.0094718,10.9348872 C11.1005998,10.9352587 11.1585103,10.8038724 11.3108743,10.8420963 C11.4350789,10.8734041 11.484163,10.9692726 11.6324577,10.9913471 C11.6932511,11.0003149 11.7560434,10.9684766 11.8140243,10.974862 C12.088312,11.0053384 12.298302,11.1805906 12.514466,11.3390738 C12.6925834,11.469487 12.8105627,11.4430613 13.0186249,11.5025458 C13.1706526,11.5458635 13.4511133,11.7658491 13.436768,11.9590016 C13.4342033,11.9935462 13.3013139,12.1672245 13.2786025,12.2454577 C13.3174983,12.2724142 13.5880352,12.2119391 13.6671888,12.2062613 C13.64117,12.2365431 13.4569687,12.3659657 13.4569687,12.2972481 C13.4569687,12.3324826 13.5872933,12.4048085 13.6190609,12.4272898 C13.7151416,12.1153102 13.8729705,12.3160504 14.0629227,12.3933467 C14.2244312,12.4591282 14.4232089,12.4626481 14.5954706,12.5036842 C14.741679,12.5384941 15.0641308,12.6372106 15.1724854,12.7567104 C15.3028984,12.9005487 15.2127432,13.134206 15.1162378,13.2773016 C14.989999,13.4648646 14.7996411,13.5370316 14.7208956,13.7577069 C14.6586695,13.9326231 14.705401,14.1093619 14.6698306,14.3032743 C14.6217547,14.5657635 14.5832306,14.4737507 14.4141865,14.633915 C14.2719403,14.7688032 14.4117987,14.7453667 14.2181513,14.831331 C14.0236377,14.9177722 13.8523466,14.8920538 13.7176719,15.105476 C13.7230667,15.0920686 13.7274534,15.0786079 13.7312032,15.0645638 C13.674372,15.1440889 13.645965,15.3069418 13.6190264,15.3603766 C13.5511223,15.4967331 13.4574825,15.5827322 13.3500812,15.6962709 C13.3089214,15.739748 12.9305594,16.2566438 12.9087137,16.2151122 C12.8806076,16.161111 12.5823002,16.2693435 12.5680612,16.1923124 C12.5799299,16.2570681 12.5652488,16.2353472 12.6393259,16.2726689 C12.5707143,16.6974795 12.3910585,16.7608395 11.973888,16.7651185 C12.0097592,16.9692906 11.8227269,16.9285552 11.7357913,17.0383257 C11.6849738,17.1024268 11.6607236,17.2826662 11.6254893,17.3656773 C11.6034856,17.4178037 11.4406327,17.6267164 11.4406327,17.668105 C11.4404736,17.7062403 11.4954124,17.7620987 11.5468664,17.8156755 C11.252769,17.8738511 10.9529056,17.9143918 10.6483553,17.9391374 C10.7053811,17.8673065 10.7190715,17.8041783 10.5374872,17.795529 C10.5860936,17.6634885 10.7001807,17.5881549 10.7485387,17.4602709 C10.77148,17.3999373 10.7525009,17.3760762 10.7719044,17.3162732 C10.8383403,17.1098911 10.8095267,17.1877349 10.7720636,17.0274291 C10.6843138,16.6516835 10.8032828,16.5489168 10.9057137,16.204886 C11.0108508,15.8513573 11.0010694,15.3930627 11.0684605,15.012222 C11.1004049,14.8299653 11.1527612,14.4507702 11.0894738,14.2785082 C11.0181737,14.0845069 10.7044782,13.9317181 10.5608162,13.8012702 C10.3574236,13.6159535 10.2492972,13.4157077 10.0982585,13.1866483 C10.0215989,13.0703324 9.9342029,12.9561736 9.87440078,12.8296875 C9.7464639,12.5592396 9.87448916,12.7201991 9.89599764,12.5605835 C9.91662191,12.4063445 9.87763757,12.2685025 9.9388733,12.1066046 C10.0066005,11.9276379 10.1756977,11.8160976 10.2312556,11.6356275 C10.2812594,11.4749855 10.2432127,11.2730419 10.0781666,11.2194485 C9.98618946,11.189432 9.88471455,11.2586096 9.79231207,11.2434156 C9.66343778,11.2225438 9.51756607,11.1263214 9.41644308,11.0494143 C9.275258,10.9418538 9.2223704,10.7670612 9.07204136,10.6650738 C8.94615641,10.5801008 8.8566547,10.6309538 8.72201483,10.5911912 C8.58160802,10.549819 8.49492027,10.3765835 8.38166399,10.3223346 C8.21170069,10.2410409 8.11592079,10.3577635 7.93649507,10.3341679 C7.78391901,10.3141981 7.55118049,10.1450837 7.40859936,10.0811939 C7.11867659,9.95141741 6.94215126,9.80819746 6.82622469,9.513976 C6.72694229,9.26164006 6.58221893,9.14396153 6.41177861,8.93381081 C6.23909126,8.72088345 6.18501856,8.53944079 5.91886931,8.48269754 C5.88761473,8.47590537 5.98399635,8.706221 5.99393695,8.72468683 C6.08904492,8.90078812 6.2318751,9.06166004 6.34674012,9.22562687 C6.51576602,9.46715596 6.44372309,9.51247167 6.27179642,9.27892059 C6.0751946,9.01174431 5.8470385,8.74607044 5.67649183,8.46311604 C5.6120193,8.35617476 5.62440086,8.28705013 5.51806104,8.18550416 C5.41531191,8.08740675 5.28083059,8.0396317 5.17737376,7.94631085 C4.80509545,7.61151293 4.73740427,7.16459169 4.77985434,6.6872995 C4.79365093,6.53173394 4.84984553,6.40731703 4.82506462,6.25774774 C4.80461747,6.13357833 4.73130088,6.03091783 4.63969504,5.93943564 C4.61019152,5.89242107 4.53611445,5.77665352 4.53181627,5.76929522 C4.44730323,5.62888827 4.38155724,5.49083449 4.24728823,5.37566771 C4.17025722,5.30930251 3.97094895,5.15421513 3.78328032,5.02429695 C4.62641145,3.97273122 5.72963389,3.13939864 6.99524711,2.62199984 C7.00531153,2.68562339 7.03263949,2.74914079 7.07360457,2.80993434 C7.17768034,2.96426182 7.27683861,2.95205698 7.4799663,2.99475576 C7.45819251,3.23051887 7.18263208,3.23239252 6.9960946,3.20681687 C6.77343957,3.17625217 6.53917911,3.10228098 6.34629365,3.29743224 C6.45282799,3.36149801 6.74522653,3.61095096 6.70636713,3.35028394 C6.91966552,3.3396004 7.12583668,3.33323275 7.33451958,3.35873877 C7.41813042,3.36899778 7.69827269,3.46300917 7.77420677,3.42015126 C7.8060627,3.40214494 7.84002353,3.24493439 7.87373687,3.19659299 C7.81425243,3.19692907 7.7504874,3.16691252 7.69123286,3.17259052 C7.82942861,2.99565797 7.96709455,3.13445521 8.14294699,3.21583767 C7.94933451,3.33348023 8.06416492,3.61544386 8.25344345,3.38634952 C8.40893808,3.19795521 8.21539675,3.06136846 8.01798224,2.95159833 C8.21705906,2.70258817 8.33981507,2.68012367 8.52712985,2.96116751 C8.55801298,2.78784324 8.69788921,2.85721537 8.84409776,2.87003916 L8.84409776,2.82668605 C8.77974898,2.82822488 8.71103145,2.79120402 8.64731998,2.79789 C8.79626998,2.56025324 8.70119739,2.50596759 8.91412472,2.42838794 C9.08369899,2.36663919 9.56744674,2.42412514 9.62705358,2.2647036 C9.28850678,2.33052043 8.87949023,2.34626279 8.57405619,2.50021921 C8.44236949,2.56658441 8.28547727,2.776116 8.15395049,2.63993626 C8.01915071,2.50021921 8.2503673,2.27556402 8.36866426,2.20707612 L8.34034584,2.20707612 C8.87600686,2.09314799 9.43077177,2.031983 9.9999516,2.031983 C10.3677188,2.031983 10.7291536,2.05918712 11.0839213,2.10765208 C10.9611494,2.17212467 11.0519414,2.21565471 10.9625112,2.28154231 C10.7917521,2.40712672 10.4886343,2.51192809 10.2854176,2.59131179 C10.5437146,2.59062194 11.1690188,2.83353117 11.2893675,2.47119287 C11.205969,2.4583868 11.1227826,2.4455277 11.0394546,2.43272151 C11.1951084,2.32951226 11.3687337,2.2459721 11.551025,2.18473615 C13.1959858,2.51060087 14.6591386,3.34496019 15.7721721,4.51576099 C15.7642302,4.51570791 15.7563414,4.51549566 15.7486471,4.51570791 L15.7486459,4.51571851 Z M17.2052478,7.67557839 C17.2200525,7.64395233 17.2546679,7.63351634 17.2689596,7.60742674 C17.2990291,7.55255869 17.2923253,7.5153432 17.3293461,7.46825806 C17.3689847,7.41736973 17.4224377,7.4048822 17.4666752,7.36511958 C17.4845223,7.34911199 17.4944452,7.33428939 17.5026348,7.31916636 C17.6353826,7.68964103 17.7412091,8.07270919 17.8181699,8.46600026 C17.8158351,8.46881266 17.8145262,8.47307546 17.8116254,8.47544564 C17.7922748,8.49074572 17.6661421,8.50947728 17.6402647,8.5103793 C17.5489241,8.51388152 17.4810556,8.45328259 17.4154691,8.39623886 C17.3487504,8.33827552 17.2701982,8.26074923 17.2227944,8.18571689 C17.1721539,8.10557271 17.2034084,8.02323544 17.2070344,7.93168325 C17.2100237,7.85472293 17.1725784,7.74495164 17.205248,7.67557873 L17.2052478,7.67557839 Z M17.3082268,11.8020999 C17.1536344,11.6677952 16.971254,11.4877671 16.8613409,11.3138055 C16.7439461,11.128312 16.8162897,10.9374411 16.8248861,10.7250088 C16.8320143,10.5463428 16.744742,10.2921138 16.8206587,10.1312601 C16.8555039,10.0578197 16.9354003,10.0335165 16.968282,9.97334212 C17.0381849,9.84591809 17.0226902,9.75979601 17.1084765,9.65025404 C17.2004892,9.53261148 17.3242171,9.5036387 17.4267361,9.41137785 C17.5341195,9.31466025 17.5311479,9.23833666 17.5991226,9.11441456 C17.6488609,9.02376381 17.7657961,8.87263797 17.8764867,8.79359072 C17.9365371,9.18705968 17.9678272,9.59000906 17.9678272,9.9999097 C17.9678272,10.7091616 17.8734443,11.3965504 17.6986867,12.0514915 C17.5497189,12.0130909 17.4271601,11.9056899 17.3082249,11.8021101 L17.3082268,11.8020999 Z" id="形状"></path>
            </g>
        </g>
    </g>
</svg>