<?xml version="1.0" encoding="UTF-8"?>
<svg width="20px" height="20px" viewBox="0 0 20 20" version="1.1" xmlns="http://www.w3.org/2000/svg" xmlns:xlink="http://www.w3.org/1999/xlink">
    <!-- Generator: Sketch 52.5 (67469) - http://www.bohemiancoding.com/sketch -->
    <title>地区</title>
    <desc>Created with Sketch.</desc>
    <g id="Page-1" stroke="none" stroke-width="1" fill="none" fill-rule="evenodd">
        <g id="地区管理" transform="translate(-398.000000, -363.000000)" fill="#999999" fill-rule="nonzero">
            <g id="地区" transform="translate(398.000000, 363.000000)">
                <path d="M14.1015777,2 C11.4859497,2 9.40235353,4.17265878 9.40235353,6.80469309 C9.40235353,8.82266419 10.6843863,11.1031356 11.7789188,12.6617312 C12.6156385,13.8781388 13.5062646,14.8882962 13.9070463,15.3382968 C13.9609526,15.3922031 14.0054839,15.4367344 14.1039215,15.4367344 C14.1578278,15.4367344 14.2562654,15.3828281 14.3007967,15.3382968 C14.7461097,14.8882962 15.5828295,13.8687638 16.4289242,12.6617312 C17.5140817,11.0937606 18.8054895,8.82266419 18.8054895,6.80469309 C18.800802,4.17265878 16.6726745,2 14.1015777,2 Z M14.1015777,9.68047769 C12.5172009,9.68047769 11.2351682,8.36563241 11.2351682,6.75078678 C11.2351682,5.13594115 12.5172009,3.82109587 14.1015777,3.82109587 C15.6859546,3.82109587 16.9679873,5.13594115 16.9679873,6.75078678 C16.9679873,8.36563241 15.6859546,9.68047769 14.1015777,9.68047769 Z M9.5078224,14.0234515 L2.38750161,13.212513 L3.42812783,9.62657137 C3.48203414,9.42735239 3.67656561,9.27500847 3.87344084,9.27500847 L9.160947,9.27500847 C9.40938479,9.97813428 9.70469763,10.6367288 10.051573,11.2929796 L9.5078224,14.0234515 Z M8.51172749,18.6734569 L1.48984432,18.6734569 C1.33750039,18.6734569 1.19687523,18.6195506 1.09843761,18.4742379 C1,18.3758003 1,18.2211126 1,18.0687687 L1.9867199,14.635171 L9.2054783,15.4461094 L8.51172749,18.6734569 Z M17.2703314,12.7086062 L17.9101759,14.9797026 L15.7820485,14.7265773 C16.1734552,14.2765768 16.5742369,13.7164199 17.0195499,13.1140754 C17.0734562,12.9687628 17.1718938,12.8609501 17.2703314,12.7086062 Z M18.3015826,16.4468918 L18.7468957,18.0148624 C18.7468957,18.0687687 18.800802,18.1133 18.800802,18.1672063 C18.800802,18.4203316 18.6039267,18.6711131 18.3015826,18.6711131 L9.99766672,18.6711131 L10.6375112,15.5890783 L18.3015826,16.4468918 Z" id="形状"></path>
            </g>
        </g>
    </g>
</svg>