<?xml version="1.0" encoding="UTF-8"?>
<svg width="20px" height="20px" viewBox="0 0 20 20" version="1.1" xmlns="http://www.w3.org/2000/svg" xmlns:xlink="http://www.w3.org/1999/xlink">
    <!-- Generator: Sketch 52.5 (67469) - http://www.bohemiancoding.com/sketch -->
    <title>管理员</title>
    <desc>Created with Sketch.</desc>
    <g id="Page-1" stroke="none" stroke-width="1" fill="none" fill-rule="evenodd">
        <g id="地区管理" transform="translate(-398.000000, -202.000000)" fill="#999999" fill-rule="nonzero">
            <g id="管理员" transform="translate(398.000000, 202.000000)">
                <path d="M10.7578229,17.7332752 L11.0460544,16.0575668 L9.82955373,14.8712611 C9.40726796,14.4623907 9.25645521,13.9093745 9.42404771,13.3966254 C9.59156112,12.8838957 10.0372741,12.5286458 10.6171209,12.4448302 L12.0883148,12.2303635 C12.0246812,12.1867736 11.9676758,12.1432629 11.9140741,12.0963092 C11.7297817,11.9354638 11.5990313,11.7645873 11.5185995,11.5902272 C11.438167,11.4159864 11.3912134,11.2350585 11.3811816,11.060797 C11.3711695,10.8831529 11.3811816,10.7088322 11.4147397,10.5379352 C11.438167,10.400537 11.4750097,10.283242 11.5186194,10.1860498 C11.5621895,10.0888579 11.6191947,10.0084254 11.6894965,9.93802547 C11.7598775,9.87098847 11.8370255,9.80399091 11.9308538,9.743701 C12.0246819,9.67996832 12.1185101,9.60630276 12.2223705,9.51245452 C12.3128349,9.43204168 12.3932476,9.32143457 12.4703948,9.1773488 C12.5407954,9.03656716 12.6078127,8.88911731 12.6647192,8.74166708 C12.7217046,8.57407458 12.7753263,8.39306679 12.8188964,8.21213828 C12.9328672,8.17860006 13.0401114,8.11831015 13.14399,8.02448202 C13.2345138,7.94397037 13.3148671,7.83346207 13.3920143,7.68929702 C13.462415,7.54523077 13.5194004,7.35757509 13.5528597,7.11629711 C13.5763069,6.93192545 13.5729432,6.78111211 13.5461323,6.65380415 C13.5193411,6.52641788 13.479115,6.42584285 13.4355251,6.3454304 C13.3920341,6.25160226 13.3282817,6.18120158 13.2478689,6.13769064 C13.2579996,5.68186666 13.231169,5.22273815 13.1607683,4.76699344 C13.1071663,4.37818596 13.0065714,3.96601097 12.8625053,3.52696673 C12.7183598,3.08790121 12.5038735,2.68577899 12.2190258,2.32047823 C12.0916398,2.1596131 11.9274898,2.00207298 11.7196901,1.84795378 C11.5186387,1.69377657 11.2806459,1.5563385 11.019303,1.42895319 C10.754499,1.30166592 10.4730138,1.2010905 10.171367,1.12065871 C9.86973958,1.04024587 9.54802981,1 9.21959112,1 C8.95486636,1 8.68341269,1.02683058 8.40521463,1.07040068 C8.12372946,1.12065871 7.84889392,1.19778676 7.57413767,1.31167866 C7.29932147,1.42564945 7.02784846,1.58315167 6.75978051,1.78420312 C6.49167195,1.98535317 6.25033404,2.24004644 6.03248351,2.54834285 C5.80462082,2.87680087 5.63034001,3.24882861 5.50972036,3.6610036 C5.38906165,4.07323853 5.30528512,4.46198608 5.26169607,4.82724623 C5.20140635,5.26294728 5.1812635,5.698629 5.19129539,6.13092692 C5.09746725,6.24826159 5.02714565,6.3655572 4.98357497,6.49284389 C4.93660154,6.60683459 4.90644672,6.74088945 4.88974684,6.89506666 C4.86960399,7.04926379 4.88974684,7.22680986 4.94665315,7.41782981 C5.00700222,7.61223355 5.07403942,7.75968378 5.15445284,7.8636223 C5.23486568,7.96748212 5.30863005,8.04791469 5.37895107,8.10490028 C5.45946272,8.16517027 5.5398162,8.20209209 5.62030832,8.22553926 C5.67721464,8.40646797 5.73420003,8.58417105 5.79118542,8.75504873 C5.84817082,8.90249857 5.90844081,9.04658473 5.97884169,9.19074978 C6.04924237,9.33483594 6.12629153,9.44542371 6.22011967,9.5258555 C6.41788593,9.68670091 6.58878295,9.84089823 6.74298143,9.98834846 C6.89707955,10.1357784 6.9842594,10.3469802 7.00768685,10.6216978 C7.01773846,10.7960573 7.0244659,10.9568828 7.0244659,11.1043331 C7.0244659,11.2551466 6.99767477,11.3958691 6.94733766,11.5332665 C6.89707963,11.6707044 6.8032515,11.8081021 6.6725814,11.9455208 C6.54183145,12.0829388 6.35753867,12.227006 6.11626069,12.3744543 C5.8213815,12.5688773 5.47614374,12.7163276 5.08068855,12.8202468 C4.68521403,12.9241265 2.96264683,13.5172694 2.5907003,13.6446567 C2.22203702,13.7686791 1.89694153,13.9395571 1.62212533,14.1574077 C1.35065232,14.3718744 1.17969729,14.6935648 1.10937434,15.1158506 C0.995403552,15.8465101 0.97195638,15.9637653 1.0322461,16.4329466 C1.09259517,16.8987827 1.18642331,17.1770021 1.31380861,17.2707312 C1.41768835,17.3478594 1.71258765,17.4416876 2.20523504,17.5522937 C2.69790177,17.6629008 5.79447261,18.2460525 9.39053578,18.2460525 C9.85967645,18.2460525 10.312136,18.2359217 10.7478177,18.2158582 C10.7276157,18.0583568 10.7309991,17.897511 10.75781,17.7332829 L10.7578229,17.7332752 Z M17.869357,13.6044097 L16.0764127,13.3429894 C15.8016564,13.302783 15.4765609,13.0681539 15.3525787,12.8168444 L14.5515963,11.1914733 C14.4912472,11.0674509 14.407431,11.003817 14.327098,11.003817 C14.2466655,11.003817 14.1661538,11.0674507 14.1025205,11.1914733 L13.301538,12.8168444 C13.1775156,13.0648687 12.8524604,13.3027648 12.5777041,13.3429894 L10.7847211,13.6044097 C10.5098856,13.6446161 10.446251,13.8356755 10.6473032,14.0300599 L11.9442163,15.2935334 C12.1420038,15.4878385 12.2659473,15.8698977 12.2190518,16.1447333 L11.9140406,17.9309699 C11.8805617,18.1286588 11.9576107,18.2460127 12.0950287,18.2460127 C12.1486504,18.2460127 12.2089995,18.2292336 12.2760366,18.1923909 L13.8779803,17.3478387 C14.0019039,17.2841852 14.162828,17.2506272 14.3236935,17.2506272 C14.484539,17.2506272 14.6487678,17.2841853 14.7693874,17.3478387 L16.3713311,18.1923909 C16.4383681,18.2292337 16.5020018,18.2460127 16.5523391,18.2460127 C16.6896582,18.2460127 16.7668058,18.1286385 16.7332678,17.9309699 L16.4283165,16.1447333 C16.3813628,15.8698977 16.5053655,15.4878385 16.7030728,15.2935334 L18.0000845,14.0300599 C18.204539,13.8356755 18.1441904,13.6446169 17.8693542,13.6044097 L17.869357,13.6044097 Z" id="形状"></path>
            </g>
        </g>
    </g>
</svg>