<?xml version="1.0" encoding="UTF-8"?>
<svg width="14px" height="14px" viewBox="0 0 14 14" version="1.1" xmlns="http://www.w3.org/2000/svg" xmlns:xlink="http://www.w3.org/1999/xlink">
    <!-- Generator: Sketch 52.5 (67469) - http://www.bohemiancoding.com/sketch -->
    <title>形状 copy 38</title>
    <desc>Created with Sketch.</desc>
    <g id="Page-1" stroke="none" stroke-width="1" fill="none" fill-rule="evenodd">
        <g id="教师首页" transform="translate(-482.000000, -751.000000)" fill="#26C486" fill-rule="nonzero">
            <g id="形状-copy-41" transform="translate(482.000000, 751.000000)">
                <path d="M7,12.9705882 C10.2974648,12.9705882 12.9705882,10.2974648 12.9705882,7 C12.9705882,3.70253517 10.2974648,1.02941176 7,1.02941176 C3.70253517,1.02941176 1.02941176,3.70253517 1.02941176,7 C1.02941176,10.2974648 3.70253517,12.9705882 7,12.9705882 Z M7,14 C3.13400675,14 4.57150657e-16,10.8659932 0,7 C-4.57150657e-16,3.13400675 3.13400675,6.85725986e-16 7,0 C10.8659932,-6.85725986e-16 14,3.13400675 14,7 C14,8.85651543 13.2625021,10.6369928 11.9497475,11.9497475 C10.6369928,13.2625021 8.85651543,14 7,14 Z M7.72470588,7 L9.69294118,8.96823529 C9.89306318,9.1683573 9.89306318,9.49281917 9.69294118,9.69294118 C9.49281917,9.89306318 9.1683573,9.89306318 8.96823529,9.69294118 L7,7.72470588 L5.03176471,9.69294118 C4.90230847,9.82239742 4.71362189,9.87295584 4.53678138,9.82557156 C4.35994087,9.77818729 4.22181271,9.64005913 4.17442844,9.46321862 C4.12704416,9.28637811 4.17760258,9.09769153 4.30705882,8.96823529 L6.27529412,7 L4.30705882,5.03176471 C4.17760258,4.90230847 4.12704416,4.71362189 4.17442843,4.53678138 C4.2218127,4.35994086 4.35994086,4.2218127 4.53678138,4.17442843 C4.71362189,4.12704416 4.90230847,4.17760258 5.03176471,4.30705882 L7,6.27529412 L8.96823529,4.30705882 C9.09769153,4.17760258 9.28637811,4.12704416 9.46321862,4.17442844 C9.64005913,4.22181271 9.77818729,4.35994087 9.82557156,4.53678138 C9.87295584,4.71362189 9.82239742,4.90230847 9.69294118,5.03176471 L7.72470588,7 Z" id="形状-copy-35"></path>
            </g>
        </g>
    </g>
</svg>