<?xml version="1.0" encoding="UTF-8"?>
<svg width="14px" height="14px" viewBox="0 0 14 14" version="1.1" xmlns="http://www.w3.org/2000/svg" xmlns:xlink="http://www.w3.org/1999/xlink">
    <!-- Generator: Sketch 52.5 (67469) - http://www.bohemiancoding.com/sketch -->
    <title>分组 10</title>
    <desc>Created with Sketch.</desc>
    <g id="Page-1" stroke="none" stroke-width="1" fill="none" fill-rule="evenodd">
        <g id="系统管理" transform="translate(-332.000000, -775.000000)" fill-rule="nonzero">
            <g id="分组-10" transform="translate(332.000000, 775.000000)">
                <g id="分组-9" fill="#FFFFFF">
                    <path d="M7,14 C3.13400675,14 4.57150657e-16,10.8659932 0,7 C-4.57150657e-16,3.13400675 3.13400675,6.85725986e-16 7,0 C10.8659932,-6.85725986e-16 14,3.13400675 14,7 C14,8.85651543 13.2625021,10.6369928 11.9497475,11.9497475 C10.6369928,13.2625021 8.85651543,14 7,14 Z M7,12.9705882 C10.2974648,12.9705882 12.9705882,10.2974648 12.9705882,7 C12.9705882,3.70253517 10.2974648,1.02941176 7,1.02941176 C3.70253517,1.02941176 1.02941176,3.70253517 1.02941176,7 C1.02941176,10.2974648 3.70253517,12.9705882 7,12.9705882 Z" id="合并形状"></path>
                </g>
                <g id="分组-6" transform="translate(7.181981, 6.181981) rotate(-315.000000) translate(-7.181981, -6.181981) translate(6.681981, 2.181981)" fill="#FFFFFF" stroke="#FFFFFF">
                    <path d="M0.5,4.5 L0.5,7 L0.518138293,6.920051 C0.512162723,6.90837218 0.506116028,6.89643536 0.5,6.88424218 C0.493883972,6.89643536 0.487837277,6.90837218 0.481861707,6.920051 L0.5,7 L0.5,4.5 Z M0.518138293,6.920051 L0.548951864,6.78423258 C0.532189089,6.8192741 0.515861384,6.85262024 0.5,6.88424218 C0.484138616,6.85262024 0.467810911,6.8192741 0.451048136,6.78423258 L0.481861707,6.920051 C0.415243702,7.05025103 0.357465535,7.14838425 0.311009513,7.21216244 C0.330261466,7.19969808 0.376571764,7.18090601 0.5,7.18090601 C0.626026546,7.18090601 0.671654132,7.2004976 0.685771236,7.21026272 C0.634755538,7.13509566 0.580294621,7.041531 0.518138293,6.920051 Z M0.311009513,7.21216244 C0.310379004,7.21302804 0.309750581,7.21388732 0.30912425,7.21474027 C0.309874694,7.21371831 0.311700078,7.21191163 0.315142539,7.20964646 Z M0.5,4.5 L0.5,2 L4.53859172e-13,2.5 L1,2.5 L0.5,2 L0.5,4.5 Z" id="矩形"></path>
                    <rect id="矩形" x="0.5" y="1" width="1" height="1"></rect>
                </g>
                <path d="M4,10 L10,10" id="直线-8" stroke="#FFFFFF" stroke-linecap="round"></path>
            </g>
        </g>
    </g>
</svg>