<?xml version="1.0" encoding="UTF-8"?>
<svg width="200px" height="200px" viewBox="0 0 200 200" version="1.1" xmlns="http://www.w3.org/2000/svg" xmlns:xlink="http://www.w3.org/1999/xlink">
    <!-- Generator: Sketch 52.5 (67469) - http://www.bohemiancoding.com/sketch -->
    <title>分组 2</title>
    <desc>Created with Sketch.</desc>
    <g id="Page-1" stroke="none" stroke-width="1" fill="none" fill-rule="evenodd">
        <g id="排行榜" transform="translate(-620.000000, -2467.000000)">
            <g id="分组-2-copy-3" transform="translate(620.000000, 2467.000000)">
                <g id="分组" fill-rule="nonzero">
                    <rect id="矩形" fill="#EEEEEE" x="0" y="85.1646578" width="71.2473499" height="17.1760654" rx="8.58803272"></rect>
                    <rect id="矩形-copy" fill="#EEEEEE" x="126.820283" y="123.810805" width="71.2473499" height="17.1760654" rx="8.58803272"></rect>
                    <rect id="矩形-copy-2" fill="#EEEEEE" x="101.171237" y="3.57834697" width="71.2473499" height="16.460396" rx="8.23019802"></rect>
                    <rect id="矩形-copy-3" fill="#EEEEEE" x="126.820283" y="15.7447266" width="71.2473499" height="16.460396" rx="8.23019802"></rect>
                    <g id="分组-18" transform="translate(105.908505, 72.287960) rotate(-345.000000) translate(-105.908505, -72.287960) translate(57.599326, 10.452211)">
                        <g id="分组-14" transform="translate(0.000000, 9.303702)" fill="#F9F9F9" stroke="#979797" stroke-width="2">
                            <rect id="矩形-copy-7" x="1" y="1" width="94.1839224" height="111.791433" rx="8"></rect>
                            <rect id="矩形" x="8.12473499" y="8.87236332" width="80.6469259" height="96.0467068" rx="3"></rect>
                        </g>
                        <g id="分组-15" transform="translate(27.073993, 0.000000)" stroke="#979797" stroke-width="2">
                            <path d="M39.898516,10.3037021 L2.1374205,10.3037021 C1.51024487,10.3037021 1,10.8162358 1,11.4507103 L1,22.1857512 C1,22.8202257 1.51024487,23.3327594 2.1374205,23.3327594 L39.898516,23.3327594 C40.5256916,23.3327594 41.0359365,22.8202257 41.0359365,22.1857512 L41.0359365,11.4507103 C41.0359365,10.8162358 40.5256916,10.3037021 39.898516,10.3037021 Z" id="路径" fill="#D8D8D8"></path>
                            <path d="M32.0613075,10.7350409 C32.0613075,4.80624152 27.2765287,0 21.374205,0 C15.4718813,0 10.6871025,4.80624152 10.6871025,10.7350409" id="路径" fill="#D8D8D8"></path>
                            <path d="M16.0306537,7.51452863 L26.7177562,7.51452863" id="直线-2" stroke-linecap="round"></path>
                        </g>
                        <g id="分组-17" transform="translate(14.961943, 47.949849)" fill="#D8D8D8">
                            <ellipse id="椭圆形" cx="3.5623675" cy="3.57834697" rx="3.5623675" ry="3.57834697"></ellipse>
                            <rect id="矩形" x="9.97462899" y="0.715669393" width="49.1606715" height="4.29401636"></rect>
                        </g>
                        <g id="分组-17-copy-2" transform="translate(14.961943, 66.557254)" fill="#D8D8D8">
                            <ellipse id="椭圆形" cx="3.5623675" cy="3.57834697" rx="3.5623675" ry="3.57834697"></ellipse>
                            <rect id="矩形" x="9.97462899" y="0.715669393" width="49.1606715" height="4.29401636"></rect>
                        </g>
                        <g id="分组-17-copy-3" transform="translate(14.961943, 85.164658)" fill="#D8D8D8">
                            <ellipse id="椭圆形" cx="3.5623675" cy="3.57834697" rx="3.5623675" ry="3.57834697"></ellipse>
                            <rect id="矩形" x="9.97462899" y="0.715669393" width="49.1606715" height="4.29401636"></rect>
                        </g>
                    </g>
                    <g id="分组-19" transform="translate(182.393216, 55.106543)" fill="#D8D8D8">
                        <rect id="矩形" x="0" y="5.00968575" width="12.824523" height="2.86267757" rx="1.43133879"></rect>
                        <path d="M1.39618396,5.01607754 L11.428339,5.01607754 C12.2153155,5.01607754 12.853286,5.65404804 12.853286,6.44102454 L12.853286,6.44102454 C12.853286,7.22800103 12.2153155,7.86597154 11.428339,7.86597154 L1.39618396,7.86597154 C0.60920746,7.86597154 -0.0287630421,7.22800103 -0.0287630421,6.44102454 L-0.0287630421,6.44102454 C-0.0287630421,5.65404804 0.60920746,5.01607754 1.39618396,5.01607754 Z" id="矩形-copy-9" transform="translate(6.412261, 6.441025) rotate(-270.000000) translate(-6.412261, -6.441025) "></path>
                    </g>
                    <g id="分组-19-copy" transform="translate(166.718799, 76.576625)" fill="#D8D8D8">
                        <rect id="矩形" x="0" y="3.57834697" width="9.26215549" height="2.14700818" rx="1.07350409"></rect>
                        <path d="M1.04793694,3.58314081 L8.21421855,3.58314081 C8.80445092,3.58314081 9.2829288,4.06161868 9.2829288,4.65185105 L9.2829288,4.65185105 C9.2829288,5.24208343 8.80445092,5.7205613 8.21421855,5.7205613 L1.04793694,5.7205613 C0.457704568,5.7205613 -0.0207733082,5.24208343 -0.0207733082,4.65185105 L-0.0207733082,4.65185105 C-0.0207733082,4.06161868 0.457704568,3.58314081 1.04793694,3.58314081 Z" id="矩形-copy-9" transform="translate(4.631078, 4.651851) rotate(-270.000000) translate(-4.631078, -4.651851) "></path>
                    </g>
                    <g id="分组-19-copy-4" transform="translate(35.623675, 27.911106)" fill="#D8D8D8">
                        <rect id="矩形" x="0" y="3.57834697" width="9.26215549" height="2.14700818" rx="1.07350409"></rect>
                        <path d="M1.04793694,3.58314081 L8.21421855,3.58314081 C8.80445092,3.58314081 9.2829288,4.06161868 9.2829288,4.65185105 L9.2829288,4.65185105 C9.2829288,5.24208343 8.80445092,5.7205613 8.21421855,5.7205613 L1.04793694,5.7205613 C0.457704568,5.7205613 -0.0207733082,5.24208343 -0.0207733082,4.65185105 L-0.0207733082,4.65185105 C-0.0207733082,4.06161868 0.457704568,3.58314081 1.04793694,3.58314081 Z" id="矩形-copy-9" transform="translate(4.631078, 4.651851) rotate(-270.000000) translate(-4.631078, -4.651851) "></path>
                    </g>
                    <g id="分组-19-copy-5" transform="translate(30.636360, 114.507103)" fill="#D8D8D8">
                        <rect id="矩形" x="0" y="2.86267757" width="7.12473499" height="1.43133879" rx="0.715669393"></rect>
                        <path d="M0.653360618,2.90900688 L6.47137438,2.90900688 C6.8410407,2.90900688 7.14071446,3.20868064 7.14071446,3.57834697 L7.14071446,3.57834697 C7.14071446,3.94801329 6.8410407,4.24768705 6.47137438,4.24768705 L0.653360618,4.24768705 C0.283694296,4.24768705 -0.0159794678,3.94801329 -0.0159794678,3.57834697 L-0.0159794678,3.57834697 C-0.0159794678,3.20868064 0.283694296,2.90900688 0.653360618,2.90900688 Z" id="矩形-copy-9" transform="translate(3.562367, 3.578347) rotate(-270.000000) translate(-3.562367, -3.578347) "></path>
                    </g>
                    <g id="分组-19-copy-6" transform="translate(56.997880, 134.545846)" fill="#D8D8D8">
                        <rect id="矩形" x="0" y="2.14700818" width="5.699788" height="1.43133879" rx="0.715669393"></rect>
                        <path d="M0.656556511,2.19333749 L5.04323148,2.19333749 C5.41289781,2.19333749 5.71257157,2.49301125 5.71257157,2.86267757 L5.71257157,2.86267757 C5.71257157,3.23234389 5.41289781,3.53201766 5.04323148,3.53201766 L0.656556511,3.53201766 C0.28689019,3.53201766 -0.0127835743,3.23234389 -0.0127835743,2.86267757 L-0.0127835743,2.86267757 C-0.0127835743,2.49301125 0.28689019,2.19333749 0.656556511,2.19333749 Z" id="矩形-copy-9" transform="translate(2.849894, 2.862678) rotate(-270.000000) translate(-2.849894, -2.862678) "></path>
                    </g>
                    <g id="分组-19-copy-2" transform="translate(185.243110, 93.752690)" fill="#D8D8D8">
                        <rect id="矩形" x="0" y="2.86267757" width="7.12473499" height="1.43133879" rx="0.715669393"></rect>
                        <path d="M0.653360618,2.90900688 L6.47137438,2.90900688 C6.8410407,2.90900688 7.14071446,3.20868064 7.14071446,3.57834697 L7.14071446,3.57834697 C7.14071446,3.94801329 6.8410407,4.24768705 6.47137438,4.24768705 L0.653360618,4.24768705 C0.283694296,4.24768705 -0.0159794678,3.94801329 -0.0159794678,3.57834697 L-0.0159794678,3.57834697 C-0.0159794678,3.20868064 0.283694296,2.90900688 0.653360618,2.90900688 Z" id="矩形-copy-9" transform="translate(3.562367, 3.578347) rotate(-270.000000) translate(-3.562367, -3.578347) "></path>
                    </g>
                    <g id="分组-19-copy-3" transform="translate(56.285406, 3.578347)" fill="#D8D8D8">
                        <rect id="矩形" x="0" y="5.00968575" width="12.824523" height="2.86267757" rx="1.43133879"></rect>
                        <path d="M1.39618396,5.01607754 L11.428339,5.01607754 C12.2153155,5.01607754 12.853286,5.65404804 12.853286,6.44102454 L12.853286,6.44102454 C12.853286,7.22800103 12.2153155,7.86597154 11.428339,7.86597154 L1.39618396,7.86597154 C0.60920746,7.86597154 -0.0287630421,7.22800103 -0.0287630421,6.44102454 L-0.0287630421,6.44102454 C-0.0287630421,5.65404804 0.60920746,5.01607754 1.39618396,5.01607754 Z" id="矩形-copy-9" transform="translate(6.412261, 6.441025) rotate(-270.000000) translate(-6.412261, -6.441025) "></path>
                    </g>
                </g>
                <text id="暂无数据" font-family="PingFangSC-Regular, PingFang SC" font-size="14" font-weight="normal" fill="#999999">
                    <tspan x="69" y="174">暂无数据</tspan>
                </text>
            </g>
        </g>
    </g>
</svg>