<?xml version="1.0" encoding="UTF-8"?>
<svg width="18px" height="20px" viewBox="0 0 18 20" version="1.1" xmlns="http://www.w3.org/2000/svg" xmlns:xlink="http://www.w3.org/1999/xlink">
    <!-- Generator: Sketch 52.5 (67469) - http://www.bohemiancoding.com/sketch -->
    <title>通知信息 copy</title>
    <desc>Created with Sketch.</desc>
    <g id="Page-1" stroke="none" stroke-width="1" fill="none" fill-rule="evenodd">
        <g id="教师首页" transform="translate(-145.000000, -252.000000)">
            <g id="通知信息-copy-2" transform="translate(144.000000, 252.000000)">
                <g id="通知信息-copy">
                    <path d="M12.9832769,17.3417054 C12.9709771,18.0644807 12.6697914,18.7522398 12.1469592,19.2514411 C11.6241271,19.7506425 10.9231828,20.0197194 10.2006113,19.9986008 C9.4767005,20.0218648 8.77371628,19.7537438 8.24916408,19.254311 C7.72461188,18.7548782 7.42234429,18.0658862 7.41008514,17.3417054 L12.9832769,17.3417054 Z" id="路径" fill="#459CFC"></path>
                    <rect id="矩形" fill="#000000" opacity="0" x="0" y="0" width="20" height="20"></rect>
                    <path d="M12.0871643,1.76978316 C12.0487701,0.75992906 11.20286,-0.0298209605 10.1927507,0.00113978516 C9.1796199,-0.0342447878 8.32884909,0.756761135 8.2904765,1.76978316 L8.2904765,2.02918418 C5.5143171,3.05796069 3.65615063,5.68750047 3.61339738,8.6478407 L3.61339738,11.0060319 C3.61339738,11.0060319 3.61339738,14.5511792 2.72514537,14.5511792 C2.20387494,14.5281277 1.75690067,14.9196633 1.71112318,15.4394312 C1.70455165,15.676964 1.79602319,15.9067327 1.96404847,16.0747579 C2.13207374,16.2427832 2.36184244,16.3342548 2.59937518,16.3276832 L17.4323976,16.3276832 C17.888603,16.284624 18.2371823,15.9015946 18.2371823,15.4433616 C18.2371823,14.9851285 17.888603,14.6020991 17.4323976,14.5590399 C16.5441455,14.5590399 16.5441455,11.0138925 16.5441455,11.0138925 L16.5441455,8.48276732 C16.669459,5.58460986 14.8661986,2.95178557 12.1186068,2.02132355 L12.1186068,1.76978316 L12.0871643,1.76978316 Z" id="Mask" fill="#1082FF"></path>
                    <path d="M16.4866363,7.28904373 C15.484624,8.34297608 14.0690401,9 12.5,9 C9.46243388,9 7,6.53756612 7,3.5 C7,3.19955792 7.02408988,2.90474234 7.07044344,2.61737944 C7.45289918,2.38608951 7.86068684,2.18845368 8.2904765,2.02918418 L8.2904765,1.76978316 C8.32884909,0.756761135 9.1796199,-0.0342447878 10.1927507,0.00113978516 C11.20286,-0.0298209605 12.0487701,0.75992906 12.0871643,1.76978316 L12.1186068,1.76978316 L12.1186068,2.02132355 C14.4828322,2.82195992 16.1478635,4.88304541 16.4866363,7.28904373 Z" id="合并形状" fill="#459CFC"></path>
                </g>
            </g>
        </g>
    </g>
</svg>