<?xml version="1.0" encoding="UTF-8"?>
<svg width="16px" height="16px" viewBox="0 0 16 16" version="1.1" xmlns="http://www.w3.org/2000/svg" xmlns:xlink="http://www.w3.org/1999/xlink">
    <!-- Generator: Sketch 52.5 (67469) - http://www.bohemiancoding.com/sketch -->
    <title>发表文章</title>
    <desc>Created with Sketch.</desc>
    <g id="Page-1" stroke="none" stroke-width="1" fill="none" fill-rule="evenodd">
        <g id="班级通知" transform="translate(-144.000000, -871.000000)" fill="#FEBB4D" fill-rule="nonzero">
            <g id="发表文章" transform="translate(144.000000, 871.000000)">
                <path d="M15.8306849,1.99356449 C15.8790445,2.10300973 15.9197683,2.23027142 15.947766,2.37535065 C15.9783089,2.52042927 15.9935803,2.67314373 15.9935803,2.83094835 C15.9935803,2.98875296 15.9630374,3.14655757 15.9019517,3.30436219 C15.840866,3.4621668 15.7441471,3.6148822 15.6117948,3.75995988 C15.4667162,3.9050385 15.3369086,4.03230065 15.2198286,4.14174604 C15.1052928,4.25119143 15.0034833,4.34790988 14.9194902,4.43190296 C14.8227711,4.52862204 14.7311425,4.61261449 14.6471494,4.68642758 L11.2467032,1.28344684 C11.3917818,1.15109438 11.5648578,0.988199149 11.7659324,0.802396842 C11.967007,0.614049149 12.1324462,0.466424525 12.2673439,0.356979139 C12.4378755,0.224626677 12.6134962,0.130452208 12.7942093,0.0744568218 C12.9749209,0.0210068218 13.155634,-0.00444564058 13.3312547,0.0006448208 C13.506877,0.00573529773 13.677407,0.0337329753 13.8403024,0.0820925139 C14.0031978,0.130452053 14.1457317,0.183902053 14.2679024,0.2449879 C14.522427,0.377340362 14.8049478,0.611501742 15.1129224,0.944928672 C15.4208971,1.28090099 15.6626947,1.62959868 15.8306793,1.99356714 L15.8306849,1.99356449 Z M1.65879257,10.8713646 C1.73260457,10.7975526 1.90059026,10.6244761 2.16784026,10.3521354 C2.43509026,10.0797946 2.76851719,9.74382382 3.1681195,9.34167458 L4.49673489,8.01305918 L5.97042797,6.54190993 L9.88245485,2.62988305 L13.2854356,6.05068305 L9.37340872,9.96270993 L7.91753178,11.436403 C7.43139101,11.907273 6.99615485,12.3425076 6.60673409,12.7370207 C6.21985716,13.1315322 5.89661177,13.4547776 5.64208871,13.7093023 C5.38756408,13.9638269 5.23485024,14.1089046 5.18649101,14.1470838 C5.06431947,14.256529 4.92687717,14.3710653 4.769071,14.4932361 C4.61126639,14.6154077 4.448371,14.7121269 4.27783946,14.783393 C4.10730791,14.867386 3.86041945,14.9717407 3.53208484,15.093913 C3.20374869,15.2160846 2.86268715,15.3331653 2.50380791,15.4477015 C2.14492867,15.5622374 1.80641253,15.6640469 1.48571253,15.74804 C1.16501253,15.8320329 0.92576022,15.8880281 0.767955606,15.9109354 C0.439619447,15.9465687 0.223274061,15.8982092 0.113828675,15.7658567 C0.00438344422,15.6335043 -0.0261594796,15.4069775 0.0222000591,15.0939137 C0.0476525215,14.9233821 0.103647752,14.679039 0.19527699,14.358339 C0.286905606,14.037639 0.383624683,13.7042121 0.485433911,13.3580598 C0.58978868,13.0119075 0.689052366,12.6937529 0.785772376,12.4035944 C0.882491453,12.1134375 0.961394693,11.9123629 1.0224793,11.8029175 C1.0962913,11.6323859 1.17773884,11.4796721 1.26936776,11.3396836 C1.35845115,11.1971502 1.48825853,11.0418905 1.65879008,10.871359 L1.65879257,10.8713646 Z M7.72663871,14.3023493 L9.35304252,14.3023493 L9.35304252,15.9211185 L7.72663871,15.9211185 L7.72663871,14.3023493 Z M11.0303541,14.3023493 L12.6567579,14.3023493 L12.6567579,15.9211185 L11.0303541,15.9211185 L11.0303541,14.3023493 Z M14.3493542,14.3023493 L15.975758,14.3023493 L15.975758,15.9211185 L14.3493542,15.9211185 L14.3493542,14.3023493 Z" id="形状"></path>
            </g>
        </g>
    </g>
</svg>