<?xml version="1.0" encoding="UTF-8"?>
<svg width="20px" height="16px" viewBox="0 0 20 16" version="1.1" xmlns="http://www.w3.org/2000/svg" xmlns:xlink="http://www.w3.org/1999/xlink">
    <!-- Generator: Sketch 52.5 (67469) - http://www.bohemiancoding.com/sketch -->
    <title>tubiaozhizuomoban--7 copy</title>
    <desc>Created with Sketch.</desc>
    <defs>
        <polygon id="path-1" points="0 0.0306285714 19.9938667 0.0306285714 19.9938667 16 0 16"></polygon>
    </defs>
    <g id="Page-1" stroke="none" stroke-width="1" fill="none" fill-rule="evenodd">
        <g id="班级管理" transform="translate(-712.000000, -199.000000)">
            <g id="tubiaozhizuomoban--7-copy" transform="translate(712.000000, 199.000000)">
                <g id="分组">
                    <mask id="mask-2" fill="white">
                        <use xlink:href="#path-1"></use>
                    </mask>
                    <g id="Clip-2"></g>
                    <path d="M17.7302,3.36620408 C17.8997333,3.39004082 18.0528667,3.47856327 18.1562667,3.61237551 C18.2596333,3.74605714 18.3045667,3.91441633 18.281,4.08062041 C18.2574333,4.24669388 18.1673333,4.3968 18.0306,4.49769796 L13.9045667,7.5525551 L18.0278667,11.5917061 C18.2678333,11.8405551 18.2627667,12.2311184 18.0162667,12.4738612 C17.7699333,12.716702 17.3713667,12.7239837 17.1157667,12.490449 L12.8614667,8.32297143 L11.0264333,9.67908571 C10.5346333,10.0164571 9.87983333,10.0164571 9.38803333,9.67908571 L7.56666667,8.32564898 L3.88306667,11.9313959 C6.9991,11.2493714 10.1297,13.016849 11.0892,16 L15.4583333,16 C17.9599,15.9970612 19.9879,14.0127673 19.9938667,11.5622531 L19.9938667,4.46837551 C19.9937333,3.712 19.7942667,2.9684898 19.4151,2.30968163 C18.8787667,2.76019592 18.2673333,3.11670204 17.6073,3.36365714 C17.6483,3.36071837 17.6894667,3.3616 17.7302,3.36620408 Z" id="Fill-1" fill="#FFBA00" mask="url(#mask-2)"></path>
                    <path d="M2.3866,12.466449 C2.1483,12.2179918 2.1556,11.828702 2.403,11.5890286 L6.5263,7.54987755 L2.40026667,4.49769796 C2.26276667,4.39732245 2.17226667,4.2469551 2.1491,4.0804898 C2.10183333,3.73635918 2.3448,3.41861224 2.69516667,3.36620408 C2.86433333,3.34439184 3.0354,3.38968163 3.1703,3.49195102 L10.1772,8.66798367 L10.2126333,8.66798367 C10.2272,8.67026939 10.2419333,8.67026939 10.2563667,8.66798367 L17.2523333,3.49195102 L17.2687333,3.49195102 C14.2177,4.43431837 10.9384,2.92986122 9.72396667,0.0306285714 L4.53566667,0.0306285714 C2.0341,0.0335346939 0.006,2.01786122 2.11758237e-21,4.46837551 L2.11758237e-21,11.5622531 C-0.000666666667,12.3529469 0.216266667,13.1292082 0.628,13.8091755 C1.12616667,13.260702 1.722,12.8057469 2.3866,12.466449 Z" id="Fill-3" fill="#FFBA00" mask="url(#mask-2)"></path>
                </g>
                <path d="M7.68177414,8.03871322 L9.61599467,9.47351346 C10.0065591,9.73399861 10.5195192,9.73399861 10.9100837,9.47351346 L12.8443042,8.03871322 C12.8967357,7.99374657 12.9750155,7.99374657 13.0275806,8.03871322 L17.3719124,12.3107091 C17.5193217,12.4232077 17.7289474,12.4101211 17.8604602,12.2802065 C17.9920733,12.1502919 18.0043629,11.9444162 17.8890137,11.8002999 L13.6458045,7.63027434 C13.6168503,7.60210048 13.6018221,7.56274236 13.6048278,7.52279387 C13.607967,7.48356695 13.6278041,7.44745587 13.6594968,7.42334902 L17.9246471,4.26098974 C18.0862829,4.14081628 18.1181092,3.91457269 17.9957468,3.75582828 C17.8733844,3.59708386 17.6431201,3.56582696 17.4813506,3.68600041 L10.4695257,8.89045572 C10.3437903,8.96310425 10.1877649,8.96310425 10.0619962,8.89045572 L3.04469431,3.68600041 C2.98077467,3.63873787 2.90302914,3.61322069 2.82307949,3.61348308 L2.77375383,3.61348308 C2.57351234,3.64129615 2.43328319,3.82208111 2.45923176,4.0191013 C2.47265689,4.11339679 2.52381932,4.19847593 2.60143127,4.2556108 L6.86384311,7.42334902 C6.89553577,7.44745587 6.9153729,7.48356695 6.91847871,7.52279387 C6.92148434,7.56274236 6.9064896,7.60210048 6.87753541,7.63027434 L2.63429278,11.8002999 C2.55577915,11.8763922 2.51623847,11.9832495 2.52692514,12.0911236 C2.53751162,12.1989976 2.5971232,12.2965074 2.68896178,12.3564629 C2.9121796,12.2533118 3.14150887,12.1636409 3.37568053,12.0877781 L7.49849774,8.03871322 C7.5510628,7.99374657 7.62934266,7.99374657 7.68177414,8.03871322 Z" id="Fill-4" fill="#FDFDFD"></path>
                <path d="M9.36487769,9.75453726 C9.85626657,10.0916257 10.5105192,10.0916257 11.0019081,9.75453726 L12.8354074,8.39956064 L17.072629,12.5608667 C17.3278821,12.7942055 17.7261156,12.78693 17.972243,12.5442929 C18.2185369,12.3017537 18.2235993,11.9115181 17.9838333,11.6628778 L13.8639802,7.62711532 L17.9892954,4.57482092 C18.1259144,4.47400761 18.2159391,4.32402741 18.239486,4.15809326 C18.263033,3.99202861 18.2181372,3.82381067 18.114857,3.69024118 C18.0115434,3.55654119 17.8585381,3.46809301 17.6891465,3.44427627 C17.6492132,3.44072007 17.6090135,3.44072007 17.5690803,3.44427627 C17.4573071,3.48708115 17.342703,3.52724334 17.2280656,3.5618918 L17.2116793,3.5618918 L10.2352495,8.73625753 C10.2207949,8.73854133 10.205974,8.73854133 10.1915194,8.73625753 L10.156149,8.73625753 L3.14141792,3.56991772 C3.00546499,3.46786463 2.83347556,3.42362422 2.66395072,3.44695157 C2.40453443,3.48098015 2.19184571,3.66538042 2.1260008,3.91353126 C2.0601892,4.16164946 2.15411062,4.42405771 2.36383515,4.57749623 L6.48368825,7.62979062 L2.36383515,11.6655532 C2.11664197,11.9050256 2.10934807,12.2939888 2.34744886,12.5422375 L2.47843927,12.4780302 L2.46205298,12.4780302 C2.26391875,12.2839074 2.26391875,11.9692655 2.46205298,11.7751754 L6.70473665,7.61106349 L2.45659088,4.46536181 C2.23061328,4.30070006 2.18351935,3.9878199 2.35161204,3.76645474 C2.51957152,3.54495908 2.83893765,3.49895689 3.06504848,3.66348813 L10.0578979,8.85119776 C10.0944673,8.87122992 10.1360991,8.88052824 10.1778642,8.87798344 C10.2197624,8.88078924 10.2615275,8.87149093 10.2979304,8.85119776 L17.2962419,3.67418935 C17.5223527,3.50887509 17.8424182,3.5543879 18.0111437,3.77575306 C18.1799026,3.99711822 18.1334414,4.31065089 17.9074638,4.47593252 L13.653856,7.61106349 L17.8746912,11.7590909 C18.0666973,11.9542251 18.063833,12.2640384 17.8681634,12.4557142 C17.672627,12.6472595 17.3563582,12.6500653 17.1571915,12.4619457 L12.8381384,8.21512773 L10.9091523,9.64227234 C10.4731838,9.94963876 9.88540885,9.94963876 9.44944027,9.64227234 L7.52045417,8.21512773 L3.59157462,12.0638147 L3.86437971,12.0022827 L7.53410941,8.39956064 L9.36487769,9.75453726 Z" id="Fill-5" fill="#FFFFFF"></path>
                <path d="M2.59962813,12.1933035 C2.45807115,12.0534957 2.45807115,11.8280768 2.59962813,11.688269 L6.81281349,7.56215503 C6.84156259,7.53427786 6.8564511,7.49533419 6.85346677,7.45580637 C6.85038295,7.41699251 6.83068634,7.3812617 6.79921818,7.3574087 L2.56699939,4.22834995 C2.48993722,4.17181673 2.4391372,4.0876335 2.42580717,3.99433097 C2.4000424,3.79938546 2.53927823,3.6203744 2.73810129,3.59298402 L2.78707756,3.59298402 C2.86646088,3.5927244 2.94365569,3.61797288 3.00712256,3.66473773 L9.97471693,8.8117275 C10.0995948,8.88361102 10.254515,8.88361102 10.3793597,8.8117275 L17.344235,3.65941543 C17.5048585,3.54050743 17.7334918,3.57143519 17.8549874,3.72850798 C17.976483,3.88558077 17.9448822,4.10944195 17.7843913,4.22834995 L13.5494535,7.3574087 C13.5179853,7.3812617 13.4982887,7.41699251 13.4951717,7.45580637 C13.4921874,7.49533419 13.507109,7.53427786 13.5358581,7.56215503 L17.7462913,11.688269 C17.8903352,11.8276873 17.8914958,12.0551184 17.7490103,12.1959646 C17.6065581,12.3369407 17.3741778,12.3382064 17.2302665,12.1986258 L12.9192944,7.96629294 C12.8671017,7.9217998 12.7893764,7.9217998 12.7373163,7.96629294 L10.8167969,9.38598432 C10.4289991,9.64372649 9.91967252,9.64372649 9.53187471,9.38598432 L7.61135534,7.96629294 C7.55929527,7.9217998 7.48156991,7.9217998 7.4293772,7.96629294 L3.33848328,11.9753812 L3.61009096,11.895644 L7.5217258,8.06998045 L9.44224516,9.48957448 C9.87630018,9.79531472 10.4614952,9.79531472 10.8955502,9.48957448 L12.8160696,8.06998045 L17.1324798,12.2890075 C17.3344198,12.4364418 17.6165059,12.4156718 17.7937091,12.2401981 C17.9709123,12.0648867 17.9889178,11.7885165 17.835954,11.5925325 L13.6336449,7.46645097 L17.8658637,4.33739222 C18.0114661,4.23091374 18.0879977,4.05657593 18.0666431,3.88012866 C18.0452554,3.70355158 17.9293305,3.55154147 17.7623735,3.48131306 C17.5954165,3.41108464 17.4029269,3.43337989 17.2573245,3.53976101 L10.2951682,8.70002408 C10.2589251,8.72020988 10.2173434,8.729459 10.175629,8.72666804 C10.1340473,8.72919938 10.0925982,8.71995026 10.0561893,8.70002408 L3.09131398,3.55040561 C2.94574473,3.44454374 2.75352036,3.42260548 2.58692812,3.49309352 C2.42050168,3.56345174 2.30507422,3.71559167 2.28411755,3.89190912 C2.26312772,4.06825903 2.33992462,4.24204514 2.48552703,4.34790701 L6.71502676,7.46645097 L2.5018414,11.5898714 C2.30457683,11.782967 2.30457683,12.0959443 2.5018414,12.2890075 L2.51815577,12.2890075 L2.65662894,12.2252373 C2.63666705,12.2163776 2.61763362,12.2056032 2.59962813,12.1933035 Z" id="Fill-6" fill="#FFFFFF"></path>
                <path d="M4.45830575,16 L11.0526316,16 C10.0871592,13.0773774 6.93707273,11.3457621 3.80164363,12.0139483 L3.23000749,12.5590349 C2.97583518,12.8013311 2.56392041,12.8013311 2.30961394,12.5590349 L2.29311186,12.5407683 C1.62581731,12.8718062 1.02718081,13.3158028 0.526315789,13.8510043 C1.34558378,15.1808825 2.84113526,15.9982405 4.45830575,16 Z" id="Fill-7" fill="#FFBA00"></path>
                <path d="M4.45830575,16 L11.0526316,16 C10.0871592,13.0773774 6.93707273,11.3457621 3.80164363,12.0139483 L3.23000749,12.5590349 C2.97583518,12.8013311 2.56392041,12.8013311 2.30961394,12.5590349 L2.29311186,12.5407683 C1.62581731,12.8718062 1.02718081,13.3158028 0.526315789,13.8510043 C1.34558378,15.1808825 2.84113526,15.9982405 4.45830575,16 Z" id="Fill-8" fill="#FEC744"></path>
                <path d="M3.10403373,12.2747979 L3.33333333,12.0430108 C3.09403451,12.1228505 2.8596841,12.2172222 2.63157895,12.3257808 C2.78129429,12.4238114 2.9781732,12.4024794 3.10403373,12.2747979 Z" id="Fill-9" fill="#FDFDFD"></path>
                <path d="M3.10403373,12.2747979 L3.33333333,12.0430108 C3.09403451,12.1228505 2.8596841,12.2172222 2.63157895,12.3257808 C2.78129429,12.4238114 2.9781732,12.4024794 3.10403373,12.2747979 Z" id="Fill-10" fill="#FFFFFF"></path>
                <path d="M3.15780112,12.3101379 C2.95169119,12.4819291 2.62488532,12.4819291 2.41877539,12.3101379 L2.28070175,12.3697742 L2.29797412,12.3871592 C2.56415117,12.6164666 2.9952934,12.6164666 3.26133002,12.3871592 L3.85964912,11.8709677 L3.57195182,11.9281204 L3.15780112,12.3101379 Z" id="Fill-11" fill="#FFFFFF"></path>
                <path d="M3.15780112,12.3101379 C2.95169119,12.4819291 2.62488532,12.4819291 2.41877539,12.3101379 L2.28070175,12.3697742 L2.29797412,12.3871592 C2.56415117,12.6164666 2.9952934,12.6164666 3.26133002,12.3871592 L3.85964912,11.8709677 L3.57195182,11.9281204 L3.15780112,12.3101379 Z" id="Fill-12" fill="#FFFFFF"></path>
                <path d="M3.29758876,12.4220318 L3.68421053,12.0430108 L3.42302958,12.1198406 L3.20878532,12.3298172 C3.09020005,12.4461095 2.90449406,12.4643085 2.76473627,12.3734386 L2.63157895,12.4348524 C2.82152582,12.6053978 3.11462498,12.5997692 3.29758876,12.4220318 Z" id="Fill-13" fill="#FFFFFF"></path>
                <path d="M3.29758876,12.4220318 L3.68421053,12.0430108 L3.42302958,12.1198406 L3.20878532,12.3298172 C3.09020005,12.4461095 2.90449406,12.4643085 2.76473627,12.3734386 L2.63157895,12.4348524 C2.82152582,12.6053978 3.11462498,12.5997692 3.29758876,12.4220318 Z" id="Fill-14" fill="#FFFFFF"></path>
                <path d="M15.4932476,3.78483581 C16.117065,3.78858104 16.737829,3.69703836 17.3339004,3.51332327 C17.4333674,3.44160047 17.5513205,3.40017094 17.6737209,3.39384051 C18.330893,3.14330788 18.9396759,2.78144583 19.4736842,2.32419643 C18.6792431,0.893585168 17.1720053,0.00437495798 15.5340699,0 L9.8245614,0 C10.7707087,2.29284256 13.009893,3.78808388 15.4932476,3.78483581 Z" id="Fill-15" fill="#FFBA00"></path>
                <path d="M15.4932476,3.78483581 C16.117065,3.78858104 16.737829,3.69703836 17.3339004,3.51332327 C17.4333674,3.44160047 17.5513205,3.40017094 17.6737209,3.39384051 C18.330893,3.14330788 18.9396759,2.78144583 19.4736842,2.32419643 C18.6792431,0.893585168 17.1720053,0.00437495798 15.5340699,0 L9.8245614,0 C10.7707087,2.29284256 13.009893,3.78808388 15.4932476,3.78483581 Z" id="Fill-16" fill="#FEC744"></path>
            </g>
        </g>
    </g>
</svg>