<?xml version="1.0" encoding="UTF-8"?>
<svg width="14px" height="14px" viewBox="0 0 14 14" version="1.1" xmlns="http://www.w3.org/2000/svg" xmlns:xlink="http://www.w3.org/1999/xlink">
    <!-- Generator: Sketch 52.5 (67469) - http://www.bohemiancoding.com/sketch -->
    <title>形状 copy 37</title>
    <desc>Created with Sketch.</desc>
    <g id="Page-1" stroke="none" stroke-width="1" fill="none" fill-rule="evenodd">
        <g id="教师首页" transform="translate(-458.000000, -750.000000)" fill="#26C486" fill-rule="nonzero">
            <g id="形状-copy-39" transform="translate(458.000000, 750.000000)">
                <path d="M4.96808171,12.2789063 L4.22508463,11.9122199 L2.54910584,12.5169271 L0.741334891,10.1927819 L1.68950003,8.65151522 L1.50570064,7.82721246 L0,6.86052343 L0.644608462,3.9629644 L2.41154397,3.76102375 L2.9250635,3.10018817 L2.72224486,1.2896072 L5.33337899,0 L6.58768999,1.29068911 L7.41234195,1.29068911 L8.66681279,2.27647504e-16 L11.2777871,1.2896072 L11.0751283,3.09918821 L11.5889994,3.76102374 L13.3559989,3.96296439 L14,6.86052341 L12.4948907,7.8272944 L12.3115548,8.6515152 L13.259704,10.1926999 L11.4520449,12.5169435 L9.77598624,11.9122363 L9.03343668,12.2789227 L8.44956194,14 L5.55157288,14 L4.96808171,12.2789063 Z M7.82600251,13.1021272 L8.32477015,11.6328077 L9.72290818,10.9416622 L11.1548653,11.4585542 L12.1860918,10.1322439 L11.3775503,8.81598234 L11.7226616,7.26461783 L13.0091775,6.43800372 L12.6417225,4.78528365 L11.132266,4.61311199 L10.1647779,3.36953526 L10.337821,1.82358031 L8.84819885,1.08748622 L7.77631273,2.18957827 L6.22431062,2.18957827 L5.15232862,1.08748622 L3.66278635,1.82358031 L3.83582948,3.36961722 L2.86888483,4.61311198 L1.35942829,4.78528363 L0.991909429,6.43857745 L2.27788188,7.26463422 L2.62345672,8.81591676 L1.81346077,10.1321784 L2.84468727,11.4585706 L4.27659644,10.9416786 L5.6747984,11.6328241 L6.17356603,13.1021272 L7.82600251,13.1021272 Z M4.37476128,6.98861535 C4.37476128,5.50464089 5.55197243,4.29739019 6.99903308,4.29739019 C8.44612568,4.29739019 9.62346471,5.50464087 9.62346471,6.98861535 C9.62346471,8.47313076 8.44610971,9.68090601 6.99903308,9.68090601 C5.55195645,9.68090601 4.37476128,8.47311437 4.37476128,6.98861535 Z M5.17836421,6.99169715 C5.17836421,8.02200592 5.99510479,8.8602588 6.99903308,8.8602588 C8.00328102,8.8602588 8.82024535,8.02200592 8.82024535,6.99169715 C8.82024537,5.96207687 8.00326504,5.12438133 6.99903308,5.12438133 C5.99510479,5.12438133 5.17836421,5.96207685 5.17836421,6.99169715 Z" id="形状-copy-32"></path>
            </g>
        </g>
    </g>
</svg>