<?xml version="1.0" encoding="UTF-8"?>
<svg width="20px" height="20px" viewBox="0 0 20 20" version="1.1" xmlns="http://www.w3.org/2000/svg" xmlns:xlink="http://www.w3.org/1999/xlink">
    <!-- Generator: Sketch 52.5 (67469) - http://www.bohemiancoding.com/sketch -->
    <title>分组 10</title>
    <desc>Created with Sketch.</desc>
    <g id="Page-1" stroke="none" stroke-width="1" fill="none" fill-rule="evenodd">
        <g id="教师班级首页" transform="translate(-311.000000, -308.000000)">
            <g id="分组-10" transform="translate(311.000000, 308.000000)">
                <g id="分组-4" transform="translate(0.000000, 2.000000)">
                    <path d="M10.6555539,8.95882717 L10.6555539,15.6502431 C10.658599,16.3943696 11.2462122,16.9968784 11.9720753,17 C12.6927954,16.7442 14.1119047,16.2270157 15.481141,15.6077196 C15.8359014,15.4456725 16.1852144,15.2467901 16.8670581,14.8489908 C17.2951728,14.6461544 17.6738207,14.3482124 17.9758323,13.9767041 C18.1296802,13.7672429 18.250336,13.5343695 18.3333333,13.2862695 L18.3333333,1.35242763 C18.3302882,0.608335765 17.7425397,0.00596577636 17.0166766,0.00284414919 C16.7395338,0.0510559465 16.3403818,0.130726809 15.8636461,0.264193712 C16.5755015,2.13092676 16.3925893,4.23167778 15.3694854,5.93962406 C14.346483,7.64757033 12.6014747,8.76521691 10.6555539,8.95882717 Z M3.15239708,14.8489908 C3.84811316,15.2467901 4.19729076,15.4485166 4.53828029,15.6077196 C5.90755049,16.2270157 7.32665971,16.7442 8.04734605,17 C8.77320915,16.9968784 9.36085611,16.3943696 9.36390126,15.6502431 L9.36390126,8.94741588 C7.44085297,8.72643937 5.72663454,7.60365944 4.72281659,5.90778346 C3.71899865,4.21187279 3.53923308,2.13474208 4.23616722,0.284102757 C3.82365042,0.167180477 3.40548317,0.0723523807 2.98332339,0 C2.25746029,0.00308694242 1.66971182,0.605491615 1.66666667,1.34958348 L1.66666667,13.2834254 C1.74956251,13.5315254 1.8703536,13.7645375 2.02420153,13.9738599 C2.33135601,14.3487674 2.71700779,14.6477846 3.15239708,14.8489908 Z" id="Fill-1" fill="#FFBA00"></path>
                    <path d="M18.8337757,1.7 C18.8488803,1.77834644 18.8570828,1.85807648 18.8582499,1.93804866 L18.8582499,13.8392017 C18.7765915,14.0865897 18.6576884,14.3190002 18.5059418,14.5277511 C18.208584,14.898245 17.8353028,15.1955118 17.4132734,15.397656 C16.7522707,15.780291 16.4108993,15.9786649 16.0721288,16.1372603 C16.4327727,16.1372603 17.5035344,16.1599859 18.5524227,16.0862054 C18.894461,16.0793219 19.2259626,15.9613699 19.5002467,15.7490908 C19.7428878,15.5372268 19.917308,15.2534847 20,14.9358098 L20,3.0346913 C19.9979327,2.34558851 19.4945117,1.76956057 18.8337757,1.7 Z M0.499886632,15.7547636 C0.774070715,15.9670427 1.10553903,16.0849947 1.44771063,16.0918781 C2.49659896,16.1656587 3.56736066,16.1514768 3.92790456,16.1429676 C3.58926738,15.9841993 3.2477293,15.7858255 2.5867266,15.4033288 C2.16486389,15.2011846 1.79154941,14.9039178 1.49409152,14.5334239 C1.34247836,14.324673 1.22354189,14.0922625 1.14175014,13.8448745 L1.14175014,1.94375602 C1.14305054,1.86374925 1.15125305,1.78401921 1.16635768,1.70567277 C0.507722368,1.77512957 0.00493484669,2.34787146 0,3.0346913 L0,14.9358098 C0.0816583752,15.255491 0.256211905,15.5414122 0.499886632,15.7547636 Z" id="Fill-2" fill="#FFBA00"></path>
                    <path d="M11.233211,3.42998621 C11.0710146,3.72835782 10.9371293,4.04038107 10.8333333,4.36246523 L10.8333333,8.5 C12.8449598,8.31805701 14.6515744,7.22795729 15.7113253,5.5566969 C16.7709018,3.88557201 16.9605029,1.82752608 16.2229833,0 C14.6720059,0.407957453 12.3727701,1.3321032 11.233211,3.42998621 Z" id="Fill-3" fill="#FFBA00"></path>
                    <path d="M11.233211,3.42998621 C11.0710146,3.72835782 10.9371293,4.04038107 10.8333333,4.36246523 L10.8333333,8.5 C12.8449598,8.31805701 14.6515744,7.22795729 15.7113253,5.5566969 C16.7709018,3.88557201 16.9605029,1.82752608 16.2229833,0 C14.6720059,0.407957453 12.3727701,1.3321032 11.233211,3.42998621 Z" id="Fill-4" fill="#FEC744"></path>
                    <path d="M9.16666667,8.5 L9.16666667,4.354628 C9.06064377,4.0310622 8.92421176,3.71760358 8.75875772,3.41785942 C7.62245264,1.35766276 5.35272334,0.423786798 3.77365442,0 C3.04106147,1.8157527 3.23002479,3.85372718 4.28520332,5.51766804 C5.34038186,7.18157487 7.1423087,8.28318914 9.16375024,8.5 L9.16666667,8.5 Z" id="Fill-5" fill="#FFBA00"></path>
                    <path d="M9.16666667,8.5 L9.16666667,4.354628 C9.06064377,4.0310622 8.92421176,3.71760358 8.75875772,3.41785942 C7.62245264,1.35766276 5.35272334,0.423786798 3.77365442,0 C3.04106147,1.8157527 3.23002479,3.85372718 4.28520332,5.51766804 C5.34038186,7.18157487 7.1423087,8.28318914 9.16375024,8.5 L9.16666667,8.5 Z" id="Fill-6" fill="#FEC744"></path>
                </g>
            </g>
        </g>
    </g>
</svg>