<?xml version="1.0" encoding="UTF-8"?>
<svg width="20px" height="20px" viewBox="0 0 20 20" version="1.1" xmlns="http://www.w3.org/2000/svg" xmlns:xlink="http://www.w3.org/1999/xlink">
    <!-- Generator: Sketch 52.5 (67469) - http://www.bohemiancoding.com/sketch -->
    <title>分组 12</title>
    <desc>Created with Sketch.</desc>
    <g id="Page-1" stroke="none" stroke-width="1" fill="none" fill-rule="evenodd">
        <g id="教师班级首页" transform="translate(-591.000000, -308.000000)">
            <g id="分组-12" transform="translate(591.000000, 308.000000)">
                <g id="分组" transform="translate(1.000000, 0.000000)">
                    <path d="M8.78334901,7.59733333 C8.78334901,8.4976 9.49612297,9.22753333 10.375226,9.22753333 C11.2544593,9.22753333 11.9671031,8.4976 11.9671031,7.59733333 C11.9671031,6.69693333 11.2544593,5.96713333 10.375226,5.96713333 C9.49612297,5.96713333 8.78334901,6.69693333 8.78334901,7.59733333 Z" id="Fill-1" fill="#1082FF"></path>
                    <path d="M12.6604448,2.84316667 C12.6593056,1.8554 12.891613,0.881966667 13.3377722,0.00606666667 L5.586217,0.00606666667 C3.623566,0.0133666667 1.9022387,1.34953333 1.36516817,3.28286667 C1.32959132,3.41883333 1.35768174,3.564 1.44133454,3.67586667 C1.52488969,3.78756667 1.65443761,3.85333333 1.79189512,3.8536 L2.83983363,3.8536 C3.44594213,3.85503333 3.93685714,4.35786667 3.93838698,4.9786 L3.93838698,5.56296667 C3.93685714,6.18366667 3.44594213,6.68653333 2.83983363,6.68796667 L1.63194575,6.68796667 C1.51522242,6.68796667 1.40331646,6.7355 1.32080289,6.82 C1.23828933,6.9045 1.19187342,7.01906667 1.19187342,7.1386 L1.19187342,8.0287 C1.19187342,8.14823333 1.23828933,8.26283333 1.32080289,8.34733333 C1.40331646,8.43183333 1.51522242,8.47936667 1.63194575,8.47936667 L2.84250271,8.47936667 C3.44861121,8.4808 3.93952622,8.98366667 3.94105606,9.60436667 L3.94105606,10.1887333 C3.93952622,10.8094333 3.44861121,11.3123 2.84250271,11.3137333 L1.63194575,11.3137333 C1.38883183,11.3137333 1.19187342,11.5154333 1.19187342,11.7642667 L1.19187342,12.4606 C1.19187342,12.7094333 1.38883183,12.9111333 1.63194575,12.9111333 L2.84250271,12.9111333 C3.44861121,12.9127 3.93952622,13.4155667 3.94105606,14.0362667 L3.94105606,14.6206333 C3.93952622,15.2413333 3.44861121,15.7440667 2.84250271,15.7456333 L1.70124412,15.7456333 C1.56886438,15.7448667 1.44325497,15.8047667 1.35856058,15.9089333 C1.27389873,16.0129667 1.23916817,16.1504667 1.26397107,16.2835333 C1.63881374,18.4289667 3.45788788,19.9931667 5.586217,19.9999333 L13.5857034,19.9999333 C16.0106582,19.9939333 17.9753273,17.9831333 17.9827161,15.4998 L17.9827161,8.9463 C14.9526618,8.5912 12.6636347,5.96646667 12.6604448,2.84316667 Z M14.542991,14.4430333 C14.5073816,14.4457667 14.4717722,14.4457667 14.4363255,14.4430333 C14.1427269,14.4418667 13.8912477,14.2278 13.8363038,13.9325 C13.5189439,12.2322333 12.0669331,11.0026667 10.3766257,11.0026667 C8.68631826,11.0026667 7.23430741,12.2322333 6.91681736,13.9325 C6.88654611,14.0960333 6.79374684,14.2404333 6.65908861,14.3336667 C6.52443038,14.4270333 6.35901266,14.4614 6.19958409,14.4295 C6.03937432,14.3990333 5.8977179,14.3042333 5.80605787,14.1663333 C5.71439783,14.0283333 5.68044846,13.8586667 5.71159855,13.6948667 C6.03758409,11.9804 7.23837613,10.5776667 8.85531646,10.0222 C7.80239783,9.33156667 7.32027125,8.01256667 7.67158047,6.78366667 C8.02285714,5.55476667 9.12346112,4.71023333 10.3739566,4.71023333 C11.6243219,4.71023333 12.7249259,5.55476667 13.0763327,6.78366667 C13.427642,8.01256667 12.9455154,9.33156667 11.8924665,10.0222 C13.5144846,10.5788333 14.7171971,11.9879667 15.0388535,13.7085333 C15.1005353,14.0508667 14.8798156,14.3795 14.54566,14.4430333 L14.542991,14.4430333 Z" id="Fill-2" fill="#1082FF"></path>
                    <path d="M0.978640145,6.32753333 L2.57842676,6.32753333 C3.11891501,6.32753333 3.55706691,5.87883333 3.55706691,5.32546667 C3.55706691,4.77193333 3.11891501,4.32323333 2.57842676,4.32323333 L0.978640145,4.32323333 C0.438151899,4.32323333 4.26325641e-13,4.77193333 4.26325641e-13,5.32546667 C4.26325641e-13,5.87883333 0.438151899,6.32753333 0.978640145,6.32753333 Z M0.978640145,10.9342 L2.57842676,10.9342 C3.11891501,10.9342 3.55706691,10.4855 3.55706691,9.93196667 C3.55706691,9.3786 3.11891501,8.9299 2.57842676,8.9299 L0.978640145,8.9299 C0.438151899,8.9299 4.26325641e-13,9.3786 4.26325641e-13,9.93196667 C4.26325641e-13,10.4855 0.438151899,10.9342 0.978640145,10.9342 Z M0.978640145,15.3797667 L2.57842676,15.3797667 C3.11891501,15.3797667 3.55706691,14.9310667 3.55706691,14.3775333 C3.55706691,13.8240333 3.11891501,13.3754667 2.57842676,13.3754667 L0.978640145,13.3754667 C0.438151899,13.3754667 4.26325641e-13,13.8240333 4.26325641e-13,14.3775333 C4.26325641e-13,14.9310667 0.438151899,15.3797667 0.978640145,15.3797667 Z" id="Fill-3" fill="#1082FF"></path>
                    <path d="M13.0124051,7.59733333 C13.0142929,6.2463 12.040991,5.10163333 10.7339241,4.9179 C9.42695479,4.73406667 8.18840506,5.56776667 7.83468716,6.86933333 C7.48096926,8.1709 8.12089693,9.5399 9.33262568,10.0740333 C7.58242676,10.4908333 6.2344123,11.9215667 5.89023146,13.7276667 C5.84534539,13.9681667 5.99930561,14.2004667 6.2341519,14.2464333 C6.46912839,14.2925333 6.69596745,14.1348333 6.74085353,13.8942 C7.07904521,12.1118 8.6034141,10.8248 10.3766257,10.8248 C12.1497071,10.8248 13.6740759,12.1118 14.0122676,13.8942 C14.0508065,14.1030667 14.228821,14.2543667 14.4363255,14.2546333 L14.5163002,14.2546333 C14.7506257,14.2078667 14.9042278,13.9762333 14.8602206,13.7358667 C14.5194575,11.9262333 13.1706944,10.4914667 11.4178264,10.0740333 C12.3837722,9.64746667 13.0102242,8.67443333 13.0124051,7.59733333 Z M8.61539241,7.59733333 C8.61539241,6.5959 9.40801085,5.7842 10.3859024,5.7842 C11.3637939,5.7842 12.1564448,6.5959 12.1564448,7.59733333 C12.1564448,8.59863333 11.3637939,9.4105 10.3859024,9.4105 C9.40866184,9.40893333 8.61688969,8.5981 8.61539241,7.59733333 Z" id="Fill-4" fill="#FFFFFF"></path>
                    <path d="M10.375226,5.87703333 C9.44781917,5.87846667 8.69699458,6.64943333 8.69803617,7.59916667 C8.69904521,8.5489 9.45136709,9.31816667 10.378774,9.31763333 C11.3062134,9.31713333 12.0577541,8.54706667 12.0577541,7.59733333 C12.0563544,6.6468 11.3034141,5.87703333 10.375226,5.87703333 Z M10.375226,9.22753333 C9.49166365,9.22753333 8.77534177,8.49393333 8.77534177,7.58913333 C8.77534177,6.6843 9.49166365,5.95073333 10.375226,5.95073333 C11.2588861,5.95073333 11.9751103,6.6843 11.9751103,7.58913333 C11.9737107,8.4929 11.2577468,9.2248 10.375226,9.2248 L10.375226,9.22753333 Z" id="Fill-5" fill="#FFFFFF"></path>
                    <path d="M11.8951356,10.0222 C12.9481844,9.33156667 13.430311,8.01256667 13.0788716,6.78366667 C12.7275949,5.55476667 11.626991,4.71023333 10.3766257,4.71023333 C9.1261302,4.71023333 8.02552622,5.55476667 7.67424955,6.78366667 C7.32294033,8.01256667 7.80506691,9.33156667 8.85798553,10.0222 C7.24166365,10.5772667 6.04116456,11.9787 5.71426763,13.6921333 C5.6701302,14.0226 5.88590235,14.3308 6.20567089,14.3939333 C6.52556962,14.4571 6.83772152,14.2533333 6.91681736,13.9297667 C7.23430741,12.2295 8.68631826,10.9999333 10.3766257,10.9999333 C12.0669331,10.9999333 13.5189439,12.2295 13.8363038,13.9297667 C13.8912477,14.2250667 14.1427269,14.4391333 14.4363255,14.4403 C14.4717722,14.4430333 14.5073816,14.4430333 14.542991,14.4403 C14.8771465,14.3767667 15.0978662,14.0481 15.0361844,13.7058 C14.7146257,11.9875667 13.5143544,10.5799 11.8951356,10.0222 Z M14.5349837,14.3502 C14.5021736,14.3530667 14.4691031,14.3530667 14.4363255,14.3502 C14.1868644,14.3451333 13.9741193,14.1637333 13.9242857,13.9133667 C13.5965099,12.1719333 12.1082387,10.9137333 10.3766257,10.9137333 C8.64488246,10.9137333 7.15661121,12.1719333 6.82883544,13.9133667 C6.7674141,14.1991667 6.49699096,14.3845667 6.21559855,14.3339333 C5.93550814,14.2735 5.75189512,13.9974667 5.79958047,13.7085333 C6.13549367,11.9560667 7.40073418,10.5434333 9.07665461,10.0494333 C7.97927306,9.4403 7.42566727,8.14603333 7.73248101,6.90683333 C8.03926221,5.66776667 9.12827848,4.80006667 10.3766257,4.80006667 C11.6248427,4.80006667 12.713859,5.66776667 13.0206401,6.90683333 C13.3275841,8.14603333 12.7738481,9.4403 11.6764665,10.0494333 C13.3561953,10.5464333 14.6214358,11.9666 14.9508716,13.7249333 C14.998557,14.0138667 14.8149439,14.2899 14.5349837,14.3502 Z" id="Fill-6" fill="#FFFFFF"></path>
                    <path d="M12.1484376,7.59733333 C12.1484376,6.5959 11.3557866,5.7842 10.3778951,5.7842 C9.40013382,5.7842 8.60738517,6.5959 8.60738517,7.59733333 C8.60738517,8.59863333 9.40013382,9.4105 10.3778951,9.4105 C11.3551356,9.40893333 12.147038,8.5981 12.1484376,7.59733333 Z M10.3778951,9.31763333 C9.45048825,9.3161 8.69966365,8.54526667 8.70070524,7.5955 C8.70171429,6.64576667 9.45403617,5.8765 10.381443,5.87703333 C11.3088825,5.87753333 12.0604231,6.6476 12.0604231,7.59733333 C12.0598047,8.05423333 11.8817902,8.49226667 11.5656998,8.8149 C11.2497396,9.13756667 10.8215154,9.3183 10.375226,9.31763333 L10.3778951,9.31763333 Z" id="Fill-7" fill="#FFFFFF"></path>
                    <path d="M11.6764665,10.0494333 C12.7738481,9.4403 13.3275841,8.14603333 13.0206401,6.90683333 C12.713859,5.66776667 11.6248427,4.80006667 10.3766257,4.80006667 C9.12827848,4.80006667 8.03926221,5.66776667 7.73248101,6.90683333 C7.42566727,8.14603333 7.97927306,9.4403 9.07665461,10.0494333 C7.40174322,10.5442 6.13777215,11.9567 5.80224955,13.7085333 C5.80478843,13.9684333 5.98573237,14.1904333 6.23480289,14.2395333 C6.48400362,14.2884667 6.7324557,14.1509667 6.82883544,13.9106 C7.15661121,12.1692 8.64488246,10.911 10.3766257,10.911 C12.1082387,10.911 13.5965099,12.1692 13.9242857,13.9106 C13.964094,14.1706333 14.1793454,14.3647667 14.4363255,14.3720667 C14.4691031,14.3748 14.5021736,14.3748 14.5349837,14.3720667 C14.8149439,14.3116667 14.998557,14.0357333 14.9508716,13.7468 C14.6286944,11.9800333 13.3620542,10.5499333 11.6764665,10.0494333 Z M14.8762351,13.7413333 C14.9202423,13.9817 14.7666401,14.2133667 14.5323146,14.2601 L14.45234,14.2601 C14.2447052,14.2598333 14.0666908,14.1085333 14.0282821,13.8996667 C13.6900904,12.1172667 12.1657215,10.8302667 10.3925099,10.8302667 C8.61946112,10.8302667 7.09509222,12.1172667 6.75686799,13.8996667 C6.71198192,14.1401667 6.48514286,14.298 6.25019892,14.2519 C6.01535262,14.2059333 5.86135986,13.9736333 5.90624593,13.7331333 C6.2461302,11.9293667 7.58714647,10.4973333 9.33262568,10.0740333 C8.1838481,9.56686667 7.54099096,8.30293333 7.7938698,7.04823333 C8.04665099,5.79356667 9.1254792,4.89343333 10.3766257,4.89343333 C11.627642,4.89343333 12.7064702,5.79356667 12.9593816,7.04823333 C13.2121302,8.30293333 12.5692731,9.56686667 11.4204955,10.0740333 C13.1748933,10.4922667 14.524047,11.9296333 14.8628897,13.7413333 L14.8762351,13.7413333 Z" id="Fill-8" fill="#FFFFFF"></path>
                    <path d="M13.5857034,0.00606666667 L13.3377722,0.00606666667 C12.4248499,1.80176667 12.4338662,3.94276667 13.3620542,5.73026667 C14.2902098,7.5179 16.0184051,8.72273333 17.9827161,8.95176667 L17.9827161,4.5062 C17.9753273,2.02286667 16.0106582,0.0120333333 13.5857034,0.00606666667 Z" id="Fill-9" fill="#1082FF"></path>
                    <path d="M13.5857034,0.00606666667 L13.3377722,0.00606666667 C12.4248499,1.80176667 12.4338662,3.94276667 13.3620542,5.73026667 C14.2902098,7.5179 16.0184051,8.72273333 17.9827161,8.95176667 L17.9827161,4.5062 C17.9753273,2.02286667 16.0106582,0.0120333333 13.5857034,0.00606666667 Z" id="Fill-10" fill="#459CFC"></path>
                </g>
            </g>
        </g>
    </g>
</svg>