<?xml version="1.0" encoding="UTF-8"?>
<svg width="20px" height="20px" viewBox="0 0 20 20" version="1.1" xmlns="http://www.w3.org/2000/svg" xmlns:xlink="http://www.w3.org/1999/xlink">
    <!-- Generator: Sketch 52.5 (67469) - http://www.bohemiancoding.com/sketch -->
    <title>分组 9</title>
    <desc>Created with Sketch.</desc>
    <g id="Page-1" stroke="none" stroke-width="1" fill="none" fill-rule="evenodd">
        <g id="教师班级首页" transform="translate(-173.000000, -309.000000)">
            <g id="分组-9" transform="translate(173.000000, 309.000000)">
                <g id="分组-2" transform="translate(0.000000, 1.000000)">
                    <g id="分组" transform="translate(2.756303, 0.000000)" fill="#01C700">
                        <path d="M8.62433613,11.6906591 C8.57969748,11.6436818 8.51798319,11.6174318 8.45364706,11.6181136 C8.044,11.6138523 7.63657143,11.6780114 7.2474958,11.808 C6.89509244,11.9266364 6.56329412,12.1009773 6.26443697,12.3245455 C5.94117647,12.574125 5.64245378,12.8546932 5.37223529,13.1624318 C5.32746218,13.2087955 5.30184874,13.2707045 5.30067227,13.3355455 C5.3022521,13.4707159 5.40978151,13.5798068 5.54305882,13.581375 C5.60702521,13.5800455 5.66806723,13.5541023 5.7137479,13.5086932 C5.78164706,13.4472955 5.87341176,13.3541932 5.98910924,13.2294205 L6.24238655,12.9753409 C6.53952941,12.6901023 6.88457143,12.4611818 7.26127731,12.2995227 C7.64181513,12.1572955 8.04544538,12.0891136 8.45089076,12.0984205 C8.58403361,12.0968523 8.69169748,11.9877614 8.69314286,11.8525909 C8.69156303,11.7916023 8.66689076,11.7336818 8.62433613,11.6906591 Z" id="Fill-1"></path>
                        <path d="M14.2334454,5.32605682 C14.2390924,5.26002273 14.2390924,5.19368182 14.2334454,5.12778409 L14.2334454,2.22327273 C14.1797647,1.54714773 13.6231597,1.02620455 12.9544538,1.02620455 C12.2855798,1.02620455 11.7290084,1.54714773 11.6752941,2.22327273 L11.6752941,3.2175 L8.37092437,0.483409091 C7.69657143,-0.13875 6.66621849,-0.13875 5.99186555,0.483409091 L2.23872269,3.55547727 C3.45667227,5.10180682 3.91230252,7.12714773 3.47636975,9.05621591 C3.04043697,10.9852841 1.76036975,12.6072614 0,13.4612727 L0,15.6060682 C0,17.0582727 0.977546218,17.9659432 2.43697479,17.9659432 L11.8983866,17.9659432 C13.2173109,17.9659432 14.2994958,17.2705227 14.3353613,15.6060682 L14.3353613,10.4423523 L16.7392269,9.57092045 C17.0559328,9.30565909 17.2392269,8.91092045 17.2392269,8.49439773 C17.2392269,8.07784091 17.0559328,7.683 16.7392269,7.41773864 L14.2334454,5.32605682 Z M10.6372101,11.1041932 C10.6363025,11.3537727 10.6104202,11.6026364 10.5601345,11.847 C10.4578487,12.3912614 10.2167731,12.8987727 9.86067227,13.3187727 C9.47976471,13.7499886 9.01838655,14.1002045 8.50315966,14.349375 C7.9925042,14.6183523 7.42635294,14.7608523 6.85095798,14.7653864 C6.47636975,14.7680455 6.104,14.7066477 5.74961345,14.5838864 C5.7109916,14.5708295 5.59993277,14.5168977 5.41636975,14.4219545 C5.30436975,14.3533636 5.18134454,14.3051591 5.05290756,14.2794545 C5.01247059,14.2794545 4.96295798,14.3204659 4.90413445,14.4023523 C4.84178151,14.4918409 4.78480672,14.5852159 4.73344538,14.681625 C4.67976471,14.7830795 4.61304202,14.8769659 4.53519328,14.9608636 C4.47858824,15.0317045 4.39613445,15.0760568 4.30658824,15.0837955 C4.24003361,15.0859091 4.17384874,15.0715227 4.11384874,15.0419659 C4.06840336,15.0200114 4.02810084,14.9887159 3.99552941,14.9498182 C3.95852101,14.8978977 3.92436975,14.8438295 3.89364706,14.78775 L3.87159664,14.7459545 L3.86057143,14.6844205 C3.85936134,14.6724205 3.85936134,14.6601818 3.86057143,14.6481818 C3.85845378,14.6304886 3.85845378,14.6127614 3.86057143,14.5950682 C3.86752941,14.4910568 3.90927731,14.3925 3.9789916,14.3157955 C4.05408403,14.2209886 4.14114286,14.1364432 4.23778151,14.0645114 C4.32826891,13.9980682 4.41465546,13.9263068 4.49670588,13.8494659 C4.57563025,13.7750114 4.61502521,13.7134773 4.61502521,13.6651364 C4.60161345,13.6153295 4.58403361,13.56675 4.5627563,13.519875 C4.53858824,13.4646136 4.51838655,13.40775 4.50211765,13.3495568 C4.47976471,13.2175909 4.4687395,13.0840227 4.46914286,12.9501818 C4.46941176,12.6626591 4.52561345,12.3779659 4.63431933,12.1124318 C4.74016807,11.8495568 4.8932437,11.6090455 5.08588235,11.4030341 C5.27848739,11.1982159 5.49593277,11.0189659 5.73307563,10.8695795 C5.96729412,10.7153523 6.21862185,10.5897614 6.48201681,10.4953636 C6.66137815,10.4418409 6.84611765,10.4090795 7.03270588,10.397625 C7.26036975,10.3789773 7.48712605,10.3677955 7.71284034,10.3640455 C7.93868908,10.3603295 8.16453782,10.3528636 8.39021849,10.3418182 C8.59939496,10.3325114 8.8069916,10.3015909 9.00984874,10.2496705 C9.1687395,10.2146591 9.31643697,10.1397955 9.43932773,10.0317955 L9.55226891,9.91728409 L9.66517647,9.80836364 C9.74040336,9.73578409 9.77442017,9.70967045 9.76705882,9.73019318 C9.75973109,9.75068182 9.80568067,9.73019318 9.90480672,9.66865909 C10.0039328,9.60726136 10.058958,9.60167045 10.0699832,9.65202273 C10.1856471,9.65798864 10.289916,9.72470455 10.3453109,9.82793182 C10.4302857,9.95907955 10.4909244,10.1047841 10.5243025,10.2579205 C10.5647395,10.4274545 10.5949244,10.5865909 10.6151597,10.7356023 C10.6334118,10.8575795 10.6435294,10.98075 10.645479,11.1041932 L10.6372101,11.1041932 Z" id="Fill-3"></path>
                    </g>
                    <path d="M6.40480672,7.59657955 C6.40638655,6.124125 5.91189916,4.695375 5.00329412,3.54709091 L0.498285714,7.22781818 C0.182655462,7.49311364 1.56319402e-13,7.88727273 1.56319402e-13,8.30301136 C1.56319402e-13,8.71892045 0.182655462,9.11294318 0.498285714,9.37820455 L2.76732773,10.216125 L2.76732773,13.4528864 C4.99068908,12.3740795 6.40544538,10.096125 6.40480672,7.59657955 Z" id="Fill-4" fill="#01C700"></path>
                    <path d="M6.40480672,7.59657955 C6.40638655,6.124125 5.91189916,4.695375 5.00329412,3.54709091 L0.498285714,7.22781818 C0.182655462,7.49311364 1.56319402e-13,7.88727273 1.56319402e-13,8.30301136 C1.56319402e-13,8.71892045 0.182655462,9.11294318 0.498285714,9.37820455 L2.76732773,10.216125 L2.76732773,13.4528864 C4.99068908,12.3740795 6.40544538,10.096125 6.40480672,7.59657955 Z" id="Fill-5" fill="#3DD240"></path>
                </g>
            </g>
        </g>
    </g>
</svg>