<?xml version="1.0" encoding="UTF-8"?>
<svg width="12px" height="12px" viewBox="0 0 12 12" version="1.1" xmlns="http://www.w3.org/2000/svg" xmlns:xlink="http://www.w3.org/1999/xlink">
    <!-- Generator: Sketch 52.5 (67469) - http://www.bohemiancoding.com/sketch -->
    <title>Path 3</title>
    <desc>Created with Sketch.</desc>
    <g id="Page-1" stroke="none" stroke-width="1" fill="none" fill-rule="evenodd">
        <g id="个人报告" transform="translate(-406.000000, -158.000000)" fill="#FA5555">
            <g id="Path-3" transform="translate(406.000000, 158.000000)">
                <path d="M10.6837527,1.31623595 C10.2613738,0.894588016 9.57554498,0.894588016 9.15316605,1.31623595 L5.97816516,4.4911232 L2.92987794,1.44294509 C2.51966926,1.03203522 1.85388553,1.03203522 1.44296095,1.44294509 C1.03275226,1.85313909 1.03275226,2.51889899 1.44296095,2.92980886 L4.49196406,5.97798697 L1.31624727,9.15359009 C0.894584243,9.5759539 0.894584243,10.2610423 1.31624727,10.6826902 C1.73934209,11.1057699 2.42445502,11.1057699 2.84683395,10.6826902 L6.02183484,7.50851886 L9.08801947,10.573162 C9.49822816,10.9840719 10.1640119,10.9840719 10.5742206,10.573162 C10.9844293,10.162968 10.9844293,9.4972081 10.5742206,9.0870141 L7.50875183,6.02165509 L10.6837527,2.84676784 C11.1054158,2.42440404 11.1054158,1.73931563 10.6837527,1.31623595" id="Path"></path>
            </g>
        </g>
    </g>
</svg>