<?xml version="1.0" encoding="UTF-8"?>
<svg width="20px" height="20px" viewBox="0 0 20 20" version="1.1" xmlns="http://www.w3.org/2000/svg" xmlns:xlink="http://www.w3.org/1999/xlink">
    <!-- Generator: Sketch 52.5 (67469) - http://www.bohemiancoding.com/sketch -->
    <title>形状 2</title>
    <desc>Created with Sketch.</desc>
    <g id="Page-1" stroke="none" stroke-width="1" fill="none" fill-rule="evenodd">
        <g id="教师学生管理" transform="translate(-132.000000, -327.000000)" fill="#FEBB4D" fill-rule="nonzero">
            <g id="形状-2" transform="translate(132.000000, 327.000000)">
                <path d="M13.9015263,6.72004028 L10.3840473,4.081571 L10.3840473,2.72406848 L13.5135401,2.72406848 L13.5135401,1 L10.2363368,1 L9.9487937,1 L9.9487937,4.081571 L6.38601674,6.86102719 L6.38601674,11.3605237 L2,11.3605237 L2,18.9979859 L8.46774988,18.9979859 L8.46774988,16.0654582 C8.46774988,15.1953676 9.17479074,14.490433 10.0452979,14.490433 C10.9354998,14.490433 11.6563269,15.2114804 11.6563269,16.0996979 L11.6563269,19 L18,19 L18,11.3625378 L13.9015263,11.3625378 L13.9015263,6.72004028 Z M8.51851852,8.5 C8.51851852,7.6713555 9.18250335,7 10,7 C10.8193462,7 11.4814815,7.6713555 11.4814815,8.5 C11.4814815,9.3286445 10.8193462,10 10,10 C9.18250335,10 8.51851852,9.3286445 8.51851852,8.5 Z" id="形状"></path>
            </g>
        </g>
    </g>
</svg>