<?xml version="1.0" encoding="UTF-8"?>
<svg width="16px" height="16px" viewBox="0 0 16 16" version="1.1" xmlns="http://www.w3.org/2000/svg" xmlns:xlink="http://www.w3.org/1999/xlink">
    <!-- Generator: Sketch 52.5 (67469) - http://www.bohemiancoding.com/sketch -->
    <title>拖动</title>
    <desc>Created with Sketch.</desc>
    <g id="Page-1" stroke="none" stroke-width="1" fill="none" fill-rule="evenodd">
        <g id="布置作业-测试-按目标" transform="translate(-1010.000000, -359.000000)">
            <g id="拖动" transform="translate(1010.000000, 359.000000)">
                <rect id="矩形" fill="#000000" opacity="0" x="0" y="0" width="16" height="16"></rect>
                <path d="M2.4,3.704 C2.14816535,3.67208151 1.95937192,3.45784933 1.95937192,3.204 C1.95937192,2.95015067 2.14816535,2.73591849 2.4,2.704 L13.6,2.704 C13.8518346,2.73591849 14.0406281,2.95015067 14.0406281,3.204 C14.0406281,3.45784933 13.8518346,3.67208151 13.6,3.704 L2.4,3.704 Z M2.4,8.504 C2.14816535,8.47208151 1.95937192,8.25784933 1.95937192,8.004 C1.95937192,7.75015067 2.14816535,7.53591849 2.4,7.504 L13.6,7.504 C13.8518346,7.53591849 14.0406281,7.75015067 14.0406281,8.004 C14.0406281,8.25784933 13.8518346,8.47208151 13.6,8.504 L2.4,8.504 Z M2.4,13.304 C2.14816535,13.2720815 1.95937192,13.0578493 1.95937192,12.804 C1.95937192,12.5501507 2.14816535,12.3359185 2.4,12.304 L13.6,12.304 C13.8518346,12.3359185 14.0406281,12.5501507 14.0406281,12.804 C14.0406281,13.0578493 13.8518346,13.2720815 13.6,13.304 L2.4,13.304 Z" id="形状" fill="#999999" fill-rule="nonzero"></path>
            </g>
        </g>
    </g>
</svg>