<?xml version="1.0" encoding="UTF-8"?>
<svg width="20px" height="20px" viewBox="0 0 20 20" version="1.1" xmlns="http://www.w3.org/2000/svg" xmlns:xlink="http://www.w3.org/1999/xlink">
    <!-- Generator: Sketch 52.5 (67469) - http://www.bohemiancoding.com/sketch -->
    <title>分组 11</title>
    <desc>Created with Sketch.</desc>
    <defs>
        <polygon id="path-1" points="0 0.031965096 19.9927446 0.031965096 19.9927446 18.7015777 0 18.7015777"></polygon>
    </defs>
    <g id="Page-1" stroke="none" stroke-width="1" fill="none" fill-rule="evenodd">
        <g id="教师班级首页" transform="translate(-450.000000, -308.000000)">
            <g id="分组-11" transform="translate(450.000000, 308.000000)">
                <g id="分组-2">
                    <g id="分组" transform="translate(0.000000, 0.265271)">
                        <mask id="mask-2" fill="white">
                            <use xlink:href="#path-1"></use>
                        </mask>
                        <g id="Clip-2"></g>
                        <path d="M11.5119865,0.474668412 C11.5442666,0.512767888 11.5825431,0.548115183 11.6119865,0.588767888 C11.5795987,0.548115183 11.5442666,0.512767888 11.5119865,0.474668412 Z M10.9961616,0.031965096 C11.1543771,0.124544503 11.2982828,0.238809773 11.4237374,0.371577661 C11.2982828,0.238809773 11.1543771,0.124544503 10.9961616,0.031965096 Z M7.69451178,1.88730017 L6.65747475,3.97073473 C6.62666667,4.03211169 6.59262626,4.09209599 6.55538721,4.14999127 C6.59276094,4.09209599 6.62680135,4.03224433 6.65747475,3.97073473 L7.69451178,1.88730017 Z M16.0189226,0.344354276 C16.1951515,0.366006981 16.3677104,0.410804538 16.5319865,0.477387435 C16.3677104,0.410804538 16.1951515,0.366006981 16.0189226,0.344354276 Z" id="Fill-1" fill="#FFBA00" mask="url(#mask-2)"></path>
                        <path d="M18.3082155,5.50005236 L14.8217845,5.0110925 C14.1763973,4.92093368 13.6173064,4.52365794 13.3269024,3.94894939 L11.8318519,0.990818499 C12.419899,2.4667836 11.8689562,4.14637696 10.5150505,5.00446073 C9.16127946,5.86244503 7.38070707,5.66067365 6.26026936,4.52213264 C5.96434343,4.81187435 5.5830303,5.00200698 5.17070707,5.06534031 L1.68703704,5.55430017 C0.942491582,5.66415532 0.325656566,6.18017277 0.0952188552,6.88599127 C-0.135353535,7.59177661 0.0603703704,8.36517277 0.60026936,8.8818534 L3.12959596,11.2940244 C3.59744108,11.7410384 3.81195286,12.3860768 3.70329966,13.0189459 L3.12131313,16.4415323 C3.00215488,17.1714241 3.31228956,17.9049302 3.92215488,18.3358621 C4.53215488,18.7667941 5.33710438,18.8212077 6.0010101,18.4761571 L9.11498316,16.8463019 C9.69185185,16.5477731 10.3807744,16.5477731 10.9575084,16.8463019 L14.0798653,18.4516859 C14.7480135,18.7943822 15.5558249,18.7340332 16.1638384,18.2959721 C16.7718855,17.857911 17.0749158,17.1182042 16.9457576,16.3872845 L16.3389226,12.9699703 C16.2237037,12.3399529 16.429798,11.6942513 16.8905051,11.2424625 L19.4060269,8.81397731 C19.9380471,8.29497557 20.1273064,7.52466318 19.8950505,6.82355323 C19.6627609,6.12241012 19.0486869,5.61027225 18.3082155,5.50005236 Z M10.003165,13.5079058 C8.82983165,13.5063473 7.8793266,12.5690803 7.8793266,11.4135951 C7.8793266,11.2393787 7.97373737,11.0783595 8.12683502,10.9913176 C8.28006734,10.9041431 8.46878788,10.9041431 8.6220202,10.9913176 C8.77511785,11.0783595 8.86956229,11.2393787 8.86956229,11.4135951 C8.86956229,12.0301169 9.37710438,12.529986 10.003165,12.529986 C10.6293266,12.529986 11.1369024,12.0301169 11.1369024,11.4135951 C11.1369024,11.2393787 11.2311785,11.0783595 11.3844108,10.9913176 C11.5375084,10.9041431 11.7262626,10.9041431 11.8794613,10.9913176 C12.0326936,11.0783595 12.1270034,11.2393787 12.1270034,11.4135951 C12.1270034,12.5690803 11.1765993,13.5063473 10.003165,13.5079058 Z M6.43952862,4.31786736 L6.53952862,4.21786736 L6.43952862,4.31786736 Z" id="Fill-3" fill="#FF6363" mask="url(#mask-2)"></path>
                    </g>
                    <path d="M11.6305051,11.1926248 C11.3578451,11.1926248 11.1369024,11.4103455 11.1369024,11.6788656 C11.1369024,12.2953874 10.6293266,12.7952565 10.003165,12.7952565 C9.37710438,12.7952565 8.86956229,12.2953874 8.86956229,11.6788656 C8.86956229,11.5046492 8.77511785,11.34363 8.6220202,11.2565881 C8.46878788,11.1694136 8.28006734,11.1694136 8.12683502,11.2565881 C7.97373737,11.34363 7.8793266,11.5046492 7.8793266,11.6788656 C7.8793266,12.833986 8.83023569,13.7704572 10.003165,13.7704572 C11.176229,13.7704572 12.1270034,12.833986 12.1270034,11.6788656 C12.1270034,11.5493141 12.0746465,11.4252339 11.9814141,11.3340471 C11.8882828,11.2427277 11.7620202,11.191829 11.6305051,11.1926248 Z" id="Fill-4" fill="#FFFFFF"></path>
                    <path d="M11.8318519,1.25608901 L11.7574074,1.10949389 C11.7132323,1.02076091 11.6624579,0.935542757 11.6057576,0.854038394 C11.6624579,0.935542757 11.7132323,1.02076091 11.7574074,1.10949389 L11.8318519,1.25608901 Z M8.31794613,0.932790576 C8.27771044,0.99330541 8.24087542,1.05584293 8.20760943,1.12023735 L7.69451178,2.15257068 L8.20760943,1.12023735 C8.24087542,1.05584293 8.27771044,0.99330541 8.31794613,0.932790576 Z M6.50016835,4.51526178 L6.60016835,4.41526178 L6.50016835,4.51526178 Z M9.71353535,0.0473507853 C9.18929293,0.11652007 8.71619529,0.393064572 8.40343434,0.813385689 C8.71619529,0.393064572 9.18929293,0.11652007 9.71353535,0.0473507853 Z M11.4237374,0.636848168 C11.459145,0.669343805 11.4914412,0.707443281 11.5237374,0.742657941 C11.4914412,0.704724258 11.4720635,0.666624782 11.4237374,0.636848168 Z M6.26026936,4.77377487 C6.32457912,4.71186736 6.38441077,4.64554974 6.43952862,4.57548517 C6.38427609,4.6454171 6.32444444,4.71160209 6.26026936,4.77377487 Z" id="Fill-5" fill="#FFFFFF"></path>
                    <path d="M12.0580808,2.44320768 C12.0578114,2.03532112 11.9811448,1.63108202 11.8318519,1.25065096 L11.7574074,1.10405585 C11.7132323,1.01532286 11.6624579,0.930071553 11.6057576,0.848600349 C11.5753872,0.807947644 11.5422559,0.77256719 11.5119865,0.734500873 C11.4816162,0.696534031 11.4567677,0.661186736 11.4264983,0.628691099 C11.2997306,0.498642234 11.1547811,0.387095986 10.9961616,0.297235602 C10.9189562,0.252935428 10.8388552,0.213940663 10.7561279,0.180383944 C10.5919865,0.113801047 10.4194276,0.0690034904 10.2431987,0.0473507853 C10.0673401,0.0245706806 9.88939394,0.0245706806 9.71353535,0.0473507853 C9.18929293,0.11652007 8.71619529,0.393064572 8.40343434,0.813385689 C8.37306397,0.854038394 8.34542088,0.894856894 8.31794613,0.93826178 C8.27771044,0.998743455 8.24087542,1.06128098 8.20760943,1.12567539 L7.69451178,2.15800873 L6.65747475,4.23600524 C6.62680135,4.29751483 6.59276094,4.35736649 6.55538721,4.41526178 L6.51121212,4.48313787 L6.43952862,4.57548517 C6.38441077,4.64554974 6.32457912,4.71186736 6.26026936,4.77377487 C7.22063973,5.73916056 8.67845118,6.0365288 9.94909091,5.52634729 C11.2198653,5.01626527 12.0511111,3.8 12.0525589,2.44864572 L12.0580808,2.44320768 Z" id="Fill-6" fill="#FFBA00"></path>
                    <path d="M12.0580808,2.44320768 C12.0578114,2.03532112 11.9811448,1.63108202 11.8318519,1.25065096 L11.7574074,1.10405585 C11.7132323,1.01532286 11.6624579,0.930071553 11.6057576,0.848600349 C11.5753872,0.807947644 11.5422559,0.77256719 11.5119865,0.734500873 C11.4816162,0.696534031 11.4567677,0.661186736 11.4264983,0.628691099 C11.2997306,0.498642234 11.1547811,0.387095986 10.9961616,0.297235602 C10.9189562,0.252935428 10.8388552,0.213940663 10.7561279,0.180383944 C10.5919865,0.113801047 10.4194276,0.0690034904 10.2431987,0.0473507853 C10.0673401,0.0245706806 9.88939394,0.0245706806 9.71353535,0.0473507853 C9.18929293,0.11652007 8.71619529,0.393064572 8.40343434,0.813385689 C8.37306397,0.854038394 8.34542088,0.894856894 8.31794613,0.93826178 C8.27771044,0.998743455 8.24087542,1.06128098 8.20760943,1.12567539 L7.69451178,2.15800873 L6.65747475,4.23600524 C6.62680135,4.29751483 6.59276094,4.35736649 6.55538721,4.41526178 L6.51121212,4.48313787 L6.43952862,4.57548517 C6.38441077,4.64554974 6.32457912,4.71186736 6.26026936,4.77377487 C7.22063973,5.73916056 8.67845118,6.0365288 9.94909091,5.52634729 C11.2198653,5.01626527 12.0511111,3.8 12.0525589,2.44864572 L12.0580808,2.44320768 Z" id="Fill-7" fill="#F89494"></path>
                </g>
            </g>
        </g>
    </g>
</svg>