<?xml version="1.0" encoding="UTF-8"?>
<svg width="16px" height="16px" viewBox="0 0 16 16" version="1.1" xmlns="http://www.w3.org/2000/svg" xmlns:xlink="http://www.w3.org/1999/xlink">
    <!-- Generator: Sketch 52.5 (67469) - http://www.bohemiancoding.com/sketch -->
    <title>左转 2</title>
    <desc>Created with Sketch.</desc>
    <g id="Page-1" stroke="none" stroke-width="1" fill="none" fill-rule="evenodd">
        <g id="个人中心" transform="translate(-703.000000, -306.000000)" fill="#26C486">
            <g id="左转-2" transform="translate(703.000000, 306.000000)">
                <g id="左转" transform="translate(1.000000, 0.000000)">
                    <path d="M0.00787173666,10.1826098 C-0.0116838798,10.2706099 0.00787173666,10.3801219 0.0372051614,10.4690983 C0.64916508,13.2503999 2.94842729,15.3435648 5.77481183,15.6923856 C9.44147703,16.162698 12.8177591,13.5442034 13.2782815,9.8462397 L13.2782817,9.8462379 C13.7450226,6.15386016 11.1301167,2.78221874 7.43773899,2.31547445 C7.43228749,2.31478534 7.42683514,2.3141029 7.42138195,2.31342714 C7.32099951,2.29279542 7.21879616,2.2823131 7.11631557,2.2821383 C7.15738223,1.90764974 7.20822687,1.5624934 7.23951572,1.25742523 C7.29036018,0.862402744 7.34120465,0.567112557 7.34120465,0.468358223 C7.37151587,0.360802504 7.36271586,0.231735916 7.2835156,0.142757844 C7.1760391,-0.00941995519 6.96554818,-0.0456569192 6.81336988,0.0618187058 C6.80900234,0.0649032985 6.80470875,0.0680913084 6.80049275,0.0713800201 L6.79071496,0.0909356366 L6.51302651,0.346135934 L4.5535633,1.87733772 L4.27587485,2.08267186 L4.03827457,2.25965004 C3.96544779,2.31541632 3.91595942,2.39627053 3.89943001,2.48649436 C3.8831444,2.57781098 3.90821498,2.67164693 3.96787449,2.74267264 L4.1438747,2.98027292 L4.34920884,3.25796136 L5.88041062,5.21742458 L6.10529901,5.50489101 L6.12485463,5.5146688 C6.25294359,5.65351337 6.46023299,5.68382459 6.61863317,5.56649106 C6.70761107,5.48826877 6.76725555,5.36995693 6.74769993,5.26142461 C6.76823334,5.17244671 6.79952219,4.86640212 6.85036666,4.4723576 C6.89143332,4.19662338 6.93152235,3.871023 6.972589,3.54542262 C7.07134471,3.54542262 7.17987737,3.57573384 7.27863342,3.57671147 C10.2755182,3.95511191 12.4237003,6.69679635 12.0452999,9.69467796 C11.6668995,12.6915627 8.92521503,14.8397449 5.9283131,14.4613444 C3.58838687,14.1754472 1.69538779,12.4215639 1.23204663,10.1102206 C1.16968826,9.85922101 0.958055232,9.6733122 0.70111212,9.64382014 C0.355955781,9.59297567 0.0293774326,9.84817631 0.0078672513,10.1835547 L0.00787173666,10.1826098 Z" id="路径"></path>
                </g>
            </g>
        </g>
    </g>
</svg>