<?xml version="1.0" encoding="UTF-8"?>
<svg width="16px" height="16px" viewBox="0 0 16 16" version="1.1" xmlns="http://www.w3.org/2000/svg" xmlns:xlink="http://www.w3.org/1999/xlink">
    <!-- Generator: Sketch 52.5 (67469) - http://www.bohemiancoding.com/sketch -->
    <title>左转 copy</title>
    <desc>Created with Sketch.</desc>
    <g id="Page-1" stroke="none" stroke-width="1" fill="none" fill-rule="evenodd">
        <g id="个人中心" transform="translate(-914.000000, -306.000000)" fill="#26C486">
            <g id="左转-copy" transform="translate(922.000000, 314.000000) scale(-1, 1) translate(-922.000000, -314.000000) translate(914.000000, 306.000000)">
                <path d="M1.00826602,10.3461991 C0.987730888,10.435613 1.00826602,10.5468844 1.03906873,10.6372902 C1.68168103,13.463275 4.09611071,15.5900678 7.06406569,15.9444925 C10.91439,16.4223607 14.4597863,13.7617986 14.9433758,10.004425 L14.943376,10.0044232 C15.4334954,6.25272536 12.6876118,2.82691663 8.81028701,2.35267383 C8.80456245,2.35197366 8.798837,2.35128025 8.79311067,2.35059363 C8.68770019,2.32963046 8.58037758,2.31897973 8.47276385,2.31880213 C8.51588749,1.9382972 8.56927888,1.58759573 8.60213495,1.27762647 C8.65552616,0.876257725 8.70891737,0.576223536 8.70891737,0.475882659 C8.74074685,0.366598997 8.73150606,0.235458883 8.64833874,0.145051328 C8.53547887,-0.00957129203 8.3144447,-0.0463904231 8.15464395,0.0628118578 C8.15005765,0.0659460061 8.14554899,0.0691852333 8.14112182,0.0725267799 L8.13085427,0.0923965683 L7.83925672,0.3516968 L5.78164618,1.90749819 L5.49004863,2.11613114 L5.24054722,2.29595257 C5.16407263,2.35261477 5.11210544,2.43476796 5.09474809,2.52644128 C5.07764676,2.61922495 5.10397309,2.71456843 5.16662088,2.7867352 L5.35143674,3.02815266 L5.56705584,3.31030233 L7.17495381,5.30124541 L7.4111066,5.59333015 L7.43164174,5.60326503 C7.56614653,5.74434021 7.78381882,5.7751384 7.9501531,5.65591984 C8.0435878,5.57644087 8.1062198,5.45622828 8.08568467,5.34595233 C8.10724658,5.25554495 8.14010265,4.94458359 8.19349386,4.54420852 C8.2366175,4.26404447 8.27871454,3.93321314 8.32183818,3.60238181 C8.42554045,3.60238181 8.53950939,3.63318 8.64321202,3.63417333 C11.7902074,4.01865298 14.0459896,6.80438411 13.6486355,9.85042837 C13.2512814,12.8954597 10.3722691,15.0781537 7.22525567,14.693674 C4.76812515,14.4031837 2.78030787,12.6211233 2.29375847,10.272647 C2.22827664,10.0176149 2.00604315,9.82871936 1.73623004,9.79875348 C1.37378521,9.74709217 1.03084892,10.0063928 1.00826131,10.3471592 L1.00826602,10.3461991 Z" id="路径"></path>
            </g>
        </g>
    </g>
</svg>