<?xml version="1.0" encoding="UTF-8"?>
<svg width="16px" height="16px" viewBox="0 0 16 16" version="1.1" xmlns="http://www.w3.org/2000/svg" xmlns:xlink="http://www.w3.org/1999/xlink">
    <!-- Generator: Sketch 52.5 (67469) - http://www.bohemiancoding.com/sketch -->
    <title>路径 2</title>
    <desc>Created with Sketch.</desc>
    <g id="Page-1" stroke="none" stroke-width="1" fill="none" fill-rule="evenodd">
        <g id="班级通知" transform="translate(-307.000000, -1340.000000)" fill="#FFFFFF">
            <g id="路径-2" transform="translate(306.000000, 1340.000000)">
                <path d="M12.0869571,6.24988568 L7.62590691,10.5234968 C6.94761749,11.1732867 5.81018337,11.1732867 5.1318892,10.5234968 C4.45359978,9.87370695 4.45359978,8.78406418 5.1318892,8.13426977 L10.3964537,3.09090544 C11.5286748,2.00625666 13.3704872,2.00625666 14.5027083,3.09090544 C15.6349294,4.17555422 15.6349294,5.93997953 14.5027083,7.02462831 L8.86246756,12.4028915 C7.30240205,13.897408 4.73012414,13.897408 3.17004913,12.4028915 C1.60998362,10.9083749 1.60998362,8.44417592 3.17004913,6.94965028 L7.98068672,2.31614765 C8.03286283,2.26616381 8.07982133,2.24617028 8.10590938,2.19618644 L8.15808549,2.14620261 C8.36157216,1.9512658 8.66419327,1.9512658 8.86246217,2.14620261 C9.06594884,2.34113941 9.06594884,2.63104536 8.86246217,2.82098363 C8.78941562,2.87096747 8.73723951,2.91595292 8.68506277,2.99092928 L3.87442518,7.62443191 C2.69002798,8.75906453 2.69002798,10.5934648 3.87442518,11.7280989 C5.05882239,12.8627315 6.97367879,12.8627315 8.15807757,11.7280989 L12.9687152,7.11958895 L13.1461146,6.94964331 L13.7774456,6.34483874 C14.5079112,5.64506504 14.5079112,4.48544733 13.7774456,3.78566756 C13.0469801,3.08589386 11.836502,3.08589386 11.1060301,3.78566756 L5.83624151,8.80904381 C5.53362039,9.09894976 5.53362039,9.55880135 5.83624151,9.82371462 C6.13886262,10.1136206 6.61888314,10.1136206 6.89541541,9.82371462 L11.3564656,5.55010349 C11.5599523,5.35516668 11.8625734,5.35516668 12.0608423,5.55010349 C12.2591112,5.76503444 12.2591112,6.05494038 12.0869304,6.24987719 L12.0869571,6.24988568 Z" id="路径" transform="translate(8.675937, 7.761889) rotate(-15.000000) translate(-8.675937, -7.761889) "></path>
            </g>
        </g>
    </g>
</svg>